<svg width="680" height="121" viewBox="0 0 680 121" fill="none" xmlns="http://www.w3.org/2000/svg">
<mask id="path-1-outside-1_22397_20528" maskUnits="userSpaceOnUse" x="2" y="17" width="29" height="43" fill="black">
<rect fill="white" x="2" y="17" width="29" height="43"/>
<path d="M28.8672 58H4.95215V51.4082H12.7832V27.8623L4.74121 29.6025V22.8525L21.0889 19.5566V51.4082H28.8672V58Z"/>
</mask>
<path d="M28.8672 58V60H30.8672V58H28.8672ZM4.95215 58H2.95215V60H4.95215V58ZM4.95215 51.4082V49.4082H2.95215V51.4082H4.95215ZM12.7832 51.4082V53.4082H14.7832V51.4082H12.7832ZM12.7832 27.8623H14.7832V25.3832L12.3602 25.9075L12.7832 27.8623ZM4.74121 29.6025H2.74121V32.0816L5.16421 31.5573L4.74121 29.6025ZM4.74121 22.8525L4.34594 20.892L2.74121 21.2155V22.8525H4.74121ZM21.0889 19.5566H23.0889V17.1132L20.6936 17.5961L21.0889 19.5566ZM21.0889 51.4082H19.0889V53.4082H21.0889V51.4082ZM28.8672 51.4082H30.8672V49.4082H28.8672V51.4082ZM28.8672 56H4.95215V60H28.8672V56ZM6.95215 58V51.4082H2.95215V58H6.95215ZM4.95215 53.4082H12.7832V49.4082H4.95215V53.4082ZM14.7832 51.4082V27.8623H10.7832V51.4082H14.7832ZM12.3602 25.9075L4.31821 27.6478L5.16421 31.5573L13.2062 29.8171L12.3602 25.9075ZM6.74121 29.6025V22.8525H2.74121V29.6025H6.74121ZM5.13648 24.8131L21.4841 21.5172L20.6936 17.5961L4.34594 20.892L5.13648 24.8131ZM19.0889 19.5566V51.4082H23.0889V19.5566H19.0889ZM21.0889 53.4082H28.8672V49.4082H21.0889V53.4082ZM26.8672 51.4082V58H30.8672V51.4082H26.8672Z" fill="url(#paint0_linear_22397_20528)" mask="url(#path-1-outside-1_22397_20528)"/>
<path fill-rule="evenodd" clip-rule="evenodd" d="M35 50.9998C35 60.3498 42.65 67.9998 52 67.9998C59.99 67.9998 66.96 62.3898 68.66 54.5698C68.66 54.0598 68.49 53.7198 67.98 53.5498C67.47 53.5498 67.13 53.7198 66.96 54.2298C65.43 61.1998 59.14 66.2998 52 66.2998C43.5 66.2998 36.7 59.4998 36.7 50.9998C36.7 42.4998 43.5 35.6998 52 35.6998C59.14 35.6998 65.43 40.7998 66.96 47.7698C67.13 48.2798 67.47 48.6198 67.98 48.4498C68.49 48.2798 68.83 47.9398 68.66 47.4298C66.96 39.6098 59.99 33.9998 52 33.9998C42.65 33.9998 35 41.6498 35 50.9998ZM38.7399 48.2801C38.7399 48.7901 38.9099 49.1301 39.5899 49.3001C39.9299 49.3001 40.2699 48.9601 40.4399 48.6201C41.4599 43.1801 46.3899 39.1001 51.9999 39.1001C55.7399 39.1001 59.3099 40.8001 61.5199 43.8601C61.8599 44.2001 62.3699 44.3701 62.7099 44.0301C63.0499 43.6901 63.2199 43.1801 62.8799 42.8401C60.3299 39.4401 56.2499 37.4001 51.9999 37.4001C45.5399 37.4001 39.9299 41.9901 38.7399 48.2801ZM51.9999 64.5997C47.7499 64.5997 43.6699 62.5597 41.1199 59.1597C39.9299 57.6297 39.0799 55.7597 38.7399 53.7197C38.5699 53.2097 38.9099 52.8697 39.4199 52.6997C39.9299 52.5297 40.2699 52.8697 40.4399 53.3797C40.6099 54.7397 41.1199 56.0997 41.7999 57.2897C44.3499 54.3997 48.0899 52.6997 51.9999 52.6997C56.2499 52.6997 60.3299 54.7397 62.8799 58.1397C63.0499 58.4797 63.0499 58.8197 62.8799 59.1597C60.3299 62.5597 56.2499 64.5997 51.9999 64.5997ZM42.9899 58.6497C45.1999 61.3697 48.4299 62.8997 51.9999 62.8997C55.5699 62.8997 58.7999 61.3697 61.1799 58.6497C58.7999 55.9297 55.5699 54.3997 51.9999 54.3997C48.4299 54.3997 45.1999 55.9297 42.9899 58.6497ZM46.8999 45.8996C46.8999 48.7896 49.1099 50.9996 51.9999 50.9996C54.8899 50.9996 57.0999 48.7896 57.0999 45.8996C57.0999 43.0096 54.8899 40.7996 51.9999 40.7996C49.1099 40.7996 46.8999 43.0096 46.8999 45.8996ZM48.5999 45.8996C48.5999 44.0296 50.1299 42.4996 51.9999 42.4996C53.8699 42.4996 55.3999 44.0296 55.3999 45.8996C55.3999 47.7696 53.8699 49.2996 51.9999 49.2996C50.1299 49.2996 48.5999 47.7696 48.5999 45.8996ZM39.25 51.8501C39.7194 51.8501 40.1 51.4696 40.1 51.0001C40.1 50.5307 39.7194 50.1501 39.25 50.1501C38.7806 50.1501 38.4 50.5307 38.4 51.0001C38.4 51.4696 38.7806 51.8501 39.25 51.8501ZM64.75 50.1497H68.15C68.66 50.1497 69 50.4897 69 50.9997C69 51.5097 68.66 51.8497 68.15 51.8497H64.75V55.2497C64.75 55.7597 64.41 56.0997 63.9 56.0997C63.39 56.0997 63.05 55.7597 63.05 55.2497V51.8497H59.65C59.14 51.8497 58.8 51.5097 58.8 50.9997C58.8 50.4897 59.14 50.1497 59.65 50.1497H63.05V46.7497C63.05 46.2397 63.39 45.8997 63.9 45.8997C64.41 45.8997 64.75 46.2397 64.75 46.7497V50.1497Z" fill="#6A90D9"/>
<path d="M38.8859 97.5898C38.1477 97.9727 37.2294 98.1641 36.1311 98.1641C34.7092 98.1641 33.5699 97.7152 32.7131 96.8174C31.8563 95.9196 31.4279 94.7415 31.4279 93.2832C31.4279 91.7155 31.9087 90.4486 32.8703 89.4824C33.8365 88.5163 35.0555 88.0332 36.5275 88.0332C37.4755 88.0332 38.2616 88.1676 38.8859 88.4365V90.0498C38.2251 89.6579 37.496 89.4619 36.6984 89.4619C35.6366 89.4619 34.7753 89.8014 34.1145 90.4805C33.4582 91.1595 33.1301 92.0664 33.1301 93.2012C33.1301 94.2812 33.4377 95.1426 34.0529 95.7852C34.6682 96.4232 35.4771 96.7422 36.4797 96.7422C37.4048 96.7422 38.2069 96.5234 38.8859 96.0859V97.5898ZM44.9081 92.5107C44.7167 92.3604 44.441 92.2852 44.081 92.2852C43.6116 92.2852 43.2196 92.4971 42.9052 92.9209C42.5907 93.3447 42.4335 93.9212 42.4335 94.6504V98H40.8476V91H42.4335V92.4424H42.4609C42.6158 91.9502 42.8528 91.5674 43.1718 91.2939C43.4954 91.016 43.8554 90.877 44.2519 90.877C44.539 90.877 44.7577 90.9202 44.9081 91.0068V92.5107ZM52.1129 94.9307H47.3414C47.3597 95.5778 47.5579 96.0768 47.9362 96.4277C48.319 96.7786 48.8431 96.9541 49.5084 96.9541C50.2558 96.9541 50.9417 96.7308 51.5661 96.2842V97.5625C50.928 97.9635 50.0849 98.1641 49.0368 98.1641C48.0068 98.1641 47.1979 97.8473 46.61 97.2139C46.0267 96.5758 45.735 95.6803 45.735 94.5273C45.735 93.4382 46.0563 92.5518 46.6989 91.8682C47.346 91.18 48.1481 90.8359 49.1051 90.8359C50.0621 90.8359 50.8027 91.1436 51.3268 91.7588C51.8509 92.374 52.1129 93.2285 52.1129 94.3223V94.9307ZM50.5817 93.8096C50.5771 93.2399 50.4427 92.7979 50.1784 92.4834C49.914 92.1644 49.5495 92.0049 49.0846 92.0049C48.6289 92.0049 48.2415 92.1712 47.9225 92.5039C47.608 92.8366 47.4144 93.2718 47.3414 93.8096H50.5817ZM59.2767 98H57.7386V96.9062H57.7113C57.2282 97.7448 56.5196 98.1641 55.5853 98.1641C54.8972 98.1641 54.3571 97.9772 53.9652 97.6035C53.5778 97.2298 53.3841 96.7354 53.3841 96.1201C53.3841 94.7985 54.1452 94.0283 55.6673 93.8096L57.7455 93.5156C57.7455 92.5176 57.2715 92.0186 56.3236 92.0186C55.4896 92.0186 54.7377 92.3057 54.0677 92.8799V91.4922C54.806 91.0547 55.6582 90.8359 56.6244 90.8359C58.3926 90.8359 59.2767 91.7064 59.2767 93.4473V98ZM57.7455 94.5615L56.2757 94.7666C55.82 94.8258 55.4759 94.9375 55.2435 95.1016C55.0157 95.2611 54.9017 95.5436 54.9017 95.9492C54.9017 96.2454 55.0065 96.4893 55.2162 96.6807C55.4304 96.8675 55.7152 96.9609 56.0707 96.9609C56.5537 96.9609 56.9525 96.7923 57.267 96.4551C57.586 96.1133 57.7455 95.6849 57.7455 95.1699V94.5615ZM65.1895 97.9248C64.8796 98.0798 64.4718 98.1572 63.9659 98.1572C62.6078 98.1572 61.9288 97.5055 61.9288 96.2021V92.2441H60.7598V91H61.9288V89.3799L63.5147 88.9287V91H65.1895V92.2441H63.5147V95.7441C63.5147 96.1589 63.5899 96.4551 63.7403 96.6328C63.8907 96.8105 64.1414 96.8994 64.4923 96.8994C64.7611 96.8994 64.9936 96.8219 65.1895 96.667V97.9248ZM72.6814 94.9307H67.91C67.9282 95.5778 68.1264 96.0768 68.5047 96.4277C68.8875 96.7786 69.4116 96.9541 70.077 96.9541C70.8243 96.9541 71.5102 96.7308 72.1346 96.2842V97.5625C71.4966 97.9635 70.6535 98.1641 69.6053 98.1641C68.5753 98.1641 67.7664 97.8473 67.1785 97.2139C66.5952 96.5758 66.3035 95.6803 66.3035 94.5273C66.3035 93.4382 66.6248 92.5518 67.2674 91.8682C67.9145 91.18 68.7166 90.8359 69.6736 90.8359C70.6307 90.8359 71.3712 91.1436 71.8953 91.7588C72.4194 92.374 72.6814 93.2285 72.6814 94.3223V94.9307ZM71.1502 93.8096C71.1456 93.2399 71.0112 92.7979 70.7469 92.4834C70.4826 92.1644 70.118 92.0049 69.6531 92.0049C69.1974 92.0049 68.81 92.1712 68.491 92.5039C68.1766 92.8366 67.9829 93.2718 67.91 93.8096H71.1502ZM22.3367 117H20.7986V115.906H20.7713C20.2882 116.745 19.5795 117.164 18.6453 117.164C17.9571 117.164 17.4171 116.977 17.0252 116.604C16.6378 116.23 16.4441 115.735 16.4441 115.12C16.4441 113.799 17.2052 113.028 18.7273 112.81L20.8054 112.516C20.8054 111.518 20.3315 111.019 19.3836 111.019C18.5496 111.019 17.7976 111.306 17.1277 111.88V110.492C17.866 110.055 18.7182 109.836 19.6843 109.836C21.4526 109.836 22.3367 110.706 22.3367 112.447V117ZM20.8054 113.562L19.3357 113.767C18.88 113.826 18.5359 113.938 18.3035 114.102C18.0756 114.261 17.9617 114.544 17.9617 114.949C17.9617 115.245 18.0665 115.489 18.2761 115.681C18.4903 115.868 18.7752 115.961 19.1306 115.961C19.6137 115.961 20.0125 115.792 20.3269 115.455C20.6459 115.113 20.8054 114.685 20.8054 114.17V113.562ZM30.7925 117H29.2065V113.056C29.2065 111.748 28.744 111.094 27.8188 111.094C27.3358 111.094 26.937 111.276 26.6225 111.641C26.3081 112.001 26.1509 112.456 26.1509 113.008V117H24.5581V110H26.1509V111.162H26.1782C26.7023 110.278 27.4588 109.836 28.4477 109.836C29.2088 109.836 29.7899 110.084 30.1909 110.581C30.5919 111.073 30.7925 111.786 30.7925 112.721V117ZM42.5224 117H40.9843V115.906H40.957C40.4739 116.745 39.7652 117.164 38.831 117.164C38.1428 117.164 37.6028 116.977 37.2109 116.604C36.8235 116.23 36.6298 115.735 36.6298 115.12C36.6298 113.799 37.3909 113.028 38.913 112.81L40.9911 112.516C40.9911 111.518 40.5172 111.019 39.5693 111.019C38.7353 111.019 37.9833 111.306 37.3134 111.88V110.492C38.0517 110.055 38.9039 109.836 39.87 109.836C41.6383 109.836 42.5224 110.706 42.5224 112.447V117ZM40.9911 113.562L39.5214 113.767C39.0657 113.826 38.7216 113.938 38.4892 114.102C38.2613 114.261 38.1474 114.544 38.1474 114.949C38.1474 115.245 38.2522 115.489 38.4618 115.681C38.676 115.868 38.9609 115.961 39.3163 115.961C39.7994 115.961 40.1982 115.792 40.5126 115.455C40.8316 115.113 40.9911 114.685 40.9911 114.17V113.562ZM49.7545 116.679C49.194 117.002 48.5309 117.164 47.7653 117.164C46.7262 117.164 45.8877 116.84 45.2496 116.193C44.6116 115.542 44.2926 114.699 44.2926 113.664C44.2926 112.511 44.6344 111.586 45.318 110.889C46.0062 110.187 46.9245 109.836 48.0729 109.836C48.7109 109.836 49.2737 109.948 49.7614 110.171V111.647C49.2737 111.283 48.7542 111.101 48.2028 111.101C47.5329 111.101 46.9837 111.328 46.5553 111.784C46.1269 112.235 45.9127 112.828 45.9127 113.562C45.9127 114.286 46.1133 114.858 46.5143 115.277C46.9199 115.697 47.4622 115.906 48.1413 115.906C48.7109 115.906 49.2487 115.703 49.7545 115.298V116.679ZM56.6244 116.679C56.0638 117.002 55.4007 117.164 54.6351 117.164C53.5961 117.164 52.7575 116.84 52.1195 116.193C51.4815 115.542 51.1625 114.699 51.1625 113.664C51.1625 112.511 51.5043 111.586 52.1879 110.889C52.876 110.187 53.7943 109.836 54.9427 109.836C55.5808 109.836 56.1436 109.948 56.6312 110.171V111.647C56.1436 111.283 55.6241 111.101 55.0726 111.101C54.4027 111.101 53.8535 111.328 53.4252 111.784C52.9968 112.235 52.7826 112.828 52.7826 113.562C52.7826 114.286 52.9831 114.858 53.3841 115.277C53.7897 115.697 54.3321 115.906 55.0111 115.906C55.5808 115.906 56.1185 115.703 56.6244 115.298V116.679ZM61.587 117.164C60.5069 117.164 59.6433 116.838 58.9962 116.187C58.3536 115.53 58.0323 114.662 58.0323 113.582C58.0323 112.406 58.3673 111.488 59.0372 110.827C59.7117 110.166 60.6186 109.836 61.7579 109.836C62.8516 109.836 63.7039 110.157 64.3145 110.8C64.9252 111.442 65.2305 112.333 65.2305 113.473C65.2305 114.589 64.9001 115.485 64.2393 116.159C63.5831 116.829 62.699 117.164 61.587 117.164ZM61.6622 111.101C61.0424 111.101 60.5525 111.317 60.1925 111.75C59.8324 112.183 59.6524 112.78 59.6524 113.541C59.6524 114.275 59.8347 114.854 60.1993 115.277C60.5639 115.697 61.0515 115.906 61.6622 115.906C62.2865 115.906 62.7651 115.699 63.0977 115.284C63.435 114.869 63.6036 114.279 63.6036 113.514C63.6036 112.743 63.435 112.149 63.0977 111.729C62.7651 111.31 62.2865 111.101 61.6622 111.101ZM73.2352 117H71.6492V115.893H71.6219C71.1616 116.74 70.4461 117.164 69.4754 117.164C67.8211 117.164 66.9939 116.171 66.9939 114.184V110H68.5799V114.02C68.5799 115.277 69.0652 115.906 70.0359 115.906C70.5053 115.906 70.8904 115.733 71.1912 115.387C71.4966 115.04 71.6492 114.587 71.6492 114.026V110H73.2352V117ZM81.8208 117H80.2349V113.056C80.2349 111.748 79.7723 111.094 78.8472 111.094C78.3641 111.094 77.9654 111.276 77.6509 111.641C77.3364 112.001 77.1792 112.456 77.1792 113.008V117H75.5864V110H77.1792V111.162H77.2066C77.7307 110.278 78.4872 109.836 79.4761 109.836C80.2372 109.836 80.8182 110.084 81.2193 110.581C81.6203 111.073 81.8208 111.786 81.8208 112.721V117ZM87.7336 116.925C87.4237 117.08 87.0159 117.157 86.51 117.157C85.1519 117.157 84.4729 116.506 84.4729 115.202V111.244H83.3039V110H84.4729V108.38L86.0588 107.929V110H87.7336V111.244H86.0588V114.744C86.0588 115.159 86.134 115.455 86.2844 115.633C86.4348 115.811 86.6855 115.899 87.0364 115.899C87.3052 115.899 87.5377 115.822 87.7336 115.667V116.925Z" fill="#333F51"/>
<rect x="118" y="60" width="37" height="1" fill="#2B4078"/>
<mask id="path-6-outside-2_22397_20528" maskUnits="userSpaceOnUse" x="179" y="17" width="30" height="43" fill="black">
<rect fill="white" x="179" y="17" width="30" height="43"/>
<path d="M190.889 50.9336V51.0918H206.234V58H181.344V51.5137L192.181 41.1514C194.36 39.0596 195.89 37.3105 196.769 35.9043C197.665 34.4805 198.113 32.9863 198.113 31.4219C198.113 27.9414 196.241 26.2012 192.497 26.2012C189.245 26.2012 186.134 27.4932 183.163 30.0771V22.7471C186.45 20.6201 190.159 19.5566 194.29 19.5566C198.157 19.5566 201.172 20.5322 203.334 22.4834C205.514 24.417 206.604 27.0361 206.604 30.3408C206.604 34.7529 203.958 39.3145 198.667 44.0254L190.889 50.9336Z"/>
</mask>
<path d="M190.889 50.9336L189.561 49.4382L188.889 50.035V50.9336H190.889ZM190.889 51.0918H188.889V53.0918H190.889V51.0918ZM206.234 51.0918H208.234V49.0918H206.234V51.0918ZM206.234 58V60H208.234V58H206.234ZM181.344 58H179.344V60H181.344V58ZM181.344 51.5137L179.962 50.0682L179.344 50.6589V51.5137H181.344ZM192.181 41.1514L193.563 42.5969L193.565 42.5944L192.181 41.1514ZM196.769 35.9043L195.076 34.8387L195.073 34.8443L196.769 35.9043ZM183.163 30.0771H181.163V34.4675L184.476 31.5862L183.163 30.0771ZM183.163 22.7471L182.077 21.0679L181.163 21.659V22.7471H183.163ZM203.334 22.4834L201.994 23.9682L202 23.9739L202.007 23.9795L203.334 22.4834ZM198.667 44.0254L199.995 45.5208L199.997 45.5191L198.667 44.0254ZM188.889 50.9336V51.0918H192.889V50.9336H188.889ZM190.889 53.0918H206.234V49.0918H190.889V53.0918ZM204.234 51.0918V58H208.234V51.0918H204.234ZM206.234 56H181.344V60H206.234V56ZM183.344 58V51.5137H179.344V58H183.344ZM182.726 52.9592L193.563 42.5969L190.798 39.7059L179.962 50.0682L182.726 52.9592ZM193.565 42.5944C195.784 40.4654 197.454 38.581 198.465 36.9643L195.073 34.8443C194.325 36.0401 192.937 37.6538 190.796 39.7084L193.565 42.5944ZM198.461 36.9699C199.543 35.2521 200.113 33.392 200.113 31.4219H196.113C196.113 32.5806 195.787 33.7089 195.076 34.8387L198.461 36.9699ZM200.113 31.4219C200.113 29.3344 199.545 27.4118 198.071 26.0415C196.624 24.6968 194.643 24.2012 192.497 24.2012V28.2012C194.096 28.2012 194.922 28.5757 195.348 28.9712C195.746 29.3411 196.113 30.0289 196.113 31.4219H200.113ZM192.497 24.2012C188.666 24.2012 185.105 25.7373 181.851 28.5681L184.476 31.5862C187.163 29.249 189.824 28.2012 192.497 28.2012V24.2012ZM185.163 30.0771V22.7471H181.163V30.0771H185.163ZM184.25 24.4262C187.195 22.5205 190.522 21.5566 194.29 21.5566V17.5566C189.796 17.5566 185.706 18.7197 182.077 21.0679L184.25 24.4262ZM194.29 21.5566C197.828 21.5566 200.306 22.4449 201.994 23.9682L204.674 20.9986C202.038 18.6196 198.487 17.5566 194.29 17.5566V21.5566ZM202.007 23.9795C203.699 25.4805 204.604 27.5229 204.604 30.3408H208.604C208.604 26.5494 207.329 23.3535 204.661 20.9872L202.007 23.9795ZM204.604 30.3408C204.604 33.9143 202.454 37.9753 197.337 42.5317L199.997 45.5191C205.462 40.6536 208.604 35.5916 208.604 30.3408H204.604ZM197.339 42.53L189.561 49.4382L192.217 52.429L199.995 45.5208L197.339 42.53Z" fill="url(#paint1_linear_22397_20528)" mask="url(#path-6-outside-2_22397_20528)"/>
<path d="M244.191 49.7198V42.0143H236.857C236.765 42.0143 236.677 41.9777 236.612 41.9127C236.547 41.8476 236.51 41.7594 236.51 41.6674V39.4712C236.51 39.3792 236.547 39.291 236.612 39.2259C236.677 39.1608 236.765 39.1243 236.857 39.1243C236.949 39.1243 237.037 39.1608 237.102 39.2259C237.167 39.291 237.204 39.3792 237.204 39.4712V41.3204H243.98L237.204 34.732V37.6429C237.204 37.7349 237.167 37.8231 237.102 37.8882C237.037 37.9532 236.949 37.9898 236.857 37.9898C236.765 37.9898 236.677 37.9532 236.612 37.8882C236.547 37.8231 236.51 37.7349 236.51 37.6429V34.6939H220.7V54.4694L228.097 52.4918C228.276 52.4413 228.465 52.4397 228.646 52.4873C228.826 52.5349 228.989 52.6299 229.12 52.7625C229.257 52.8941 229.355 53.0607 229.404 53.2442C229.453 53.4276 229.451 53.621 229.398 53.8033L226.827 63.3614C226.78 63.5417 226.686 63.7063 226.554 63.8385C226.423 63.9708 226.259 64.066 226.079 64.1146C225.899 64.1632 225.71 64.1634 225.53 64.1152C225.35 64.067 225.186 63.9722 225.054 63.8402L223.392 62.1818C223.323 62.1138 223.231 62.0757 223.134 62.0757C223.037 62.0757 222.944 62.1138 222.875 62.1818L220.7 64.3571V67.3061H244.191V51.5482C244.191 51.4562 244.228 51.3679 244.293 51.3028C244.358 51.2378 244.446 51.2012 244.538 51.2012C244.63 51.2012 244.718 51.2378 244.784 51.3028C244.849 51.3679 244.885 51.4562 244.885 51.5482V67.6531C244.885 67.7451 244.849 67.8333 244.784 67.8984C244.718 67.9634 244.63 68 244.538 68H220.353C220.261 68 220.173 67.9634 220.108 67.8984C220.043 67.8333 220.006 67.7451 220.006 67.6531V65.051L218.618 66.4388C218.482 66.5761 218.32 66.6851 218.141 66.7596C217.963 66.834 217.771 66.8724 217.578 66.8725C217.382 66.8728 217.189 66.8346 217.009 66.7602C216.828 66.6858 216.665 66.5766 216.526 66.4388L215.43 65.339C215.155 65.0626 215 64.6883 215 64.2982C215 63.908 215.155 63.5337 215.43 63.2573L216.398 62.2755C216.463 62.2109 216.551 62.1746 216.643 62.1746C216.734 62.1746 216.822 62.2109 216.887 62.2755C216.92 62.3078 216.946 62.3461 216.963 62.3884C216.981 62.4307 216.99 62.476 216.99 62.5218C216.99 62.5676 216.981 62.613 216.963 62.6553C216.946 62.6975 216.92 62.7359 216.887 62.7682L215.919 63.7396C215.773 63.8871 215.69 64.0867 215.69 64.2947C215.69 64.5027 215.773 64.7022 215.919 64.8498L217.016 65.9427C217.089 66.0165 217.176 66.075 217.272 66.1149C217.367 66.1548 217.47 66.1753 217.574 66.1751C217.677 66.1764 217.779 66.1567 217.874 66.1174C217.968 66.078 218.054 66.0197 218.126 65.9461L222.386 61.6892C222.586 61.4917 222.855 61.381 223.136 61.381C223.416 61.381 223.686 61.4917 223.885 61.6892L225.543 63.3476C225.586 63.3992 225.642 63.4374 225.706 63.4577C225.77 63.478 225.838 63.4794 225.903 63.4618C225.967 63.4442 226.025 63.4084 226.07 63.3585C226.114 63.3087 226.144 63.2471 226.154 63.181L228.728 53.602C228.745 53.5409 228.745 53.4762 228.728 53.415C228.711 53.3538 228.677 53.2985 228.631 53.2551C228.587 53.2093 228.532 53.1764 228.471 53.1598C228.41 53.1433 228.345 53.1439 228.284 53.1614L218.684 55.7218C218.622 55.737 218.564 55.7694 218.519 55.8154C218.474 55.8614 218.442 55.9191 218.428 55.982C218.41 56.0429 218.41 56.1074 218.426 56.1686C218.443 56.2297 218.475 56.2852 218.521 56.329L220.169 57.9908C220.269 58.0893 220.349 58.2067 220.403 58.3363C220.458 58.4659 220.486 58.6049 220.486 58.7454C220.486 58.8859 220.458 59.025 220.403 59.1545C220.349 59.2841 220.269 59.4015 220.169 59.5L218.709 60.9571C218.642 61.014 218.557 61.0437 218.47 61.0403C218.382 61.0369 218.299 61.0007 218.238 60.939C218.176 60.8772 218.14 60.7943 218.136 60.707C218.133 60.6197 218.163 60.5343 218.219 60.468L219.68 59.0108C219.747 58.9419 219.784 58.8499 219.784 58.7541C219.784 58.6572 219.747 58.5641 219.68 58.4939L218.018 56.8355C217.887 56.7038 217.793 56.54 217.745 56.3604C217.698 56.1809 217.698 55.9919 217.747 55.8126C217.795 55.6332 217.89 55.4698 218.022 55.3388C218.154 55.2078 218.317 55.1137 218.497 55.0661L220.006 54.6429V34.3469C220.006 34.2549 220.043 34.1667 220.108 34.1016C220.173 34.0366 220.261 34 220.353 34H237.305C237.395 33.9995 237.482 34.0343 237.547 34.0971L244.781 41.1331C244.814 41.1656 244.841 41.2045 244.858 41.2474C244.876 41.2903 244.885 41.3364 244.885 41.3829V49.7094C244.885 49.8014 244.849 49.8897 244.784 49.9547C244.718 50.0198 244.63 50.0563 244.538 50.0563C244.446 50.0563 244.358 50.0198 244.293 49.9547C244.228 49.8897 244.191 49.8014 244.191 49.7094V49.7198ZM239.945 46.4447H225.665C225.573 46.4447 225.484 46.4813 225.419 46.5463C225.354 46.6114 225.318 46.6996 225.318 46.7916C225.318 46.8837 225.354 46.9719 225.419 47.037C225.484 47.102 225.573 47.1386 225.665 47.1386H239.945C240.037 47.1386 240.125 47.102 240.19 47.037C240.255 46.9719 240.292 46.8837 240.292 46.7916C240.292 46.6996 240.255 46.6114 240.19 46.5463C240.125 46.4813 240.037 46.4447 239.945 46.4447ZM240.292 50.8265C240.292 50.7345 240.255 50.6463 240.19 50.5812C240.125 50.5161 240.037 50.4796 239.945 50.4796H225.665C225.573 50.4796 225.484 50.5161 225.419 50.5812C225.354 50.6463 225.318 50.7345 225.318 50.8265C225.318 50.9185 225.354 51.0068 225.419 51.0719C225.484 51.1369 225.573 51.1735 225.665 51.1735H239.945C240.037 51.1735 240.125 51.1369 240.19 51.0719C240.255 51.0068 240.292 50.9185 240.292 50.8265ZM239.775 56.6933H233.183C233.091 56.6933 233.003 56.7298 232.938 56.7949C232.873 56.8599 232.836 56.9482 232.836 57.0402C232.836 57.1322 232.873 57.2205 232.938 57.2855C233.003 57.3506 233.091 57.3871 233.183 57.3871H239.775C239.867 57.3871 239.955 57.3506 240.02 57.2855C240.085 57.2205 240.122 57.1322 240.122 57.0402C240.122 56.9482 240.085 56.8599 240.02 56.7949C239.955 56.7298 239.867 56.6933 239.775 56.6933ZM239.775 60.3535H233.183C233.091 60.3535 233.003 60.39 232.938 60.4551C232.873 60.5202 232.836 60.6084 232.836 60.7004C232.836 60.7924 232.873 60.8807 232.938 60.9457C233.003 61.0108 233.091 61.0473 233.183 61.0473H239.775C239.867 61.0473 239.955 61.0108 240.02 60.9457C240.085 60.8807 240.122 60.7924 240.122 60.7004C240.122 60.6084 240.085 60.5202 240.02 60.4551C239.955 60.39 239.867 60.3535 239.775 60.3535ZM226.581 44.5816C225.861 44.5803 225.157 44.3655 224.559 43.9646C223.961 43.5636 223.495 42.9944 223.22 42.3288C222.946 41.6633 222.874 40.9312 223.015 40.2251C223.156 39.519 223.504 38.8706 224.013 38.3617C224.522 37.8528 225.171 37.5062 225.877 37.3658C226.584 37.2255 227.316 37.2975 227.981 37.5729C228.646 37.8483 229.215 38.3147 229.615 38.9131C230.016 39.5116 230.23 40.2153 230.23 40.9353C230.231 41.4146 230.137 41.8892 229.954 42.332C229.77 42.7749 229.501 43.1772 229.162 43.5159C228.823 43.8546 228.421 44.1231 227.978 44.306C227.535 44.4889 227.06 44.5826 226.581 44.5816ZM226.581 43.8878C227.164 43.8891 227.735 43.7174 228.221 43.3944C228.706 43.0713 229.085 42.6115 229.31 42.0729C229.534 41.5344 229.594 40.9414 229.481 40.369C229.368 39.7966 229.088 39.2705 228.677 38.8572C228.265 38.444 227.74 38.1622 227.168 38.0474C226.596 37.9327 226.002 37.9902 225.463 38.2126C224.924 38.4351 224.463 38.8125 224.138 39.2972C223.813 39.7818 223.639 40.3519 223.639 40.9353C223.639 41.7165 223.948 42.4659 224.5 43.0193C225.051 43.5727 225.799 43.885 226.581 43.8878Z" fill="#6A90D9" stroke="#6A90D9" stroke-width="0.8"/>
<path d="M211.708 89.5781H208.044V92.5244H211.421V93.8984H208.044V98H206.417V88.1973H211.708V89.5781ZM214.36 89.5303C214.1 89.5303 213.877 89.446 213.69 89.2773C213.508 89.1087 213.417 88.8945 213.417 88.6348C213.417 88.375 213.508 88.1585 213.69 87.9854C213.877 87.8122 214.1 87.7256 214.36 87.7256C214.629 87.7256 214.857 87.8122 215.044 87.9854C215.231 88.1585 215.324 88.375 215.324 88.6348C215.324 88.8809 215.231 89.0928 215.044 89.2705C214.857 89.4437 214.629 89.5303 214.36 89.5303ZM215.146 98H213.56V91H215.146V98ZM219.097 98H217.504V87.6367H219.097V98ZM223.041 98H221.449V87.6367H223.041V98ZM232.632 98.1641C231.551 98.1641 230.688 97.8382 230.041 97.1865C229.398 96.5303 229.077 95.6621 229.077 94.582C229.077 93.4062 229.412 92.488 230.082 91.8271C230.756 91.1663 231.663 90.8359 232.802 90.8359C233.896 90.8359 234.748 91.1572 235.359 91.7998C235.97 92.4424 236.275 93.3333 236.275 94.4727C236.275 95.5892 235.945 96.4847 235.284 97.1592C234.628 97.8291 233.744 98.1641 232.632 98.1641ZM232.707 92.1006C232.087 92.1006 231.597 92.3171 231.237 92.75C230.877 93.1829 230.697 93.7799 230.697 94.541C230.697 95.2747 230.879 95.8535 231.244 96.2773C231.608 96.6966 232.096 96.9062 232.707 96.9062C233.331 96.9062 233.81 96.6989 234.142 96.2842C234.48 95.8695 234.648 95.2793 234.648 94.5137C234.648 93.7435 234.48 93.1488 234.142 92.7295C233.81 92.3102 233.331 92.1006 232.707 92.1006ZM244.28 98H242.694V96.8926H242.666C242.206 97.7402 241.491 98.1641 240.52 98.1641C238.866 98.1641 238.039 97.1706 238.039 95.1836V91H239.624V95.0195C239.624 96.2773 240.11 96.9062 241.081 96.9062C241.55 96.9062 241.935 96.7331 242.236 96.3867C242.541 96.0404 242.694 95.5869 242.694 95.0264V91H244.28V98ZM250.322 97.9248C250.013 98.0798 249.605 98.1572 249.099 98.1572C247.741 98.1572 247.062 97.5055 247.062 96.2021V92.2441H245.893V91H247.062V89.3799L248.648 88.9287V91H250.322V92.2441H248.648V95.7441C248.648 96.1589 248.723 96.4551 248.873 96.6328C249.024 96.8105 249.274 96.8994 249.625 96.8994C249.894 96.8994 250.126 96.8219 250.322 96.667V97.9248ZM185.172 116.925C184.862 117.08 184.454 117.157 183.948 117.157C182.59 117.157 181.911 116.506 181.911 115.202V111.244H180.742V110H181.911V108.38L183.497 107.929V110H185.172V111.244H183.497V114.744C183.497 115.159 183.572 115.455 183.723 115.633C183.873 115.811 184.124 115.899 184.475 115.899C184.743 115.899 184.976 115.822 185.172 115.667V116.925ZM193.04 117H191.454V113.172C191.454 111.786 190.991 111.094 190.066 111.094C189.601 111.094 189.209 111.294 188.89 111.695C188.571 112.096 188.412 112.609 188.412 113.233V117H186.819V106.637H188.412V111.162H188.439C188.968 110.278 189.724 109.836 190.709 109.836C192.263 109.836 193.04 110.786 193.04 112.687V117ZM201.174 113.931H196.403C196.421 114.578 196.619 115.077 196.997 115.428C197.38 115.779 197.904 115.954 198.57 115.954C199.317 115.954 200.003 115.731 200.627 115.284V116.562C199.989 116.964 199.146 117.164 198.098 117.164C197.068 117.164 196.259 116.847 195.671 116.214C195.088 115.576 194.796 114.68 194.796 113.527C194.796 112.438 195.118 111.552 195.76 110.868C196.407 110.18 197.209 109.836 198.166 109.836C199.123 109.836 199.864 110.144 200.388 110.759C200.912 111.374 201.174 112.229 201.174 113.322V113.931ZM199.643 112.81C199.638 112.24 199.504 111.798 199.24 111.483C198.975 111.164 198.611 111.005 198.146 111.005C197.69 111.005 197.303 111.171 196.984 111.504C196.669 111.837 196.476 112.272 196.403 112.81H199.643ZM212.473 117H210.935V115.906H210.908C210.425 116.745 209.716 117.164 208.782 117.164C208.094 117.164 207.554 116.977 207.162 116.604C206.775 116.23 206.581 115.735 206.581 115.12C206.581 113.799 207.342 113.028 208.864 112.81L210.942 112.516C210.942 111.518 210.468 111.019 209.52 111.019C208.686 111.019 207.934 111.306 207.264 111.88V110.492C208.003 110.055 208.855 109.836 209.821 109.836C211.589 109.836 212.473 110.706 212.473 112.447V117ZM210.942 113.562L209.473 113.767C209.017 113.826 208.673 113.938 208.44 114.102C208.212 114.261 208.098 114.544 208.098 114.949C208.098 115.245 208.203 115.489 208.413 115.681C208.627 115.868 208.912 115.961 209.267 115.961C209.75 115.961 210.149 115.792 210.464 115.455C210.783 115.113 210.942 114.685 210.942 114.17V113.562ZM216.308 115.968H216.281V120.22H214.695V110H216.281V111.23H216.308C216.85 110.301 217.643 109.836 218.687 109.836C219.576 109.836 220.268 110.148 220.765 110.772C221.262 111.397 221.51 112.235 221.51 113.288C221.51 114.455 221.23 115.389 220.669 116.091C220.109 116.793 219.343 117.144 218.373 117.144C217.479 117.144 216.791 116.752 216.308 115.968ZM216.267 113.206V114.074C216.267 114.585 216.429 115.018 216.753 115.373C217.081 115.729 217.495 115.906 217.997 115.906C218.585 115.906 219.045 115.678 219.378 115.223C219.715 114.762 219.883 114.122 219.883 113.302C219.883 112.614 219.726 112.076 219.412 111.688C219.102 111.297 218.68 111.101 218.147 111.101C217.582 111.101 217.126 111.301 216.78 111.702C216.438 112.103 216.267 112.604 216.267 113.206ZM225.024 115.968H224.996V120.22H223.41V110H224.996V111.23H225.024C225.566 110.301 226.359 109.836 227.403 109.836C228.291 109.836 228.984 110.148 229.481 110.772C229.977 111.397 230.226 112.235 230.226 113.288C230.226 114.455 229.946 115.389 229.385 116.091C228.824 116.793 228.059 117.144 227.088 117.144C226.195 117.144 225.507 116.752 225.024 115.968ZM224.983 113.206V114.074C224.983 114.585 225.144 115.018 225.468 115.373C225.796 115.729 226.211 115.906 226.712 115.906C227.3 115.906 227.76 115.678 228.093 115.223C228.43 114.762 228.599 114.122 228.599 113.302C228.599 112.614 228.442 112.076 228.127 111.688C227.817 111.297 227.396 111.101 226.863 111.101C226.297 111.101 225.842 111.301 225.495 111.702C225.154 112.103 224.983 112.604 224.983 113.206ZM233.719 117H232.126V106.637H233.719V117ZM236.87 108.53C236.61 108.53 236.387 108.446 236.2 108.277C236.018 108.109 235.926 107.895 235.926 107.635C235.926 107.375 236.018 107.159 236.2 106.985C236.387 106.812 236.61 106.726 236.87 106.726C237.139 106.726 237.367 106.812 237.553 106.985C237.74 107.159 237.834 107.375 237.834 107.635C237.834 107.881 237.74 108.093 237.553 108.271C237.367 108.444 237.139 108.53 236.87 108.53ZM237.656 117H236.07V110H237.656V117ZM245.025 116.679C244.464 117.002 243.801 117.164 243.036 117.164C241.997 117.164 241.158 116.84 240.52 116.193C239.882 115.542 239.563 114.699 239.563 113.664C239.563 112.511 239.905 111.586 240.588 110.889C241.276 110.187 242.195 109.836 243.343 109.836C243.981 109.836 244.544 109.948 245.032 110.171V111.647C244.544 111.283 244.025 111.101 243.473 111.101C242.803 111.101 242.254 111.328 241.826 111.784C241.397 112.235 241.183 112.828 241.183 113.562C241.183 114.286 241.384 114.858 241.785 115.277C242.19 115.697 242.733 115.906 243.412 115.906C243.981 115.906 244.519 115.703 245.025 115.298V116.679ZM252.257 117H250.719V115.906H250.692C250.208 116.745 249.5 117.164 248.566 117.164C247.877 117.164 247.337 116.977 246.945 116.604C246.558 116.23 246.364 115.735 246.364 115.12C246.364 113.799 247.125 113.028 248.648 112.81L250.726 112.516C250.726 111.518 250.252 111.019 249.304 111.019C248.47 111.019 247.718 111.306 247.048 111.88V110.492C247.786 110.055 248.639 109.836 249.605 109.836C251.373 109.836 252.257 110.706 252.257 112.447V117ZM250.726 113.562L249.256 113.767C248.8 113.826 248.456 113.938 248.224 114.102C247.996 114.261 247.882 114.544 247.882 114.949C247.882 115.245 247.987 115.489 248.196 115.681C248.411 115.868 248.695 115.961 249.051 115.961C249.534 115.961 249.933 115.792 250.247 115.455C250.566 115.113 250.726 114.685 250.726 114.17V113.562ZM258.17 116.925C257.86 117.08 257.452 117.157 256.946 117.157C255.588 117.157 254.909 116.506 254.909 115.202V111.244H253.74V110H254.909V108.38L256.495 107.929V110H258.17V111.244H256.495V114.744C256.495 115.159 256.57 115.455 256.721 115.633C256.871 115.811 257.122 115.899 257.473 115.899C257.741 115.899 257.974 115.822 258.17 115.667V116.925ZM260.617 108.53C260.357 108.53 260.134 108.446 259.947 108.277C259.765 108.109 259.673 107.895 259.673 107.635C259.673 107.375 259.765 107.159 259.947 106.985C260.134 106.812 260.357 106.726 260.617 106.726C260.886 106.726 261.114 106.812 261.3 106.985C261.487 107.159 261.581 107.375 261.581 107.635C261.581 107.881 261.487 108.093 261.3 108.271C261.114 108.444 260.886 108.53 260.617 108.53ZM261.403 117H259.817V110H261.403V117ZM266.865 117.164C265.784 117.164 264.921 116.838 264.274 116.187C263.631 115.53 263.31 114.662 263.31 113.582C263.31 112.406 263.645 111.488 264.315 110.827C264.989 110.166 265.896 109.836 267.035 109.836C268.129 109.836 268.981 110.157 269.592 110.8C270.203 111.442 270.508 112.333 270.508 113.473C270.508 114.589 270.178 115.485 269.517 116.159C268.861 116.829 267.977 117.164 266.865 117.164ZM266.94 111.101C266.32 111.101 265.83 111.317 265.47 111.75C265.11 112.183 264.93 112.78 264.93 113.541C264.93 114.275 265.112 114.854 265.477 115.277C265.841 115.697 266.329 115.906 266.94 115.906C267.564 115.906 268.043 115.699 268.375 115.284C268.713 114.869 268.881 114.279 268.881 113.514C268.881 112.743 268.713 112.149 268.375 111.729C268.043 111.31 267.564 111.101 266.94 111.101ZM278.643 117H277.057V113.056C277.057 111.748 276.594 111.094 275.669 111.094C275.186 111.094 274.787 111.276 274.473 111.641C274.158 112.001 274.001 112.456 274.001 113.008V117H272.408V110H274.001V111.162H274.028C274.552 110.278 275.309 109.836 276.298 109.836C277.059 109.836 277.64 110.084 278.041 110.581C278.442 111.073 278.643 111.786 278.643 112.721V117Z" fill="#333F51"/>
<rect x="303" y="60" width="37" height="1" fill="#2B4078"/>
<mask id="path-11-outside-3_22397_20528" maskUnits="userSpaceOnUse" x="375" y="17" width="29" height="44" fill="black">
<rect fill="white" x="375" y="17" width="29" height="44"/>
<path d="M377.346 56.7607V49.5098C379.877 51.3555 382.83 52.2783 386.205 52.2783C388.332 52.2783 389.984 51.8213 391.162 50.9072C392.357 49.9932 392.955 48.7188 392.955 47.084C392.955 45.3965 392.217 44.0957 390.74 43.1816C389.281 42.2676 387.269 41.8105 384.702 41.8105H381.301V35.4297H384.438C389.36 35.4297 391.821 33.7949 391.821 30.5254C391.821 27.4492 389.932 25.9111 386.152 25.9111C383.621 25.9111 381.16 26.7285 378.77 28.3633V21.5605C381.424 20.2246 384.518 19.5566 388.051 19.5566C391.918 19.5566 394.924 20.4268 397.068 22.167C399.23 23.9072 400.312 26.166 400.312 28.9434C400.312 33.8828 397.807 36.9766 392.797 38.2246V38.3564C395.469 38.6904 397.578 39.666 399.125 41.2832C400.672 42.8828 401.445 44.8516 401.445 47.1895C401.445 50.7227 400.153 53.5176 397.569 55.5742C394.985 57.6309 391.417 58.6592 386.864 58.6592C382.962 58.6592 379.789 58.0264 377.346 56.7607Z"/>
</mask>
<path d="M377.346 56.7607H375.346V57.9772L376.426 58.5366L377.346 56.7607ZM377.346 49.5098L378.524 47.8937L375.346 45.5762V49.5098H377.346ZM391.162 50.9072L389.947 49.3185L389.942 49.3229L389.936 49.3273L391.162 50.9072ZM390.74 43.1816L389.678 44.8765L389.688 44.8822L390.74 43.1816ZM381.301 41.8105H379.301V43.8105H381.301V41.8105ZM381.301 35.4297V33.4297H379.301V35.4297H381.301ZM378.77 28.3633H376.77V32.1538L379.898 30.0142L378.77 28.3633ZM378.77 21.5605L377.87 19.7741L376.77 20.3281V21.5605H378.77ZM397.068 22.167L395.808 23.72L395.814 23.725L397.068 22.167ZM392.797 38.2246L392.313 36.2839L390.797 36.6617V38.2246H392.797ZM392.797 38.3564H390.797V40.122L392.549 40.341L392.797 38.3564ZM399.125 41.2832L397.68 42.6657L397.687 42.6735L399.125 41.2832ZM379.346 56.7607V49.5098H375.346V56.7607H379.346ZM376.167 51.1258C379.068 53.2407 382.441 54.2783 386.205 54.2783V50.2783C383.219 50.2783 380.686 49.4702 378.524 47.8937L376.167 51.1258ZM386.205 54.2783C388.592 54.2783 390.738 53.7683 392.388 52.4872L389.936 49.3273C389.231 49.8743 388.072 50.2783 386.205 50.2783V54.2783ZM392.377 52.4959C394.115 51.1673 394.955 49.2796 394.955 47.084H390.955C390.955 48.1579 390.6 48.8191 389.947 49.3185L392.377 52.4959ZM394.955 47.084C394.955 44.6796 393.838 42.7468 391.793 41.4811L389.688 44.8822C390.596 45.4446 390.955 46.1133 390.955 47.084H394.955ZM391.802 41.4868C389.905 40.2983 387.472 39.8105 384.702 39.8105V43.8105C387.065 43.8105 388.658 44.2369 389.678 44.8765L391.802 41.4868ZM384.702 39.8105H381.301V43.8105H384.702V39.8105ZM383.301 41.8105V35.4297H379.301V41.8105H383.301ZM381.301 37.4297H384.438V33.4297H381.301V37.4297ZM384.438 37.4297C387.058 37.4297 389.371 37.0062 391.082 35.8695C392.937 34.6372 393.821 32.7458 393.821 30.5254H389.821C389.821 31.5745 389.475 32.1353 388.869 32.5377C388.119 33.0358 386.741 33.4297 384.438 33.4297V37.4297ZM393.821 30.5254C393.821 28.5577 393.197 26.7591 391.667 25.5136C390.215 24.3321 388.262 23.9111 386.152 23.9111V27.9111C387.822 27.9111 388.703 28.2592 389.142 28.6158C389.501 28.9083 389.821 29.4169 389.821 30.5254H393.821ZM386.152 23.9111C383.162 23.9111 380.314 24.884 377.641 26.7124L379.898 30.0142C382.006 28.573 384.08 27.9111 386.152 27.9111V23.9111ZM380.77 28.3633V21.5605H376.77V28.3633H380.77ZM379.669 23.347C381.996 22.1757 384.771 21.5566 388.051 21.5566V17.5566C384.264 17.5566 380.852 18.2736 377.87 19.7741L379.669 23.347ZM388.051 21.5566C391.64 21.5566 394.139 22.3654 395.808 23.72L398.329 20.614C395.709 18.4881 392.196 17.5566 388.051 17.5566V21.5566ZM395.814 23.725C397.504 25.0853 398.312 26.771 398.312 28.9434H402.312C402.312 25.561 400.957 22.7292 398.322 20.609L395.814 23.725ZM398.312 28.9434C398.312 31.0683 397.779 32.5981 396.878 33.7097C395.971 34.8305 394.522 35.7336 392.313 36.2839L393.28 40.1653C396.081 39.4675 398.39 38.1997 399.987 36.2268C401.592 34.2447 402.312 31.7579 402.312 28.9434H398.312ZM390.797 38.2246V38.3564H394.797V38.2246H390.797ZM392.549 40.341C394.861 40.63 396.512 41.4448 397.68 42.6656L400.57 39.9008C398.644 37.8872 396.077 36.7509 393.045 36.3719L392.549 40.341ZM397.687 42.6735C398.854 43.8798 399.445 45.3413 399.445 47.1895H403.445C403.445 44.3618 402.49 41.8859 400.563 39.8929L397.687 42.6735ZM399.445 47.1895C399.445 50.1623 398.394 52.3617 396.324 54.0094L398.815 57.1391C401.913 54.6735 403.445 51.283 403.445 47.1895H399.445ZM396.324 54.0094C394.207 55.6944 391.134 56.6592 386.864 56.6592V60.6592C391.7 60.6592 395.764 59.5674 398.815 57.1391L396.324 54.0094ZM386.864 56.6592C383.157 56.6592 380.331 56.0547 378.266 54.9848L376.426 58.5366C379.247 59.9981 382.767 60.6592 386.864 60.6592V56.6592Z" fill="url(#paint2_linear_22397_20528)" mask="url(#path-11-outside-3_22397_20528)"/>
<path fill-rule="evenodd" clip-rule="evenodd" d="M434.873 65.7412H416.747C416.488 65.7412 416.276 65.5373 416.276 65.2784C416.276 65.0196 416.488 64.8157 416.747 64.8157H434.873C435.131 64.8157 435.335 65.0196 435.335 65.2784C435.335 65.5373 435.131 65.7412 434.873 65.7412ZM437.727 68H413.884C413.625 68 413.422 67.7961 413.422 67.5373V66.1412H411.963C411.704 66.1412 411.5 65.9373 411.5 65.6784V34.4627C411.5 34.2039 411.704 34 411.963 34H428.167C428.425 34 428.629 34.2039 428.629 34.4627V35.8588H430.065C430.182 35.851 430.308 35.8902 430.394 35.9686L430.402 35.9765L438.033 42.7451L438.041 42.7529L438.049 42.7608L438.057 42.7686L438.065 42.7765L438.073 42.7843C438.143 42.8627 438.19 42.9725 438.19 43.098V67.5373C438.19 67.7961 437.986 68 437.727 68ZM413.422 65.2078V36.3216C413.422 36.0627 413.625 35.8588 413.884 35.8588H427.704V34.9333H412.425V65.2078H413.422ZM430.559 37.3569V42.6353H436.504L430.559 37.3569ZM414.355 67.0667H437.265V43.5608H430.088C429.829 43.5608 429.625 43.3569 429.625 43.098V36.7922H428.175H428.167H428.159H414.355V65.6706V65.6784V67.0667ZM427.9 57.6392H423.72C423.461 57.6392 423.249 57.4353 423.249 57.1765V47.2157H420.927C420.739 47.2157 420.575 47.1059 420.504 46.9333C420.425 46.7686 420.465 46.5725 420.582 46.4392L425.492 41.0588C425.578 40.9569 425.712 40.9098 425.837 40.9098C425.971 40.9098 426.096 40.9569 426.182 41.0588L431.037 46.4392C431.163 46.5804 431.186 46.7686 431.116 46.9333C431.037 47.098 430.873 47.2157 430.692 47.2157H428.363V57.1765C428.363 57.4353 428.159 57.6392 427.9 57.6392ZM424.182 56.7137H427.437V46.7529C427.437 46.4941 427.641 46.2824 427.9 46.2824H429.649L425.837 42.0627L421.986 46.2824H423.72C423.978 46.2824 424.182 46.4941 424.182 46.7529V56.7137ZM434.873 60.0941H416.747C416.488 60.0941 416.276 59.8902 416.276 59.6314C416.276 59.3726 416.488 59.1686 416.747 59.1686H434.873C435.131 59.1686 435.335 59.3726 435.335 59.6314C435.335 59.8902 435.131 60.0941 434.873 60.0941ZM434.873 62.8863H416.747C416.488 62.8863 416.276 62.6824 416.276 62.4235C416.276 62.1647 416.488 61.9529 416.747 61.9529H434.873C435.131 61.9529 435.335 62.1647 435.335 62.4235C435.335 62.6824 435.131 62.8863 434.873 62.8863Z" fill="#6A90D9" stroke="#6A90D9" stroke-width="0.3"/>
<path d="M397.292 94.0352C397.292 96.7878 395.988 98.1641 393.382 98.1641C390.884 98.1641 389.636 96.8402 389.636 94.1924V88.1973H391.262V93.8574C391.262 95.7806 392.01 96.7422 393.505 96.7422C394.945 96.7422 395.665 95.8148 395.665 93.96V88.1973H397.292V94.0352ZM401.311 96.9678H401.284V101.22H399.698V91H401.284V92.2305H401.311C401.853 91.3008 402.646 90.8359 403.69 90.8359C404.579 90.8359 405.271 91.1481 405.768 91.7725C406.265 92.3968 406.513 93.2354 406.513 94.2881C406.513 95.4548 406.233 96.389 405.672 97.0908C405.112 97.7926 404.346 98.1436 403.375 98.1436C402.482 98.1436 401.794 97.7516 401.311 96.9678ZM401.27 94.2061V95.0742C401.27 95.5846 401.432 96.0176 401.755 96.373C402.083 96.7285 402.498 96.9062 402.999 96.9062C403.587 96.9062 404.048 96.6784 404.38 96.2227C404.718 95.7624 404.886 95.1221 404.886 94.3018C404.886 93.6136 404.729 93.0758 404.415 92.6885C404.105 92.2965 403.683 92.1006 403.15 92.1006C402.585 92.1006 402.129 92.3011 401.783 92.7021C401.441 93.1032 401.27 93.6045 401.27 94.2061ZM410.006 98H408.413V87.6367H410.006V98ZM415.461 98.1641C414.381 98.1641 413.517 97.8382 412.87 97.1865C412.227 96.5303 411.906 95.6621 411.906 94.582C411.906 93.4062 412.241 92.488 412.911 91.8271C413.586 91.1663 414.492 90.8359 415.632 90.8359C416.726 90.8359 417.578 91.1572 418.188 91.7998C418.799 92.4424 419.104 93.3333 419.104 94.4727C419.104 95.5892 418.774 96.4847 418.113 97.1592C417.457 97.8291 416.573 98.1641 415.461 98.1641ZM415.536 92.1006C414.916 92.1006 414.426 92.3171 414.066 92.75C413.706 93.1829 413.526 93.7799 413.526 94.541C413.526 95.2747 413.709 95.8535 414.073 96.2773C414.438 96.6966 414.925 96.9062 415.536 96.9062C416.16 96.9062 416.639 96.6989 416.972 96.2842C417.309 95.8695 417.477 95.2793 417.477 94.5137C417.477 93.7435 417.309 93.1488 416.972 92.7295C416.639 92.3102 416.16 92.1006 415.536 92.1006ZM426.214 98H424.675V96.9062H424.648C424.165 97.7448 423.456 98.1641 422.522 98.1641C421.834 98.1641 421.294 97.9772 420.902 97.6035C420.515 97.2298 420.321 96.7354 420.321 96.1201C420.321 94.7985 421.082 94.0283 422.604 93.8096L424.682 93.5156C424.682 92.5176 424.208 92.0186 423.26 92.0186C422.426 92.0186 421.674 92.3057 421.005 92.8799V91.4922C421.743 91.0547 422.595 90.8359 423.561 90.8359C425.329 90.8359 426.214 91.7064 426.214 93.4473V98ZM424.682 94.5615L423.213 94.7666C422.757 94.8258 422.413 94.9375 422.18 95.1016C421.952 95.2611 421.839 95.5436 421.839 95.9492C421.839 96.2454 421.943 96.4893 422.153 96.6807C422.367 96.8675 422.652 96.9609 423.007 96.9609C423.491 96.9609 423.889 96.7923 424.204 96.4551C424.523 96.1133 424.682 95.6849 424.682 95.1699V94.5615ZM434.799 98H433.213V96.8105H433.186C432.675 97.7129 431.889 98.1641 430.827 98.1641C429.966 98.1641 429.276 97.8519 428.756 97.2275C428.241 96.5986 427.984 95.7441 427.984 94.6641C427.984 93.5065 428.269 92.5791 428.838 91.8818C429.412 91.1846 430.176 90.8359 431.128 90.8359C432.072 90.8359 432.758 91.2142 433.186 91.9707H433.213V87.6367H434.799V98ZM433.234 94.8008V93.8848C433.234 93.388 433.072 92.9665 432.748 92.6201C432.425 92.2738 432.012 92.1006 431.511 92.1006C430.919 92.1006 430.452 92.3216 430.11 92.7637C429.772 93.2057 429.604 93.8187 429.604 94.6025C429.604 95.3135 429.766 95.8763 430.089 96.291C430.417 96.7012 430.857 96.9062 431.409 96.9062C431.951 96.9062 432.391 96.708 432.728 96.3115C433.065 95.9105 433.234 95.4069 433.234 94.8008ZM444.977 97.9248C444.667 98.0798 444.26 98.1572 443.754 98.1572C442.396 98.1572 441.717 97.5055 441.717 96.2021V92.2441H440.548V91H441.717V89.3799L443.303 88.9287V91H444.977V92.2441H443.303V95.7441C443.303 96.1589 443.378 96.4551 443.528 96.6328C443.679 96.8105 443.929 96.8994 444.28 96.8994C444.549 96.8994 444.781 96.8219 444.977 96.667V97.9248ZM452.845 98H451.259V94.1719C451.259 92.7865 450.797 92.0938 449.872 92.0938C449.407 92.0938 449.015 92.2943 448.696 92.6953C448.377 93.0964 448.217 93.609 448.217 94.2334V98H446.625V87.6367H448.217V92.1621H448.245C448.773 91.278 449.53 90.8359 450.514 90.8359C452.068 90.8359 452.845 91.7861 452.845 93.6865V98ZM460.98 94.9307H456.208C456.226 95.5778 456.425 96.0768 456.803 96.4277C457.186 96.7786 457.71 96.9541 458.375 96.9541C459.123 96.9541 459.808 96.7308 460.433 96.2842V97.5625C459.795 97.9635 458.952 98.1641 457.904 98.1641C456.874 98.1641 456.065 97.8473 455.477 97.2139C454.893 96.5758 454.602 95.6803 454.602 94.5273C454.602 93.4382 454.923 92.5518 455.566 91.8682C456.213 91.18 457.015 90.8359 457.972 90.8359C458.929 90.8359 459.669 91.1436 460.194 91.7588C460.718 92.374 460.98 93.2285 460.98 94.3223V94.9307ZM459.448 93.8096C459.444 93.2399 459.309 92.7979 459.045 92.4834C458.781 92.1644 458.416 92.0049 457.951 92.0049C457.496 92.0049 457.108 92.1712 456.789 92.5039C456.475 92.8366 456.281 93.2718 456.208 93.8096H459.448ZM368.093 111.511C367.902 111.36 367.626 111.285 367.266 111.285C366.796 111.285 366.405 111.497 366.09 111.921C365.776 112.345 365.618 112.921 365.618 113.65V117H364.032V110H365.618V111.442H365.646C365.801 110.95 366.038 110.567 366.357 110.294C366.68 110.016 367.04 109.877 367.437 109.877C367.724 109.877 367.943 109.92 368.093 110.007V111.511ZM375.298 113.931H370.526C370.545 114.578 370.743 115.077 371.121 115.428C371.504 115.779 372.028 115.954 372.693 115.954C373.441 115.954 374.127 115.731 374.751 115.284V116.562C374.113 116.964 373.27 117.164 372.222 117.164C371.192 117.164 370.383 116.847 369.795 116.214C369.212 115.576 368.92 114.68 368.92 113.527C368.92 112.438 369.241 111.552 369.884 110.868C370.531 110.18 371.333 109.836 372.29 109.836C373.247 109.836 373.988 110.144 374.512 110.759C375.036 111.374 375.298 112.229 375.298 113.322V113.931ZM373.767 112.81C373.762 112.24 373.628 111.798 373.363 111.483C373.099 111.164 372.734 111.005 372.269 111.005C371.814 111.005 371.426 111.171 371.107 111.504C370.793 111.837 370.599 112.272 370.526 112.81H373.767ZM378.681 117H377.089V106.637H378.681V117ZM386.959 113.931H382.188C382.206 114.578 382.404 115.077 382.783 115.428C383.165 115.779 383.69 115.954 384.355 115.954C385.102 115.954 385.788 115.731 386.412 115.284V116.562C385.774 116.964 384.931 117.164 383.883 117.164C382.853 117.164 382.044 116.847 381.456 116.214C380.873 115.576 380.581 114.68 380.581 113.527C380.581 112.438 380.903 111.552 381.545 110.868C382.192 110.18 382.995 109.836 383.952 109.836C384.909 109.836 385.649 110.144 386.173 110.759C386.697 111.374 386.959 112.229 386.959 113.322V113.931ZM385.428 112.81C385.424 112.24 385.289 111.798 385.025 111.483C384.76 111.164 384.396 111.005 383.931 111.005C383.475 111.005 383.088 111.171 382.769 111.504C382.454 111.837 382.261 112.272 382.188 112.81H385.428ZM394.779 110L392.072 117H390.357L387.779 110H389.502L391.054 114.895C391.172 115.255 391.245 115.569 391.273 115.838H391.293C391.334 115.501 391.398 115.195 391.484 114.922L393.111 110H394.779ZM401.28 117H399.742V115.906H399.715C399.232 116.745 398.523 117.164 397.589 117.164C396.901 117.164 396.361 116.977 395.969 116.604C395.581 116.23 395.388 115.735 395.388 115.12C395.388 113.799 396.149 113.028 397.671 112.81L399.749 112.516C399.749 111.518 399.275 111.019 398.327 111.019C397.493 111.019 396.741 111.306 396.071 111.88V110.492C396.809 110.055 397.662 109.836 398.628 109.836C400.396 109.836 401.28 110.706 401.28 112.447V117ZM399.749 113.562L398.279 113.767C397.823 113.826 397.479 113.938 397.247 114.102C397.019 114.261 396.905 114.544 396.905 114.949C396.905 115.245 397.01 115.489 397.22 115.681C397.434 115.868 397.719 115.961 398.074 115.961C398.557 115.961 398.956 115.792 399.27 115.455C399.589 115.113 399.749 114.685 399.749 114.17V113.562ZM409.736 117H408.15V113.056C408.15 111.748 407.687 111.094 406.762 111.094C406.279 111.094 405.88 111.276 405.566 111.641C405.252 112.001 405.094 112.456 405.094 113.008V117H403.502V110H405.094V111.162H405.122C405.646 110.278 406.402 109.836 407.391 109.836C408.152 109.836 408.733 110.084 409.134 110.581C409.535 111.073 409.736 111.786 409.736 112.721V117ZM415.649 116.925C415.339 117.08 414.931 117.157 414.425 117.157C413.067 117.157 412.388 116.506 412.388 115.202V111.244H411.219V110H412.388V108.38L413.974 107.929V110H415.649V111.244H413.974V114.744C413.974 115.159 414.049 115.455 414.199 115.633C414.35 115.811 414.601 115.899 414.951 115.899C415.22 115.899 415.453 115.822 415.649 115.667V116.925ZM427.796 117H426.21V115.811H426.182C425.672 116.713 424.886 117.164 423.824 117.164C422.963 117.164 422.272 116.852 421.753 116.228C421.238 115.599 420.98 114.744 420.98 113.664C420.98 112.507 421.265 111.579 421.835 110.882C422.409 110.185 423.172 109.836 424.125 109.836C425.068 109.836 425.754 110.214 426.182 110.971H426.21V106.637H427.796V117ZM426.23 113.801V112.885C426.23 112.388 426.068 111.966 425.745 111.62C425.421 111.274 425.009 111.101 424.508 111.101C423.915 111.101 423.448 111.322 423.106 111.764C422.769 112.206 422.6 112.819 422.6 113.603C422.6 114.313 422.762 114.876 423.086 115.291C423.414 115.701 423.854 115.906 424.405 115.906C424.947 115.906 425.387 115.708 425.724 115.312C426.062 114.91 426.23 114.407 426.23 113.801ZM433.25 117.164C432.17 117.164 431.307 116.838 430.66 116.187C430.017 115.53 429.696 114.662 429.696 113.582C429.696 112.406 430.031 111.488 430.701 110.827C431.375 110.166 432.282 109.836 433.421 109.836C434.515 109.836 435.367 110.157 435.978 110.8C436.589 111.442 436.894 112.333 436.894 113.473C436.894 114.589 436.564 115.485 435.903 116.159C435.247 116.829 434.362 117.164 433.25 117.164ZM433.326 111.101C432.706 111.101 432.216 111.317 431.856 111.75C431.496 112.183 431.316 112.78 431.316 113.541C431.316 114.275 431.498 114.854 431.863 115.277C432.227 115.697 432.715 115.906 433.326 115.906C433.95 115.906 434.428 115.699 434.761 115.284C435.098 114.869 435.267 114.279 435.267 113.514C435.267 112.743 435.098 112.149 434.761 111.729C434.428 111.31 433.95 111.101 433.326 111.101ZM443.805 116.679C443.244 117.002 442.581 117.164 441.816 117.164C440.777 117.164 439.938 116.84 439.3 116.193C438.662 115.542 438.343 114.699 438.343 113.664C438.343 112.511 438.685 111.586 439.368 110.889C440.056 110.187 440.975 109.836 442.123 109.836C442.761 109.836 443.324 109.948 443.812 110.171V111.647C443.324 111.283 442.805 111.101 442.253 111.101C441.583 111.101 441.034 111.328 440.606 111.784C440.177 112.235 439.963 112.828 439.963 113.562C439.963 114.286 440.164 114.858 440.565 115.277C440.97 115.697 441.513 115.906 442.192 115.906C442.761 115.906 443.299 115.703 443.805 115.298V116.679ZM451.768 117H450.182V115.893H450.155C449.695 116.74 448.979 117.164 448.009 117.164C446.354 117.164 445.527 116.171 445.527 114.184V110H447.113V114.02C447.113 115.277 447.599 115.906 448.569 115.906C449.039 115.906 449.424 115.733 449.724 115.387C450.03 115.04 450.182 114.587 450.182 114.026V110H451.768V117ZM464.586 117H463V113.186C463 112.452 462.895 111.921 462.685 111.593C462.48 111.265 462.131 111.101 461.639 111.101C461.225 111.101 460.871 111.308 460.58 111.723C460.293 112.137 460.149 112.634 460.149 113.213V117H458.556V113.056C458.556 111.752 458.096 111.101 457.175 111.101C456.747 111.101 456.394 111.297 456.116 111.688C455.842 112.08 455.706 112.589 455.706 113.213V117H454.12V110H455.706V111.107H455.733C456.239 110.26 456.975 109.836 457.941 109.836C458.424 109.836 458.846 109.97 459.206 110.239C459.57 110.504 459.819 110.852 459.951 111.285C460.47 110.319 461.245 109.836 462.275 109.836C463.815 109.836 464.586 110.786 464.586 112.687V117ZM472.727 113.931H467.955C467.974 114.578 468.172 115.077 468.55 115.428C468.933 115.779 469.457 115.954 470.122 115.954C470.87 115.954 471.556 115.731 472.18 115.284V116.562C471.542 116.964 470.699 117.164 469.651 117.164C468.621 117.164 467.812 116.847 467.224 116.214C466.641 115.576 466.349 114.68 466.349 113.527C466.349 112.438 466.67 111.552 467.313 110.868C467.96 110.18 468.762 109.836 469.719 109.836C470.676 109.836 471.417 110.144 471.941 110.759C472.465 111.374 472.727 112.229 472.727 113.322V113.931ZM471.196 112.81C471.191 112.24 471.057 111.798 470.792 111.483C470.528 111.164 470.163 111.005 469.699 111.005C469.243 111.005 468.855 111.171 468.536 111.504C468.222 111.837 468.028 112.272 467.955 112.81H471.196ZM480.752 117H479.166V113.056C479.166 111.748 478.703 111.094 477.778 111.094C477.295 111.094 476.897 111.276 476.582 111.641C476.268 112.001 476.11 112.456 476.11 113.008V117H474.518V110H476.11V111.162H476.138C476.662 110.278 477.418 109.836 478.407 109.836C479.168 109.836 479.749 110.084 480.15 110.581C480.551 111.073 480.752 111.786 480.752 112.721V117ZM486.665 116.925C486.355 117.08 485.947 117.157 485.441 117.157C484.083 117.157 483.404 116.506 483.404 115.202V111.244H482.235V110H483.404V108.38L484.99 107.929V110H486.665V111.244H484.99V114.744C484.99 115.159 485.065 115.455 485.216 115.633C485.366 115.811 485.617 115.899 485.968 115.899C486.236 115.899 486.469 115.822 486.665 115.667V116.925Z" fill="#333F51"/>
<rect x="510" y="60" width="37" height="1" fill="#2B4078"/>
<mask id="path-16-outside-4_22397_20528" maskUnits="userSpaceOnUse" x="572" y="18" width="34" height="42" fill="black">
<rect fill="white" x="572" y="18" width="34" height="42"/>
<path d="M603.106 49.958H598.571V58H590.978V49.958H574.498V44.6582L590.371 20.1895H598.571V44.0254H603.106V49.958ZM591.083 28.5215H590.925C590.679 29.1543 590.204 30.1387 589.501 31.4746L581.406 44.0254H590.978V32.1338C590.978 31.0791 591.013 29.875 591.083 28.5215Z"/>
</mask>
<path d="M603.106 49.958V51.958H605.106V49.958H603.106ZM598.571 49.958V47.958H596.571V49.958H598.571ZM598.571 58V60H600.571V58H598.571ZM590.978 58H588.978V60H590.978V58ZM590.978 49.958H592.978V47.958H590.978V49.958ZM574.498 49.958H572.498V51.958H574.498V49.958ZM574.498 44.6582L572.82 43.5698L572.498 44.0663V44.6582H574.498ZM590.371 20.1895V18.1895H589.285L588.693 19.101L590.371 20.1895ZM598.571 20.1895H600.571V18.1895H598.571V20.1895ZM598.571 44.0254H596.571V46.0254H598.571V44.0254ZM603.106 44.0254H605.106V42.0254H603.106V44.0254ZM591.083 28.5215L593.08 28.6252L593.19 26.5215H591.083V28.5215ZM590.925 28.5215V26.5215H589.557L589.061 27.7966L590.925 28.5215ZM589.501 31.4746L591.182 32.5586L591.23 32.4843L591.271 32.4061L589.501 31.4746ZM581.406 44.0254L579.726 42.9414L577.736 46.0254H581.406V44.0254ZM590.978 44.0254V46.0254H592.978V44.0254H590.978ZM603.106 47.958H598.571V51.958H603.106V47.958ZM596.571 49.958V58H600.571V49.958H596.571ZM598.571 56H590.978V60H598.571V56ZM592.978 58V49.958H588.978V58H592.978ZM590.978 47.958H574.498V51.958H590.978V47.958ZM576.498 49.958V44.6582H572.498V49.958H576.498ZM576.176 45.7467L592.049 21.2779L588.693 19.101L572.82 43.5698L576.176 45.7467ZM590.371 22.1895H598.571V18.1895H590.371V22.1895ZM596.571 20.1895V44.0254H600.571V20.1895H596.571ZM598.571 46.0254H603.106V42.0254H598.571V46.0254ZM601.106 44.0254V49.958H605.106V44.0254H601.106ZM591.083 26.5215H590.925V30.5215H591.083V26.5215ZM589.061 27.7966C588.859 28.3153 588.431 29.2135 587.731 30.5431L591.271 32.4061C591.977 31.0638 592.498 29.9933 592.789 29.2464L589.061 27.7966ZM587.82 30.3906L579.726 42.9414L583.087 45.1094L591.182 32.5586L587.82 30.3906ZM581.406 46.0254H590.978V42.0254H581.406V46.0254ZM592.978 44.0254V32.1338H588.978V44.0254H592.978ZM592.978 32.1338C592.978 31.1218 593.011 29.9534 593.08 28.6252L589.086 28.4177C589.014 29.7966 588.978 31.0364 588.978 32.1338H592.978Z" fill="url(#paint3_linear_22397_20528)" mask="url(#path-16-outside-4_22397_20528)"/>
<path fill-rule="evenodd" clip-rule="evenodd" d="M630.117 68H630.116H630.115H630.114H620.063H620.062H620.061H620.06H617.431C617.174 68 616.967 67.7922 616.967 67.5351C616.967 67.2781 617.174 67.0703 617.431 67.0703H620.03C621.242 66.9259 622.107 66.474 622.597 65.7256C623.276 64.6914 623.111 63.3176 622.986 62.6968H613.294C612.029 62.6968 611 61.6682 611 60.4031V44.1283C611 42.8639 612.029 41.8346 613.294 41.8346H616.967L616.967 34.4649C616.967 34.2079 617.174 34 617.431 34H628.454C628.478 34 628.502 34.0018 628.525 34.0054L628.529 34.006L628.53 34.0062C628.624 34.0214 628.714 34.0655 628.784 34.1362L633.075 38.4273C633.173 38.5254 633.221 38.6595 633.21 38.7924V41.8346L636.883 41.8346C638.148 41.8346 639.177 42.8633 639.177 44.1283V58.1839C639.177 58.1923 639.178 58.2006 639.178 58.2091C639.178 58.2175 639.177 58.2259 639.177 58.2342V60.4031C639.177 61.6682 638.148 62.6968 636.884 62.6968H627.192C627.068 63.3173 626.902 64.6917 627.58 65.7262C628.07 66.4729 628.933 66.9253 630.143 67.0703H632.745C633.002 67.0703 633.21 67.2781 633.21 67.5352C633.21 67.7922 633.002 68 632.746 68H630.117ZM623.331 61.7671C623.346 61.7664 623.36 61.7664 623.375 61.7671H626.813C626.821 61.7669 626.829 61.7669 626.837 61.7671H636.883C637.636 61.7671 638.247 61.1555 638.247 60.4031V58.6739H611.93V60.4031C611.93 61.1555 612.541 61.7671 613.294 61.7671H623.331ZM623.933 62.6968C624.075 63.5144 624.175 65.0097 623.378 66.2296C623.167 66.5522 622.91 66.8326 622.607 67.0703L627.57 67.0703C627.267 66.8327 627.01 66.5526 626.799 66.2303C626.002 65.01 626.103 63.5143 626.244 62.6968H623.933ZM616.967 42.7644L613.294 42.7644C612.542 42.7644 611.93 43.376 611.93 44.1284V57.7443L638.247 57.7443V44.1284C638.247 43.3767 637.636 42.7644 636.883 42.7644H633.21V54.1544C633.211 54.4114 633.002 54.6192 632.746 54.6192H617.432C617.175 54.6192 616.967 54.4114 616.967 54.1544L616.967 42.7644ZM625.957 60.6854H623.9C623.643 60.6854 623.435 60.4776 623.435 60.2206C623.435 59.9636 623.643 59.7557 623.9 59.7557L625.957 59.7558C626.214 59.7558 626.422 59.9636 626.422 60.2206C626.422 60.4776 626.214 60.6854 625.957 60.6854ZM617.896 53.6895H632.281V42.2996V39.1729L629.662 38.8863C628.941 38.8073 628.404 38.27 628.325 37.5489L628.039 34.9298H617.896V42.2996V53.6895ZM631.482 38.1497L629.061 35.7287L629.248 37.4479C629.28 37.7381 629.472 37.93 629.762 37.9619L631.482 38.1497ZM626.817 41.9477C626.6 41.6561 626.258 41.4788 625.884 41.4788L625.867 41.4788C625.626 41.597 625.359 41.6587 625.089 41.6587C624.818 41.6587 624.552 41.597 624.31 41.4788H624.293C623.92 41.4788 623.578 41.6561 623.361 41.9478C623.821 42.3564 624.426 42.605 625.089 42.605C625.751 42.605 626.356 42.3564 626.817 41.9477ZM622.466 42.3663C622.445 42.3472 622.427 42.3265 622.411 42.3044C621.877 41.685 621.553 40.8789 621.553 39.9986C621.553 38.0496 623.139 36.4631 625.089 36.4631C627.038 36.4631 628.624 38.0489 628.624 39.9986C628.624 40.8756 628.303 41.6788 627.773 42.2973C627.754 42.3242 627.732 42.3492 627.707 42.3717C627.06 43.0853 626.126 43.534 625.089 43.534C624.049 43.534 623.113 43.083 622.466 42.3663ZM622.777 41.1999C623.164 40.7912 623.707 40.5491 624.293 40.5491L624.427 40.5491C624.51 40.5491 624.591 40.5717 624.663 40.6135C624.92 40.7649 625.258 40.7649 625.515 40.6135C625.587 40.571 625.668 40.5491 625.751 40.5491H625.885C626.471 40.5491 627.014 40.7911 627.401 41.1995C627.588 40.8401 627.695 40.4319 627.695 39.9992C627.695 38.5622 626.525 37.3935 625.089 37.3935C623.652 37.3935 622.483 38.5622 622.483 39.9992C622.483 40.4319 622.589 40.8404 622.777 41.1999ZM625.089 40.4368C624.318 40.4368 623.69 39.8093 623.69 39.0383C623.69 38.2674 624.318 37.6398 625.089 37.6398C625.86 37.6398 626.487 38.2674 626.487 39.0383C626.487 39.8093 625.86 40.4368 625.089 40.4368ZM625.089 38.5695C624.83 38.5695 624.62 38.78 624.62 39.0383C624.62 39.2967 624.83 39.5072 625.089 39.5072C625.347 39.5072 625.558 39.2967 625.558 39.0383C625.558 38.78 625.347 38.5695 625.089 38.5695ZM627.466 45.4917H619.767C619.51 45.4917 619.302 45.2839 619.302 45.0269C619.302 44.7698 619.51 44.562 619.767 44.562L627.466 44.562C627.723 44.562 627.931 44.7699 627.931 45.0269C627.931 45.2839 627.722 45.4917 627.466 45.4917ZM630.411 45.4917H628.938C628.681 45.4917 628.473 45.2839 628.473 45.0269C628.473 44.7698 628.681 44.562 628.938 44.562L630.411 44.562C630.668 44.562 630.875 44.7699 630.875 45.0269C630.875 45.2839 630.668 45.4917 630.411 45.4917ZM627.466 47.6466H619.767C619.51 47.6466 619.302 47.4387 619.302 47.1817C619.302 46.9247 619.51 46.7169 619.767 46.7169L627.466 46.7169C627.723 46.7169 627.931 46.9247 627.931 47.1817C627.931 47.4388 627.722 47.6466 627.466 47.6466ZM630.411 47.6466H628.938C628.681 47.6466 628.473 47.4387 628.473 47.1817C628.473 46.9247 628.681 46.7169 628.938 46.7169L630.411 46.7169C630.668 46.7169 630.875 46.9247 630.875 47.1817C630.875 47.4388 630.668 47.6466 630.411 47.6466ZM627.466 49.8021H619.767C619.51 49.8021 619.302 49.5943 619.302 49.3373C619.302 49.0803 619.51 48.8724 619.767 48.8724L627.466 48.8725C627.723 48.8725 627.931 49.0803 627.931 49.3373C627.931 49.5943 627.722 49.8021 627.466 49.8021ZM630.411 49.8021H628.938C628.681 49.8021 628.473 49.5943 628.473 49.3373C628.473 49.0803 628.681 48.8724 628.938 48.8724L630.411 48.8725C630.668 48.8725 630.875 49.0803 630.875 49.3373C630.875 49.5943 630.668 49.8021 630.411 49.8021ZM627.466 51.9577H619.767C619.51 51.9577 619.302 51.7498 619.302 51.4928C619.302 51.2358 619.51 51.028 619.767 51.028H627.466C627.723 51.028 627.931 51.2358 627.931 51.4928C627.931 51.7498 627.722 51.9577 627.466 51.9577ZM630.411 51.9577H628.938C628.681 51.9577 628.473 51.7498 628.473 51.4928C628.473 51.2358 628.681 51.028 628.938 51.028H630.411C630.668 51.028 630.875 51.2358 630.875 51.4928C630.875 51.7498 630.668 51.9577 630.411 51.9577Z" fill="#6A90D9" stroke="#6A90D9" stroke-width="0.3"/>
<path d="M589.567 97.6104V95.9355C589.718 96.0723 589.895 96.1953 590.1 96.3047C590.31 96.4141 590.531 96.5075 590.763 96.585C590.996 96.6579 591.228 96.7148 591.461 96.7559C591.693 96.7969 591.907 96.8174 592.103 96.8174C592.787 96.8174 593.295 96.7035 593.628 96.4756C593.965 96.2477 594.134 95.9173 594.134 95.4844C594.134 95.252 594.077 95.0514 593.963 94.8828C593.853 94.7096 593.698 94.5524 593.498 94.4111C593.297 94.2699 593.06 94.1354 592.787 94.0078C592.518 93.8757 592.229 93.7389 591.919 93.5977C591.586 93.4199 591.276 93.2399 590.989 93.0576C590.702 92.8753 590.451 92.6748 590.237 92.4561C590.027 92.2327 589.861 91.9821 589.738 91.7041C589.62 91.4261 589.56 91.1003 589.56 90.7266C589.56 90.2663 589.663 89.8675 589.868 89.5303C590.078 89.1885 590.351 88.9082 590.688 88.6895C591.03 88.4661 591.417 88.3021 591.85 88.1973C592.283 88.0879 592.725 88.0332 593.177 88.0332C594.202 88.0332 594.949 88.1494 595.419 88.3818V89.9883C594.863 89.5872 594.147 89.3867 593.272 89.3867C593.031 89.3867 592.789 89.4095 592.548 89.4551C592.311 89.5007 592.096 89.5758 591.905 89.6807C591.718 89.7855 591.566 89.9199 591.447 90.084C591.329 90.248 591.269 90.4463 591.269 90.6787C591.269 90.8975 591.315 91.0866 591.406 91.2461C591.497 91.4056 591.629 91.5514 591.803 91.6836C591.98 91.8158 592.194 91.9456 592.445 92.0732C592.7 92.1963 592.994 92.3307 593.327 92.4766C593.669 92.6543 593.99 92.8411 594.291 93.0371C594.596 93.2331 594.863 93.4495 595.091 93.6865C595.323 93.9235 595.505 94.1878 595.637 94.4795C595.774 94.7666 595.843 95.0947 595.843 95.4639C595.843 95.9606 595.742 96.3799 595.542 96.7217C595.341 97.0635 595.07 97.3415 594.728 97.5557C594.391 97.7699 594.001 97.9248 593.559 98.0205C593.117 98.1162 592.65 98.1641 592.158 98.1641C591.994 98.1641 591.791 98.1504 591.55 98.123C591.313 98.1003 591.069 98.0638 590.818 98.0137C590.567 97.9681 590.33 97.9111 590.107 97.8428C589.884 97.7744 589.704 97.6969 589.567 97.6104ZM603.854 98H602.268V96.8926H602.241C601.78 97.7402 601.065 98.1641 600.094 98.1641C598.44 98.1641 597.613 97.1706 597.613 95.1836V91H599.199V95.0195C599.199 96.2773 599.684 96.9062 600.655 96.9062C601.124 96.9062 601.509 96.7331 601.81 96.3867C602.115 96.0404 602.268 95.5869 602.268 95.0264V91H603.854V98ZM607.819 96.9883H607.791V98H606.205V87.6367H607.791V92.2305H607.819C608.361 91.3008 609.154 90.8359 610.197 90.8359C611.082 90.8359 611.772 91.1504 612.269 91.7793C612.77 92.4036 613.021 93.2422 613.021 94.2949C613.021 95.4661 612.74 96.4049 612.18 97.1113C611.619 97.8132 610.854 98.1641 609.883 98.1641C608.972 98.1641 608.283 97.7721 607.819 96.9883ZM607.778 94.2061V95.0742C607.778 95.5846 607.939 96.0176 608.263 96.373C608.591 96.7285 609.006 96.9062 609.507 96.9062C610.095 96.9062 610.555 96.6784 610.888 96.2227C611.225 95.7624 611.394 95.1221 611.394 94.3018C611.394 93.6136 611.237 93.0758 610.922 92.6885C610.612 92.2965 610.191 92.1006 609.657 92.1006C609.092 92.1006 608.637 92.3011 608.29 92.7021C607.948 93.1032 607.778 93.6045 607.778 94.2061ZM625.387 98H623.801V94.1855C623.801 93.4518 623.696 92.9209 623.486 92.5928C623.281 92.2646 622.933 92.1006 622.44 92.1006C622.026 92.1006 621.672 92.3079 621.381 92.7227C621.094 93.1374 620.95 93.6341 620.95 94.2129V98H619.357V94.0557C619.357 92.7523 618.897 92.1006 617.976 92.1006C617.548 92.1006 617.195 92.2965 616.917 92.6885C616.643 93.0804 616.507 93.5885 616.507 94.2129V98H614.921V91H616.507V92.1074H616.534C617.04 91.2598 617.776 90.8359 618.742 90.8359C619.225 90.8359 619.647 90.9704 620.007 91.2393C620.371 91.5036 620.62 91.8522 620.752 92.2852C621.271 91.319 622.046 90.8359 623.076 90.8359C624.616 90.8359 625.387 91.7861 625.387 93.6865V98ZM628.401 89.5303C628.141 89.5303 627.918 89.446 627.731 89.2773C627.549 89.1087 627.458 88.8945 627.458 88.6348C627.458 88.375 627.549 88.1585 627.731 87.9854C627.918 87.8122 628.141 87.7256 628.401 87.7256C628.67 87.7256 628.898 87.8122 629.085 87.9854C629.271 88.1585 629.365 88.375 629.365 88.6348C629.365 88.8809 629.271 89.0928 629.085 89.2705C628.898 89.4437 628.67 89.5303 628.401 89.5303ZM629.187 98H627.601V91H629.187V98ZM635.237 97.9248C634.927 98.0798 634.519 98.1572 634.013 98.1572C632.655 98.1572 631.976 97.5055 631.976 96.2021V92.2441H630.807V91H631.976V89.3799L633.562 88.9287V91H635.237V92.2441H633.562V95.7441C633.562 96.1589 633.637 96.4551 633.787 96.6328C633.938 96.8105 634.189 96.8994 634.539 96.8994C634.808 96.8994 635.041 96.8219 635.237 96.667V97.9248ZM644.711 97.9248C644.401 98.0798 643.993 98.1572 643.487 98.1572C642.129 98.1572 641.45 97.5055 641.45 96.2021V92.2441H640.281V91H641.45V89.3799L643.036 88.9287V91H644.711V92.2441H643.036V95.7441C643.036 96.1589 643.111 96.4551 643.262 96.6328C643.412 96.8105 643.663 96.8994 644.013 96.8994C644.282 96.8994 644.515 96.8219 644.711 96.667V97.9248ZM652.579 98H650.993V94.1719C650.993 92.7865 650.53 92.0938 649.605 92.0938C649.14 92.0938 648.748 92.2943 648.429 92.6953C648.11 93.0964 647.951 93.609 647.951 94.2334V98H646.358V87.6367H647.951V92.1621H647.978C648.507 91.278 649.263 90.8359 650.248 90.8359C651.802 90.8359 652.579 91.7861 652.579 93.6865V98ZM660.713 94.9307H655.942C655.96 95.5778 656.158 96.0768 656.536 96.4277C656.919 96.7786 657.443 96.9541 658.109 96.9541C658.856 96.9541 659.542 96.7308 660.166 96.2842V97.5625C659.528 97.9635 658.685 98.1641 657.637 98.1641C656.607 98.1641 655.798 97.8473 655.21 97.2139C654.627 96.5758 654.335 95.6803 654.335 94.5273C654.335 93.4382 654.656 92.5518 655.299 91.8682C655.946 91.18 656.748 90.8359 657.705 90.8359C658.662 90.8359 659.403 91.1436 659.927 91.7588C660.451 92.374 660.713 93.2285 660.713 94.3223V94.9307ZM659.182 93.8096C659.177 93.2399 659.043 92.7979 658.779 92.4834C658.514 92.1644 658.15 92.0049 657.685 92.0049C657.229 92.0049 656.842 92.1712 656.523 92.5039C656.208 92.8366 656.015 93.2718 655.942 93.8096H659.182ZM576.648 117H575.11V115.906H575.083C574.6 116.745 573.891 117.164 572.957 117.164C572.268 117.164 571.728 116.977 571.337 116.604C570.949 116.23 570.755 115.735 570.755 115.12C570.755 113.799 571.517 113.028 573.039 112.81L575.117 112.516C575.117 111.518 574.643 111.019 573.695 111.019C572.861 111.019 572.109 111.306 571.439 111.88V110.492C572.177 110.055 573.03 109.836 573.996 109.836C575.764 109.836 576.648 110.706 576.648 112.447V117ZM575.117 113.562L573.647 113.767C573.191 113.826 572.847 113.938 572.615 114.102C572.387 114.261 572.273 114.544 572.273 114.949C572.273 115.245 572.378 115.489 572.588 115.681C572.802 115.868 573.087 115.961 573.442 115.961C573.925 115.961 574.324 115.792 574.638 115.455C574.957 115.113 575.117 114.685 575.117 114.17V113.562ZM580.483 115.968H580.455V120.22H578.869V110H580.455V111.23H580.483C581.025 110.301 581.818 109.836 582.862 109.836C583.75 109.836 584.443 110.148 584.94 110.772C585.437 111.397 585.685 112.235 585.685 113.288C585.685 114.455 585.405 115.389 584.844 116.091C584.284 116.793 583.518 117.144 582.547 117.144C581.654 117.144 580.966 116.752 580.483 115.968ZM580.442 113.206V114.074C580.442 114.585 580.604 115.018 580.927 115.373C581.255 115.729 581.67 115.906 582.171 115.906C582.759 115.906 583.219 115.678 583.552 115.223C583.889 114.762 584.058 114.122 584.058 113.302C584.058 112.614 583.901 112.076 583.586 111.688C583.276 111.297 582.855 111.101 582.322 111.101C581.756 111.101 581.301 111.301 580.954 111.702C580.613 112.103 580.442 112.604 580.442 113.206ZM589.198 115.968H589.171V120.22H587.585V110H589.171V111.23H589.198C589.741 110.301 590.534 109.836 591.577 109.836C592.466 109.836 593.159 110.148 593.655 110.772C594.152 111.397 594.4 112.235 594.4 113.288C594.4 114.455 594.12 115.389 593.56 116.091C592.999 116.793 592.233 117.144 591.263 117.144C590.37 117.144 589.681 116.752 589.198 115.968ZM589.157 113.206V114.074C589.157 114.585 589.319 115.018 589.643 115.373C589.971 115.729 590.385 115.906 590.887 115.906C591.475 115.906 591.935 115.678 592.268 115.223C592.605 114.762 592.773 114.122 592.773 113.302C592.773 112.614 592.616 112.076 592.302 111.688C591.992 111.297 591.57 111.101 591.037 111.101C590.472 111.101 590.016 111.301 589.67 111.702C589.328 112.103 589.157 112.604 589.157 113.206ZM597.893 117H596.301V106.637H597.893V117ZM601.044 108.53C600.785 108.53 600.561 108.446 600.374 108.277C600.192 108.109 600.101 107.895 600.101 107.635C600.101 107.375 600.192 107.159 600.374 106.985C600.561 106.812 600.785 106.726 601.044 106.726C601.313 106.726 601.541 106.812 601.728 106.985C601.915 107.159 602.008 107.375 602.008 107.635C602.008 107.881 601.915 108.093 601.728 108.271C601.541 108.444 601.313 108.53 601.044 108.53ZM601.831 117H600.245V110H601.831V117ZM609.199 116.679C608.639 117.002 607.976 117.164 607.21 117.164C606.171 117.164 605.333 116.84 604.695 116.193C604.057 115.542 603.738 114.699 603.738 113.664C603.738 112.511 604.079 111.586 604.763 110.889C605.451 110.187 606.369 109.836 607.518 109.836C608.156 109.836 608.719 109.948 609.206 110.171V111.647C608.719 111.283 608.199 111.101 607.648 111.101C606.978 111.101 606.429 111.328 606 111.784C605.572 112.235 605.358 112.828 605.358 113.562C605.358 114.286 605.558 114.858 605.959 115.277C606.365 115.697 606.907 115.906 607.586 115.906C608.156 115.906 608.694 115.703 609.199 115.298V116.679ZM616.432 117H614.893V115.906H614.866C614.383 116.745 613.674 117.164 612.74 117.164C612.052 117.164 611.512 116.977 611.12 116.604C610.733 116.23 610.539 115.735 610.539 115.12C610.539 113.799 611.3 113.028 612.822 112.81L614.9 112.516C614.9 111.518 614.426 111.019 613.478 111.019C612.644 111.019 611.893 111.306 611.223 111.88V110.492C611.961 110.055 612.813 109.836 613.779 109.836C615.547 109.836 616.432 110.706 616.432 112.447V117ZM614.9 113.562L613.431 113.767C612.975 113.826 612.631 113.938 612.398 114.102C612.17 114.261 612.057 114.544 612.057 114.949C612.057 115.245 612.161 115.489 612.371 115.681C612.585 115.868 612.87 115.961 613.226 115.961C613.709 115.961 614.107 115.792 614.422 115.455C614.741 115.113 614.9 114.685 614.9 114.17V113.562ZM622.344 116.925C622.034 117.08 621.627 117.157 621.121 117.157C619.763 117.157 619.084 116.506 619.084 115.202V111.244H617.915V110H619.084V108.38L620.67 107.929V110H622.344V111.244H620.67V114.744C620.67 115.159 620.745 115.455 620.895 115.633C621.046 115.811 621.296 115.899 621.647 115.899C621.916 115.899 622.148 115.822 622.344 115.667V116.925ZM624.791 108.53C624.532 108.53 624.308 108.446 624.121 108.277C623.939 108.109 623.848 107.895 623.848 107.635C623.848 107.375 623.939 107.159 624.121 106.985C624.308 106.812 624.532 106.726 624.791 106.726C625.06 106.726 625.288 106.812 625.475 106.985C625.662 107.159 625.755 107.375 625.755 107.635C625.755 107.881 625.662 108.093 625.475 108.271C625.288 108.444 625.06 108.53 624.791 108.53ZM625.578 117H623.992V110H625.578V117ZM631.039 117.164C629.959 117.164 629.095 116.838 628.448 116.187C627.806 115.53 627.484 114.662 627.484 113.582C627.484 112.406 627.819 111.488 628.489 110.827C629.164 110.166 630.071 109.836 631.21 109.836C632.304 109.836 633.156 110.157 633.767 110.8C634.377 111.442 634.683 112.333 634.683 113.473C634.683 114.589 634.352 115.485 633.691 116.159C633.035 116.829 632.151 117.164 631.039 117.164ZM631.114 111.101C630.495 111.101 630.005 111.317 629.645 111.75C629.285 112.183 629.105 112.78 629.105 113.541C629.105 114.275 629.287 114.854 629.651 115.277C630.016 115.697 630.504 115.906 631.114 115.906C631.739 115.906 632.217 115.699 632.55 115.284C632.887 114.869 633.056 114.279 633.056 113.514C633.056 112.743 632.887 112.149 632.55 111.729C632.217 111.31 631.739 111.101 631.114 111.101ZM642.817 117H641.231V113.056C641.231 111.748 640.769 111.094 639.844 111.094C639.36 111.094 638.962 111.276 638.647 111.641C638.333 112.001 638.176 112.456 638.176 113.008V117H636.583V110H638.176V111.162H638.203C638.727 110.278 639.484 109.836 640.472 109.836C641.234 109.836 641.815 110.084 642.216 110.581C642.617 111.073 642.817 111.786 642.817 112.721V117ZM653.132 107.929C652.918 107.806 652.674 107.744 652.401 107.744C651.63 107.744 651.245 108.179 651.245 109.05V110H652.872V111.244H651.252V117H649.666V111.244H648.47V110H649.666V108.865C649.666 108.127 649.908 107.546 650.391 107.122C650.874 106.694 651.478 106.479 652.202 106.479C652.594 106.479 652.904 106.523 653.132 106.609V107.929ZM657.384 117.164C656.304 117.164 655.44 116.838 654.793 116.187C654.15 115.53 653.829 114.662 653.829 113.582C653.829 112.406 654.164 111.488 654.834 110.827C655.508 110.166 656.415 109.836 657.555 109.836C658.648 109.836 659.501 110.157 660.111 110.8C660.722 111.442 661.027 112.333 661.027 113.473C661.027 114.589 660.697 115.485 660.036 116.159C659.38 116.829 658.496 117.164 657.384 117.164ZM657.459 111.101C656.839 111.101 656.349 111.317 655.989 111.75C655.629 112.183 655.449 112.78 655.449 113.541C655.449 114.275 655.631 114.854 655.996 115.277C656.361 115.697 656.848 115.906 657.459 115.906C658.083 115.906 658.562 115.699 658.894 115.284C659.232 114.869 659.4 114.279 659.4 113.514C659.4 112.743 659.232 112.149 658.894 111.729C658.562 111.31 658.083 111.101 657.459 111.101ZM666.988 111.511C666.797 111.36 666.521 111.285 666.161 111.285C665.691 111.285 665.299 111.497 664.985 111.921C664.671 112.345 664.513 112.921 664.513 113.65V117H662.927V110H664.513V111.442H664.541C664.696 110.95 664.933 110.567 665.252 110.294C665.575 110.016 665.935 109.877 666.332 109.877C666.619 109.877 666.838 109.92 666.988 110.007V111.511ZM678.855 117H677.269V113.186C677.269 112.452 677.164 111.921 676.954 111.593C676.749 111.265 676.401 111.101 675.909 111.101C675.494 111.101 675.141 111.308 674.849 111.723C674.562 112.137 674.418 112.634 674.418 113.213V117H672.826V113.056C672.826 111.752 672.365 111.101 671.445 111.101C671.016 111.101 670.663 111.297 670.385 111.688C670.112 112.08 669.975 112.589 669.975 113.213V117H668.389V110H669.975V111.107H670.002C670.508 110.26 671.244 109.836 672.21 109.836C672.693 109.836 673.115 109.97 673.475 110.239C673.84 110.504 674.088 110.852 674.22 111.285C674.74 110.319 675.514 109.836 676.544 109.836C678.085 109.836 678.855 110.786 678.855 112.687V117Z" fill="#333F51"/>
<defs>
<linearGradient id="paint0_linear_22397_20528" x1="16" y1="0" x2="16" y2="72" gradientUnits="userSpaceOnUse">
<stop stop-color="#FF710A"/>
<stop offset="1" stop-color="#0046FF" stop-opacity="0"/>
</linearGradient>
<linearGradient id="paint1_linear_22397_20528" x1="194" y1="0" x2="194" y2="72" gradientUnits="userSpaceOnUse">
<stop stop-color="#FF710A"/>
<stop offset="1" stop-color="#0046FF" stop-opacity="0"/>
</linearGradient>
<linearGradient id="paint2_linear_22397_20528" x1="389" y1="0" x2="389" y2="72" gradientUnits="userSpaceOnUse">
<stop stop-color="#FF710A"/>
<stop offset="1" stop-color="#0046FF" stop-opacity="0"/>
</linearGradient>
<linearGradient id="paint3_linear_22397_20528" x1="589" y1="0" x2="589" y2="72" gradientUnits="userSpaceOnUse">
<stop stop-color="#FF710A"/>
<stop offset="1" stop-color="#0046FF" stop-opacity="0"/>
</linearGradient>
</defs>
</svg>
