<svg width="66" height="66" viewBox="0 0 66 66" fill="none" xmlns="http://www.w3.org/2000/svg">
<path d="M2.0625 14.4375C2.0625 7.60297 7.60297 2.0625 14.4375 2.0625H51.5625C58.397 2.0625 63.9375 7.60297 63.9375 14.4375V51.5625C63.9375 58.397 58.397 63.9375 51.5625 63.9375H14.4375C7.60297 63.9375 2.0625 58.397 2.0625 51.5625V14.4375Z" fill="#245BFF" fill-opacity="0.2"/>
<path d="M33 16.5C23.8873 16.5 16.5 23.8873 16.5 33C16.5 42.1127 23.8873 49.5 33 49.5C42.1127 49.5 49.5 42.1127 49.5 33C49.5 23.8873 42.1127 16.5 33 16.5Z" fill="#192890"/>
<path d="M33.928 24V30.864C33.928 31.584 33.896 32.292 33.832 32.988C33.768 33.676 33.684 34.42 33.58 35.22H31.84C31.728 34.42 31.64 33.676 31.576 32.988C31.52 32.292 31.492 31.584 31.492 30.864V24H33.928ZM31 39.792C31 39.56 31.04 39.344 31.12 39.144C31.208 38.936 31.328 38.756 31.48 38.604C31.632 38.452 31.808 38.332 32.008 38.244C32.208 38.156 32.428 38.112 32.668 38.112C32.9 38.112 33.116 38.156 33.316 38.244C33.524 38.332 33.7 38.452 33.844 38.604C33.996 38.756 34.116 38.936 34.204 39.144C34.292 39.344 34.336 39.56 34.336 39.792C34.336 40.032 34.292 40.252 34.204 40.452C34.116 40.652 33.996 40.828 33.844 40.98C33.7 41.132 33.524 41.248 33.316 41.328C33.116 41.416 32.9 41.46 32.668 41.46C32.428 41.46 32.208 41.416 32.008 41.328C31.808 41.248 31.632 41.132 31.48 40.98C31.328 40.828 31.208 40.652 31.12 40.452C31.04 40.252 31 40.032 31 39.792Z" fill="#F3F3F3"/>
</svg>
