<svg width="24" height="24" viewBox="0 0 24 24" fill="none" xmlns="http://www.w3.org/2000/svg">
<path fill-rule="evenodd" clip-rule="evenodd" d="M8.62097 1C8.57022 0.999804 8.51993 1.00965 8.473 1.02898C8.42608 1.04831 8.38344 1.07674 8.34755 1.11263C8.31167 1.14852 8.28324 1.19115 8.26391 1.23808C8.24458 1.28501 8.23473 1.3353 8.23493 1.38605C8.23512 1.43655 8.24527 1.48651 8.26477 1.53309C8.28428 1.57967 8.31277 1.62195 8.34862 1.65752C8.38446 1.69309 8.42697 1.72125 8.4737 1.74039C8.52043 1.75953 8.57047 1.76928 8.62097 1.76909H9.8159V3.23215C8.53623 3.52869 7.35003 4.06966 6.30997 4.80411L4.95882 3.45296C4.88676 3.38133 4.78928 3.34112 4.68768 3.34112C4.58607 3.34112 4.4886 3.38133 4.41654 3.45296L2.77624 5.09027C2.74032 5.126 2.71182 5.16849 2.69237 5.21527C2.67292 5.26206 2.6629 5.31223 2.6629 5.3629C2.6629 5.41357 2.67292 5.46374 2.69237 5.51053C2.71182 5.55732 2.74032 5.5998 2.77624 5.63554L4.09208 6.94913C2.81931 8.62789 2.06348 10.7186 2.06348 12.9846C2.06348 18.5101 6.55499 23 12.0871 23C17.6192 23 22.113 18.5101 22.113 12.9846C22.113 8.24025 18.7994 4.26284 14.3606 3.2329V1.76909H15.5555C15.6571 1.76889 15.7545 1.72849 15.8264 1.65673C15.8983 1.58496 15.9389 1.48765 15.9393 1.38605C15.9395 1.33549 15.9297 1.28538 15.9105 1.2386C15.8913 1.19182 15.8631 1.14929 15.8274 1.11343C15.7918 1.07757 15.7494 1.0491 15.7028 1.02963C15.6561 1.01017 15.6061 1.0001 15.5555 1H8.62097ZM10.585 1.76909H13.5915V3.08569C13.1006 3.01175 12.5984 2.97304 12.0871 2.97304C11.5768 2.97304 11.0749 3.0113 10.585 3.08495V1.76909ZM12.0871 3.74212C12.6976 3.74212 13.2935 3.8018 13.8709 3.91411C13.8923 3.92 13.9141 3.92403 13.9362 3.92615C18.1653 4.7805 21.3439 8.50796 21.3439 12.9847C21.3439 18.0939 17.2042 22.2302 12.0871 22.2302C6.97011 22.2302 2.83035 18.0939 2.83035 12.9847C2.83035 10.8025 3.58597 8.79894 4.84993 7.21879C4.86033 7.21103 4.87033 7.20275 4.8799 7.19399C4.90999 7.16375 4.93485 7.12873 4.95344 7.09034C5.39985 6.55219 5.90685 6.06585 6.46307 5.64079C6.49327 5.62383 6.52105 5.60286 6.54564 5.57846C6.5459 5.57793 6.54616 5.57741 6.54642 5.57688C7.61899 4.77628 8.87161 4.20327 10.2334 3.92756C10.2624 3.92531 10.2911 3.91977 10.3189 3.91103C10.8911 3.8008 11.4824 3.74212 12.0871 3.74212ZM4.68693 4.27011L5.69485 5.27578C5.29686 5.60548 4.92518 5.9656 4.58252 6.35205L3.59114 5.3629L4.68693 4.27011ZM12.22 5.35164C12.1691 5.35075 12.1185 5.35998 12.0712 5.37881C12.0238 5.39765 11.9807 5.42569 11.9443 5.46133C11.9079 5.49697 11.8789 5.53948 11.8591 5.58641C11.8393 5.63333 11.8289 5.68373 11.8287 5.73467V8.79523C11.8291 8.8967 11.8696 8.9939 11.9414 9.06565C12.0131 9.1374 12.1103 9.17788 12.2118 9.17828C12.3138 9.17867 12.4117 9.13854 12.4841 9.0667C12.5565 8.99487 12.5974 8.89722 12.5978 8.79523V6.20634C16.1578 6.47877 18.9653 9.37309 18.9653 12.9846C18.9653 16.7816 15.8901 19.8546 12.0871 19.8546C8.28408 19.8546 5.21192 16.7816 5.21192 12.9846C5.21192 11.3524 5.79215 9.77641 6.85223 8.53387C6.88509 8.49551 6.91006 8.45105 6.92573 8.40304C6.9414 8.35502 6.94746 8.30439 6.94356 8.25404C6.93966 8.20368 6.92588 8.15459 6.903 8.10956C6.88012 8.06453 6.8486 8.02445 6.81023 7.9916C6.77182 7.9588 6.72732 7.93388 6.67928 7.91828C6.63123 7.90267 6.58059 7.89669 6.53023 7.90066C6.47987 7.90464 6.43079 7.9185 6.38579 7.94145C6.34079 7.96439 6.30075 7.99598 6.26797 8.03441C5.08932 9.41592 4.44214 11.1696 4.44214 12.9846C4.44214 17.1978 7.86907 20.6236 12.0872 20.6236C16.3053 20.6236 19.7344 17.1978 19.7344 12.9846C19.7344 8.82237 16.3866 5.42311 12.22 5.35164ZM7.81283 8.32883C7.74955 8.33169 7.68796 8.35013 7.63353 8.38252C7.5791 8.41491 7.53351 8.46024 7.50081 8.51449C7.46811 8.56874 7.44932 8.63022 7.4461 8.69348C7.44288 8.75674 7.45534 8.81981 7.48236 8.8771C7.48236 8.8771 8.08448 10.1796 8.75465 11.5629C9.08975 12.2545 9.44126 12.9664 9.7453 13.5494C10.0494 14.1324 10.2716 14.5503 10.4806 14.7984C11.1515 15.595 12.3505 15.7008 13.1484 15.0313C13.9462 14.3617 14.0521 13.1601 13.3812 12.3635C13.1722 12.1153 12.7942 11.8253 12.2711 11.4262C11.748 11.027 11.1079 10.5602 10.4828 10.1118C9.23282 9.21514 8.05016 8.39793 8.05016 8.39793C7.98081 8.3494 7.89739 8.32512 7.81283 8.32883ZM8.80272 9.87075C9.25463 10.1869 9.40253 10.2834 10.0345 10.7367C10.656 11.1826 11.2937 11.6488 11.8062 12.0398C12.3187 12.4309 12.7314 12.7894 12.7908 12.86C13.1939 13.3385 13.1344 14.0385 12.6549 14.4409C12.1753 14.8434 11.471 14.7836 11.0679 14.305C11.0085 14.2344 10.7274 13.7631 10.4295 13.1919C10.1317 12.6208 9.78038 11.9157 9.44716 11.2279C9.10881 10.5295 9.03705 10.3693 8.80272 9.87075Z" fill="white" stroke="white" stroke-width="0.5"/>
</svg>
