<svg width="141" height="141" viewBox="0 0 141 141" fill="none" xmlns="http://www.w3.org/2000/svg">
<g opacity="0.3" clip-path="url(#clip0_22397_12472)">
<path d="M138.745 137.139C136.461 139.423 132.994 140.038 130.064 138.679L50.5453 104.444C46.6533 102.639 45.7437 97.5123 48.7771 94.4786L95.9124 47.3433C98.9461 44.3096 104.073 45.2192 105.878 49.1115L140.285 128.458C141.644 131.388 141.029 134.855 138.745 137.139Z" fill="#FFE266"/>
<path d="M72.5044 96.9438L130.958 122.11C133.024 123.068 135.451 122.688 137.127 121.175L140.286 128.458C141.644 131.389 141.029 134.855 138.745 137.139C136.462 139.423 132.995 140.038 130.065 138.679L51.3084 104.772C53.1228 104.045 72.2093 96.807 72.5044 96.9438Z" fill="#EFAA66"/>
<path d="M48.2268 101.228C42.7932 95.7946 50.6932 79.085 65.8719 63.9063C81.0506 48.7276 97.7602 40.8276 103.194 46.2612C108.627 51.6948 100.727 68.4044 85.5487 83.5831C70.37 98.7618 53.6604 106.662 48.2268 101.228Z" fill="#FFE266"/>
<path d="M61.9969 94.2263C58.4326 90.6619 64.206 79.1096 74.8922 68.4234C85.5784 57.7372 97.1307 51.9638 100.695 55.5281C104.259 59.0925 98.486 70.6448 87.7998 81.331C77.1136 92.0172 65.5613 97.7906 61.9969 94.2263Z" fill="#EFAA66"/>
<path d="M53.117 105.776C61.7788 105.776 75.1931 97.9246 87.5336 85.5841C98.7393 74.3781 106.418 62.0371 107.572 53.377C107.778 51.8295 106.691 50.408 105.144 50.202C103.598 49.9965 102.175 51.0827 101.969 52.6302C100.986 60.0068 93.7502 71.373 83.5361 81.5869C70.4853 94.6377 58.4509 100.328 52.7951 100.117C51.2371 100.06 49.9208 101.269 49.8586 102.829C49.7967 104.389 51.011 105.703 52.5709 105.765C52.7504 105.772 52.9336 105.776 53.117 105.776Z" fill="#D0844B"/>
<path d="M83.3371 62.1408C84.0005 61.4774 84.5123 60.6439 84.7967 59.6806L87.4104 50.8337C88.3976 47.4928 87.5067 43.9133 85.0858 41.4924L80.3345 36.741C77.9133 34.3199 74.3338 33.4292 70.9929 34.4165L61.4761 37.1025L64.6858 25.651C65.5954 22.5726 63.837 19.34 60.7587 18.4304C57.6804 17.5208 54.4477 19.2792 53.5378 22.3575L50.9242 31.2045C49.9372 34.5457 50.8278 38.1252 53.2487 40.5458L58 45.2971C60.4209 47.718 64.0004 48.6087 67.3413 47.6216L76.9554 44.4865L73.6487 56.3872C72.7391 59.4655 74.4975 62.6982 77.5758 63.6078C79.6915 64.2327 81.88 63.5979 83.3371 62.1408Z" fill="#CAB4EF"/>
<path d="M61.4761 37.1026L70.9929 34.4165C73.8646 33.568 76.9116 34.1079 79.2485 35.8131C78.5942 38.4296 77.7618 41.9102 76.9557 44.4862L67.3416 47.6214C64.3337 48.51 61.1332 47.8761 58.7581 45.9744C59.5993 43.3412 60.6756 39.7482 61.4761 37.1026Z" fill="#A183E2"/>
<path d="M46.5291 58.0041C45.8657 58.6675 45.0319 59.1794 44.0689 59.4637L35.222 62.0774C31.8813 63.0644 28.3016 62.1737 25.8807 59.7528L21.1293 55.0015C18.7081 52.5803 17.8175 49.0008 18.8048 45.6599L21.4908 36.1431L10.0393 39.3526C6.96091 40.2621 3.72796 38.5038 2.81839 35.4254C1.90882 32.3471 3.66719 29.1144 6.74553 28.2049L15.5925 25.5912C18.9337 24.6042 22.5132 25.4951 24.9338 27.9157L29.6851 32.6671C32.106 35.088 32.9967 38.6674 32.0096 42.0084L28.8748 51.6224L40.7755 48.3157C43.8538 47.4061 47.0865 49.1645 47.9961 52.2428C48.6213 54.3585 47.9862 56.547 46.5291 58.0041Z" fill="#F7C4DB"/>
<path d="M18.8053 45.6599L21.4913 36.1431C24.2602 35.5464 28.1336 34.7829 30.8971 34.1631C32.3767 36.4398 32.8098 39.3022 32.0101 42.0086L28.8753 51.6227C26.0089 52.3304 22.9758 52.8186 20.2239 53.9455C18.5012 51.6046 17.9531 48.5438 18.8053 45.6599Z" fill="#EF8BBD"/>
<path d="M32.9976 10.2101C34.8405 12.053 37.8287 12.053 39.6716 10.2101C41.5144 8.36727 41.5144 5.37909 39.6716 3.53621C37.8287 1.69333 34.8405 1.69333 32.9976 3.53621C31.1547 5.37937 31.1547 8.36727 32.9976 10.2101Z" fill="#FFA585"/>
<path d="M25.8766 88.6114C23.2703 88.6114 21.1575 86.4985 21.1575 83.8922C21.1575 81.2859 23.2703 79.1731 25.8766 79.1731C28.4829 79.1731 30.5957 81.2859 30.5957 83.8922C30.5957 86.4985 28.4829 88.6114 25.8766 88.6114Z" fill="#78EAC4"/>
<path d="M51.6929 88.0861C53.5358 89.929 56.524 89.929 58.3669 88.0861C60.2097 86.2432 60.2097 83.2551 58.3669 81.4122C56.524 79.5693 53.5358 79.5693 51.6929 81.4122C49.8501 83.2553 49.8501 86.2432 51.6929 88.0861Z" fill="#78EAC4"/>
<path d="M51.6929 88.0861C53.5358 89.929 56.524 89.929 58.3669 88.0861C60.2097 86.2432 60.2097 83.2551 58.3669 81.4122C56.524 79.5693 53.5358 79.5693 51.6929 81.4122C49.8501 83.2553 49.8501 86.2432 51.6929 88.0861Z" fill="#8BB6EF"/>
<path d="M115.306 101.921C115.678 101.921 116.058 101.847 116.422 101.69C117.856 101.073 118.518 99.4102 117.9 97.9764L114.321 89.6625C113.703 88.2289 112.04 87.5658 110.607 88.1842C109.173 88.8015 108.511 90.4641 109.129 91.898L112.708 100.212C113.169 101.281 114.211 101.921 115.306 101.921Z" fill="white"/>
<path d="M107.72 84.3043C108.093 84.3043 108.472 84.2299 108.837 84.0731C110.27 83.4558 110.932 81.7932 110.315 80.359L109.224 77.8248C108.606 76.3915 106.944 75.7284 105.51 76.3468C104.076 76.9641 103.414 78.6267 104.031 80.0609L105.122 82.5951C105.583 83.6641 106.625 84.3043 107.72 84.3043Z" fill="white"/>
<path d="M85.539 2.29788L83.2173 8.82654C83.1179 9.10608 82.9211 9.32767 82.6727 9.4396L76.8724 12.053C76.053 12.4221 76.053 13.7277 76.8724 14.0971L82.6727 16.7105C82.9211 16.8224 83.1179 17.044 83.2173 17.3233L85.539 23.8519C85.8669 24.7742 87.0272 24.7742 87.3551 23.8519L89.6767 17.3233C89.7762 17.0437 89.973 16.8221 90.2214 16.7105L96.0217 14.0971C96.8411 13.728 96.8411 12.4224 96.0217 12.053L90.2214 9.4396C89.973 9.32767 89.7762 9.10608 89.6767 8.82654L87.3551 2.29788C87.0272 1.37531 85.8669 1.37531 85.539 2.29788Z" fill="#F7C4DB"/>
<path d="M6.88452 60.9891L5.16234 65.8317C5.08856 66.0392 4.94271 66.2034 4.75842 66.2865L0.455929 68.2249C-0.152052 68.4988 -0.152052 69.4672 0.455929 69.7411L4.75842 71.6795C4.94271 71.7626 5.08856 71.9268 5.16234 72.1343L6.88452 76.9769C7.12788 77.6612 7.98827 77.6612 8.23164 76.9769L9.95382 72.1343C10.0276 71.9268 10.1734 71.7626 10.3577 71.6795L14.6602 69.7411C15.2682 69.4672 15.2682 68.4988 14.6602 68.2249L10.3577 66.2865C10.1734 66.2034 10.0276 66.0392 9.95382 65.8317L8.23164 60.9891C7.98827 60.3051 7.12788 60.3051 6.88452 60.9891Z" fill="#CAB4EF"/>
<path d="M38.9069 24.5207C37.6991 24.5207 36.72 23.5416 36.72 22.3338C36.72 21.1261 37.6991 20.147 38.9069 20.147C40.1147 20.147 41.0938 21.1261 41.0938 22.3338C41.0938 23.5416 40.1147 24.5207 38.9069 24.5207Z" fill="#78EAC4"/>
<path d="M5.79649 8.79949C5.52449 6.58563 7.09881 4.57044 9.31283 4.29842C11.5268 4.02641 13.5422 5.60058 13.8141 7.81444C14.0861 10.0283 12.5118 12.0435 10.2978 12.3155C8.08379 12.5875 6.06848 11.0134 5.79649 8.79949Z" fill="#8BB6EF"/>
</g>
<defs>
<clipPath id="clip0_22397_12472">
<rect width="141" height="141" fill="white" transform="matrix(-1 0 0 1 141 0)"/>
</clipPath>
</defs>
</svg>
