<svg width="141" height="141" viewBox="0 0 141 141" fill="none" xmlns="http://www.w3.org/2000/svg">
<g opacity="0.3" clip-path="url(#clip0_22397_12448)">
<path d="M2.25509 137.139C4.5389 139.423 8.00589 140.038 10.9358 138.679L90.4547 104.444C94.3467 102.639 95.2563 97.5123 92.2229 94.4786L45.0876 47.3433C42.0539 44.3096 36.9272 45.2192 35.1225 49.1115L0.71493 128.458C-0.643769 131.388 -0.0287219 134.855 2.25509 137.139Z" fill="#FFE266"/>
<path d="M68.4956 96.9438L10.0419 122.11C7.97601 123.068 5.54945 122.688 3.87306 121.175L0.714442 128.458C-0.644257 131.389 -0.0292102 134.855 2.2546 137.139C4.53841 139.423 8.0054 140.038 10.9354 138.679L89.6916 104.772C87.8772 104.045 68.7907 96.807 68.4956 96.9438Z" fill="#EFAA66"/>
<path d="M92.7732 101.228C98.2068 95.7946 90.3068 79.085 75.1281 63.9063C59.9494 48.7276 43.2398 40.8276 37.8062 46.2612C32.3726 51.6948 40.2726 68.4044 55.4513 83.5831C70.63 98.7618 87.3396 106.662 92.7732 101.228Z" fill="#FFE266"/>
<path d="M79.0031 94.2263C82.5674 90.6619 76.794 79.1096 66.1078 68.4234C55.4216 57.7372 43.8693 51.9638 40.3049 55.5281C36.7406 59.0925 42.514 70.6448 53.2002 81.331C63.8864 92.0172 75.4387 97.7906 79.0031 94.2263Z" fill="#EFAA66"/>
<path d="M87.883 105.776C79.2212 105.776 65.8069 97.9246 53.4664 85.5841C42.2607 74.3781 34.582 62.0371 33.4279 53.377C33.2218 51.8295 34.3086 50.408 35.8561 50.202C37.4022 49.9965 38.8251 51.0827 39.0312 52.6302C40.0145 60.0068 47.2498 71.373 57.4639 81.5869C70.5147 94.6377 82.5491 100.328 88.2049 100.117C89.7629 100.06 91.0792 101.269 91.1414 102.829C91.2033 104.389 89.989 105.703 88.4291 105.765C88.2496 105.772 88.0664 105.776 87.883 105.776Z" fill="#D0844B"/>
<path d="M57.6629 62.1408C56.9995 61.4774 56.4877 60.6439 56.2033 59.6806L53.5896 50.8337C52.6024 47.4928 53.4933 43.9133 55.9142 41.4924L60.6655 36.741C63.0867 34.3199 66.6662 33.4292 70.0071 34.4165L79.5239 37.1025L76.3142 25.651C75.4046 22.5726 77.163 19.34 80.2413 18.4304C83.3196 17.5208 86.5523 19.2792 87.4622 22.3575L90.0758 31.2045C91.0628 34.5457 90.1722 38.1252 87.7513 40.5458L83 45.2971C80.5791 47.718 76.9996 48.6087 73.6587 47.6216L64.0446 44.4865L67.3513 56.3872C68.2609 59.4655 66.5025 62.6982 63.4242 63.6078C61.3085 64.2327 59.12 63.5979 57.6629 62.1408Z" fill="#CAB4EF"/>
<path d="M79.5239 37.1026L70.0071 34.4165C67.1354 33.568 64.0884 34.1079 61.7515 35.8131C62.4058 38.4296 63.2382 41.9102 64.0443 44.4862L73.6584 47.6214C76.6663 48.51 79.8668 47.8761 82.2419 45.9744C81.4007 43.3412 80.3244 39.7482 79.5239 37.1026Z" fill="#A183E2"/>
<path d="M94.4709 58.0041C95.1343 58.6675 95.9681 59.1794 96.9311 59.4637L105.778 62.0774C109.119 63.0644 112.698 62.1737 115.119 59.7528L119.871 55.0015C122.292 52.5803 123.182 49.0008 122.195 45.6599L119.509 36.1431L130.961 39.3526C134.039 40.2621 137.272 38.5038 138.182 35.4254C139.091 32.3471 137.333 29.1144 134.254 28.2049L125.408 25.5912C122.066 24.6042 118.487 25.4951 116.066 27.9157L111.315 32.6671C108.894 35.088 108.003 38.6674 108.99 42.0084L112.125 51.6224L100.225 48.3157C97.1462 47.4061 93.9135 49.1645 93.0039 52.2428C92.3787 54.3585 93.0138 56.547 94.4709 58.0041Z" fill="#F7C4DB"/>
<path d="M122.195 45.6599L119.509 36.1431C116.74 35.5464 112.866 34.7829 110.103 34.1631C108.623 36.4398 108.19 39.3022 108.99 42.0086L112.125 51.6227C114.991 52.3304 118.024 52.8186 120.776 53.9455C122.499 51.6046 123.047 48.5438 122.195 45.6599Z" fill="#EF8BBD"/>
<path d="M108.002 10.2101C106.16 12.053 103.171 12.053 101.328 10.2101C99.4856 8.36727 99.4856 5.37909 101.328 3.53621C103.171 1.69333 106.16 1.69333 108.002 3.53621C109.845 5.37937 109.845 8.36727 108.002 10.2101Z" fill="#FFA585"/>
<path d="M115.123 88.6114C117.73 88.6114 119.843 86.4985 119.843 83.8922C119.843 81.2859 117.73 79.1731 115.123 79.1731C112.517 79.1731 110.404 81.2859 110.404 83.8922C110.404 86.4985 112.517 88.6114 115.123 88.6114Z" fill="#78EAC4"/>
<path d="M89.3071 88.0861C87.4642 89.929 84.476 89.929 82.6331 88.0861C80.7903 86.2432 80.7903 83.2551 82.6331 81.4122C84.476 79.5693 87.4642 79.5693 89.3071 81.4122C91.1499 83.2553 91.1499 86.2432 89.3071 88.0861Z" fill="#78EAC4"/>
<path d="M89.3071 88.0861C87.4642 89.929 84.476 89.929 82.6331 88.0861C80.7903 86.2432 80.7903 83.2551 82.6331 81.4122C84.476 79.5693 87.4642 79.5693 89.3071 81.4122C91.1499 83.2553 91.1499 86.2432 89.3071 88.0861Z" fill="#8BB6EF"/>
<path d="M25.6944 101.921C25.3215 101.921 24.9422 101.847 24.5782 101.69C23.1443 101.073 22.4823 99.4102 23.0999 97.9764L26.6794 89.6625C27.2967 88.2289 28.9598 87.5658 30.3931 88.1842C31.827 88.8015 32.489 90.4641 31.8714 91.898L28.2919 100.212C27.8315 101.281 26.7894 101.921 25.6944 101.921Z" fill="white"/>
<path d="M33.2798 84.3043C32.907 84.3043 32.528 84.2299 32.1634 84.0731C30.7298 83.4558 30.0678 81.7932 30.6854 80.359L31.7764 77.8248C32.3937 76.3915 34.0557 75.7284 35.4904 76.3468C36.924 76.9641 37.586 78.6267 36.9687 80.0609L35.8777 82.5951C35.4169 83.6641 34.3745 84.3043 33.2798 84.3043Z" fill="white"/>
<path d="M55.461 2.29788L57.7827 8.82654C57.8821 9.10608 58.0789 9.32767 58.3273 9.4396L64.1276 12.053C64.947 12.4221 64.947 13.7277 64.1276 14.0971L58.3273 16.7105C58.0789 16.8224 57.8821 17.044 57.7827 17.3233L55.461 23.8519C55.1331 24.7742 53.9728 24.7742 53.6449 23.8519L51.3233 17.3233C51.2238 17.0437 51.027 16.8221 50.7786 16.7105L44.9783 14.0971C44.1589 13.728 44.1589 12.4224 44.9783 12.053L50.7786 9.4396C51.027 9.32767 51.2238 9.10608 51.3233 8.82654L53.6449 2.29788C53.9728 1.37531 55.1331 1.37531 55.461 2.29788Z" fill="#F7C4DB"/>
<path d="M134.115 60.9891L135.838 65.8317C135.911 66.0392 136.057 66.2034 136.242 66.2865L140.544 68.2249C141.152 68.4988 141.152 69.4672 140.544 69.7411L136.242 71.6795C136.057 71.7626 135.911 71.9268 135.838 72.1343L134.115 76.9769C133.872 77.6612 133.012 77.6612 132.768 76.9769L131.046 72.1343C130.972 71.9268 130.827 71.7626 130.642 71.6795L126.34 69.7411C125.732 69.4672 125.732 68.4988 126.34 68.2249L130.642 66.2865C130.827 66.2034 130.972 66.0392 131.046 65.8317L132.768 60.9891C133.012 60.3051 133.872 60.3051 134.115 60.9891Z" fill="#CAB4EF"/>
<path d="M102.093 24.5207C103.301 24.5207 104.28 23.5416 104.28 22.3338C104.28 21.1261 103.301 20.147 102.093 20.147C100.885 20.147 99.9062 21.1261 99.9062 22.3338C99.9062 23.5416 100.885 24.5207 102.093 24.5207Z" fill="#78EAC4"/>
<path d="M135.204 8.79949C135.476 6.58563 133.901 4.57044 131.687 4.29842C129.473 4.02641 127.458 5.60058 127.186 7.81444C126.914 10.0283 128.488 12.0435 130.702 12.3155C132.916 12.5875 134.932 11.0134 135.204 8.79949Z" fill="#8BB6EF"/>
</g>
<defs>
<clipPath id="clip0_22397_12448">
<rect width="141" height="141" fill="white"/>
</clipPath>
</defs>
</svg>
