<svg width="32" height="32" viewBox="0 0 32 32" fill="none" xmlns="http://www.w3.org/2000/svg">
<path fill-rule="evenodd" clip-rule="evenodd" d="M2.3999 15.9999C2.3999 23.4799 8.5199 29.5999 15.9999 29.5999C22.3919 29.5999 27.9679 25.1119 29.3279 18.8559C29.3279 18.4479 29.1919 18.1759 28.7839 18.0399C28.3759 18.0399 28.1039 18.1759 27.9679 18.5839C26.7439 24.1599 21.7119 28.2399 15.9999 28.2399C9.1999 28.2399 3.7599 22.7999 3.7599 15.9999C3.7599 9.1999 9.1999 3.7599 15.9999 3.7599C21.7119 3.7599 26.7439 7.8399 27.9679 13.4159C28.1039 13.8239 28.3759 14.0959 28.7839 13.9599C29.1919 13.8239 29.4639 13.5519 29.3279 13.1439C27.9679 6.8879 22.3919 2.3999 15.9999 2.3999C8.5199 2.3999 2.3999 8.5199 2.3999 15.9999ZM5.39187 13.8242C5.39187 14.2322 5.52787 14.5042 6.07187 14.6402C6.34387 14.6402 6.61587 14.3682 6.75187 14.0962C7.56787 9.74422 11.5119 6.48022 15.9999 6.48022C18.9919 6.48022 21.8479 7.84022 23.6159 10.2882C23.8879 10.5602 24.2959 10.6962 24.5679 10.4242C24.8399 10.1522 24.9759 9.74421 24.7039 9.47221C22.6639 6.75221 19.3999 5.12021 15.9999 5.12021C10.8319 5.12021 6.34387 8.79221 5.39187 13.8242ZM15.9999 26.8799C12.5999 26.8799 9.33588 25.2479 7.29588 22.5279C6.34388 21.3039 5.66388 19.8079 5.39188 18.1759C5.25588 17.7679 5.52788 17.4959 5.93588 17.3599C6.34388 17.2239 6.61588 17.4959 6.75188 17.9039C6.88788 18.9919 7.29588 20.0799 7.83988 21.0319C9.87988 18.7199 12.8719 17.3599 15.9999 17.3599C19.3999 17.3599 22.6639 18.9919 24.7039 21.7119C24.8399 21.9839 24.8399 22.2559 24.7039 22.5279C22.6639 25.2479 19.3999 26.8799 15.9999 26.8799ZM8.79188 22.1199C10.5599 24.2959 13.1439 25.5199 15.9999 25.5199C18.8559 25.5199 21.4399 24.2959 23.3439 22.1199C21.4399 19.9439 18.8559 18.7199 15.9999 18.7199C13.1439 18.7199 10.5599 19.9439 8.79188 22.1199ZM11.9199 11.9197C11.9199 14.2317 13.6879 15.9997 15.9999 15.9997C18.3119 15.9997 20.0799 14.2317 20.0799 11.9197C20.0799 9.60775 18.3119 7.83975 15.9999 7.83975C13.6879 7.83975 11.9199 9.60775 11.9199 11.9197ZM13.2799 11.9197C13.2799 10.4237 14.5039 9.19975 15.9999 9.19975C17.4959 9.19975 18.7199 10.4237 18.7199 11.9197C18.7199 13.4157 17.4959 14.6397 15.9999 14.6397C14.5039 14.6397 13.2799 13.4157 13.2799 11.9197ZM5.79993 16.6802C6.17549 16.6802 6.47993 16.3758 6.47993 16.0002C6.47993 15.6247 6.17549 15.3202 5.79993 15.3202C5.42438 15.3202 5.11993 15.6247 5.11993 16.0002C5.11993 16.3758 5.42438 16.6802 5.79993 16.6802ZM26.1999 15.3198H28.9199C29.3279 15.3198 29.5999 15.5918 29.5999 15.9998C29.5999 16.4078 29.3279 16.6798 28.9199 16.6798H26.1999V19.3998C26.1999 19.8078 25.9279 20.0798 25.5199 20.0798C25.1119 20.0798 24.8399 19.8078 24.8399 19.3998V16.6798H22.1199C21.7119 16.6798 21.4399 16.4078 21.4399 15.9998C21.4399 15.5918 21.7119 15.3198 22.1199 15.3198H24.8399V12.5998C24.8399 12.1918 25.1119 11.9198 25.5199 11.9198C25.9279 11.9198 26.1999 12.1918 26.1999 12.5998V15.3198Z" fill="#6A90D9"/>
</svg>
