<svg width="51" height="50" viewBox="0 0 51 50" fill="none" xmlns="http://www.w3.org/2000/svg">
<circle cx="25.5" cy="25" r="25" fill="#F7C6C5"/>
<path d="M34.3816 19.0589C31.0954 18.7332 27.7895 18.5654 24.4934 18.5654C22.5395 18.5654 20.5855 18.6641 18.6316 18.8615L16.6184 19.0589" stroke="#E25247" stroke-linecap="round" stroke-linejoin="round"/>
<path d="M22.0461 18.0623L22.2632 16.7695C22.4211 15.832 22.5396 15.1313 24.2073 15.1313H26.7929C28.4606 15.1313 28.5889 15.8715 28.7369 16.7794L28.954 18.0623" stroke="#E25247" stroke-linecap="round" stroke-linejoin="round"/>
<path d="M32.26 22.1772L31.6185 32.1147C31.51 33.6641 31.4212 34.868 28.6679 34.868H22.3323C19.5791 34.868 19.4902 33.6641 19.3817 32.1147L18.7402 22.1772" stroke="#E25247" stroke-linecap="round" stroke-linejoin="round"/>
<path d="M23.8521 29.4404H27.1382" stroke="#E25247" stroke-linecap="round" stroke-linejoin="round"/>
<path d="M23.033 25.4932H27.9672" stroke="#E25247" stroke-linecap="round" stroke-linejoin="round"/>
</svg>
