<svg width="28" height="29" viewBox="0 0 28 29" fill="none" xmlns="http://www.w3.org/2000/svg">
<circle opacity="0.16" cx="14" cy="14.5" r="14" fill="#E5E5E5"/>
<path d="M19.25 10.9889C17.3075 10.7964 15.3533 10.6973 13.405 10.6973C12.25 10.6973 11.095 10.7556 9.94 10.8723L8.75 10.9889" stroke="#F3F3F3" stroke-width="0.777778" stroke-linecap="round" stroke-linejoin="round"/>
<path d="M11.9583 10.3995L12.0866 9.63533C12.18 9.08116 12.25 8.66699 13.2358 8.66699H14.7641C15.75 8.66699 15.8258 9.10449 15.9133 9.64116L16.0416 10.3995" stroke="#F3F3F3" stroke-width="0.777778" stroke-linecap="round" stroke-linejoin="round"/>
<path d="M17.9958 12.832L17.6167 18.7062C17.5525 19.622 17.5 20.3337 15.8725 20.3337H12.1275C10.5 20.3337 10.4475 19.622 10.3833 18.7062L10.0042 12.832" stroke="#F3F3F3" stroke-width="0.777778" stroke-linecap="round" stroke-linejoin="round"/>
<path d="M13.0258 17.125H14.9683" stroke="#F3F3F3" stroke-width="0.777778" stroke-linecap="round" stroke-linejoin="round"/>
<path d="M12.5417 14.792H15.4584" stroke="#F3F3F3" stroke-width="0.777778" stroke-linecap="round" stroke-linejoin="round"/>
</svg>
