<svg width="38" height="44" viewBox="0 0 38 44" fill="none" xmlns="http://www.w3.org/2000/svg">
<path d="M37.7255 20.0803L33.074 16.5843V6.18754C33.074 6.00535 33.0001 5.83004 32.8682 5.70112L27.2386 0.201094C27.1066 0.0721867 26.9272 0 26.7407 0H5.62958C5.24078 0 4.92587 0.307658 4.92587 0.687503V16.5843L0.274447 20.0803C0.102041 20.2109 0 20.412 0 20.6251V43.3125C0 43.6923 0.314908 44 0.703703 44H37.2963C37.6851 44 38 43.6923 38 43.3125V20.6251C38 20.412 37.8996 20.2092 37.7255 20.0803ZM33.074 18.3203L36.1422 20.6269L33.074 22.9334V18.3203ZM36.5926 22.0225V41.9189L23.3557 31.9709L36.5926 22.0225ZM19.0002 30.4305L35.2275 42.6269L2.77289 42.6252L19.0002 30.4288V30.4305ZM27.4446 2.34782L30.6711 5.50004H27.4446V2.34782ZM6.33352 1.37502H26.0372V6.18776C26.0372 6.5676 26.3521 6.87526 26.7409 6.87526H31.6671V23.9891L22.2021 31.1013L19.4295 29.0182C19.1762 28.8291 18.8243 28.8291 18.571 29.0182L15.7985 31.1013L6.33347 23.9891L6.33352 1.37502ZM4.92611 18.3186V22.9298L1.85796 20.6232L4.92611 18.3167V18.3186ZM14.6442 31.9688L1.40737 41.9168V22.0203L14.6442 31.9688Z" fill="#687AAB"/>
<path d="M6.33352 1.37502H26.0372V6.18776C26.0372 6.5676 26.3521 6.87526 26.7409 6.87526H31.6671V23.9891L22.2021 31.1013L19.4295 29.0182C19.1762 28.8291 18.8243 28.8291 18.571 29.0182L15.7985 31.1013L6.33347 23.9891L6.33352 1.37502Z" fill="white"/>
<path d="M19 19.9378C19.3888 19.9378 19.7037 19.6301 19.7037 19.2503C19.7037 18.8704 19.3888 18.5628 19 18.5628C17.0595 18.5628 15.4815 17.021 15.4815 15.1252C15.4815 13.2294 17.0595 11.6877 19 11.6877C20.9405 11.6877 22.5185 13.2294 22.5185 15.1252C22.5185 15.5034 22.2018 15.8127 21.8148 15.8127C21.426 15.8127 21.1111 15.5034 21.1111 15.1252C21.1111 13.9874 20.1646 13.0627 19 13.0627C17.8354 13.0627 16.8889 13.9874 16.8889 15.1252C16.8889 16.2613 17.8354 17.1877 19 17.1877C19.5401 17.1877 20.0344 16.9884 20.4074 16.6618C20.7804 16.9884 21.2747 17.1877 21.8148 17.1877C22.9794 17.1877 23.9259 16.263 23.9259 15.1252C23.9259 12.4715 21.7163 10.3125 18.9998 10.3125C16.2832 10.3125 14.0736 12.4712 14.0736 15.1252C14.0736 17.7792 16.2834 19.9378 19 19.9378ZM19 15.8127C18.6129 15.8127 18.2963 15.5034 18.2963 15.1252C18.2963 14.7471 18.6129 14.4377 19 14.4377C19.387 14.4377 19.7037 14.7471 19.7037 15.1252C19.7037 15.5034 19.387 15.8127 19 15.8127Z" fill="#687AAB"/>
</svg>
