<svg width="32" height="32" viewBox="0 0 32 32" fill="none" xmlns="http://www.w3.org/2000/svg">
<path d="M27.353 14.9757V8.81134H21.4856C21.412 8.81134 21.3414 8.78209 21.2893 8.73004C21.2373 8.67799 21.208 8.6074 21.208 8.53378V6.77689C21.208 6.70328 21.2373 6.63268 21.2893 6.58063C21.3414 6.52858 21.412 6.49934 21.4856 6.49934C21.5592 6.49934 21.6298 6.52858 21.6819 6.58063C21.7339 6.63268 21.7632 6.70328 21.7632 6.77689V8.25623H27.1837L21.7632 2.98554V5.31419C21.7632 5.3878 21.7339 5.4584 21.6819 5.51045C21.6298 5.5625 21.5592 5.59174 21.4856 5.59174C21.412 5.59174 21.3414 5.5625 21.2893 5.51045C21.2373 5.4584 21.208 5.3878 21.208 5.31419V2.95501H8.56005V18.7754L14.4774 17.1934C14.6208 17.1529 14.7724 17.1517 14.9164 17.1897C15.0604 17.2278 15.1916 17.3038 15.2962 17.4099C15.4057 17.5152 15.4842 17.6485 15.5233 17.7952C15.5625 17.942 15.5607 18.0967 15.5183 18.2425L13.4616 25.889C13.4238 26.0333 13.3486 26.1649 13.2435 26.2707C13.1385 26.3765 13.0074 26.4527 12.8635 26.4916C12.7195 26.5305 12.5679 26.5306 12.4239 26.4921C12.2799 26.4535 12.1486 26.3776 12.0433 26.2721L10.7138 24.9454C10.6588 24.891 10.5845 24.8605 10.5071 24.8605C10.4297 24.8605 10.3554 24.891 10.3003 24.9454L8.56005 26.6856V29.0448H27.353V16.4384C27.353 16.3648 27.3823 16.2942 27.4343 16.2422C27.4864 16.1901 27.557 16.1609 27.6306 16.1609C27.7042 16.1609 27.7748 16.1901 27.8268 16.2422C27.8789 16.2942 27.9081 16.3648 27.9081 16.4384V29.3224C27.9081 29.396 27.8789 29.4666 27.8268 29.5186C27.7748 29.5707 27.7042 29.5999 27.6306 29.5999H8.2825C8.20889 29.5999 8.13829 29.5707 8.08624 29.5186C8.03419 29.4666 8.00495 29.396 8.00495 29.3224V27.2407L6.89475 28.3509C6.78568 28.4608 6.65597 28.548 6.51307 28.6076C6.37017 28.6671 6.2169 28.6978 6.06209 28.6979C5.906 28.6981 5.75138 28.6676 5.60708 28.6081C5.46278 28.5486 5.33162 28.4612 5.22111 28.3509L4.34405 27.4711C4.12372 27.25 4 26.9506 4 26.6384C4 26.3263 4.12372 26.0269 4.34405 25.8058L5.11842 25.0203C5.17042 24.9686 5.24077 24.9396 5.31409 24.9396C5.38742 24.9396 5.45776 24.9686 5.50977 25.0203C5.53578 25.0461 5.55643 25.0768 5.57052 25.1106C5.58461 25.1445 5.59187 25.1807 5.59187 25.2174C5.59187 25.254 5.58461 25.2903 5.57052 25.3241C5.55643 25.3579 5.53578 25.3886 5.50977 25.4144L4.7354 26.1916C4.61811 26.3096 4.55228 26.4693 4.55228 26.6357C4.55228 26.8021 4.61811 26.9617 4.7354 27.0797L5.61246 27.954C5.67092 28.0131 5.74052 28.0599 5.81723 28.0918C5.89394 28.1238 5.97623 28.1401 6.05932 28.14C6.14146 28.141 6.22295 28.1253 6.29882 28.0938C6.37469 28.0623 6.44335 28.0157 6.50062 27.9568L9.90895 24.5513C10.0685 24.3933 10.2839 24.3047 10.5085 24.3047C10.733 24.3047 10.9484 24.3933 11.108 24.5513L12.4347 25.8779C12.4687 25.9193 12.5139 25.9499 12.5648 25.9661C12.6158 25.9823 12.6704 25.9834 12.722 25.9694C12.7736 25.9553 12.8201 25.9266 12.8557 25.8867C12.8914 25.8469 12.9148 25.7976 12.9232 25.7447L14.9826 18.0815C14.9963 18.0326 14.9963 17.9808 14.9826 17.9319C14.9689 17.8829 14.942 17.8387 14.9049 17.804C14.8699 17.7673 14.8255 17.741 14.7765 17.7278C14.7276 17.7146 14.676 17.715 14.6273 17.729L6.94748 19.7774C6.89726 19.7895 6.85143 19.8154 6.81515 19.8522C6.77886 19.889 6.75356 19.9352 6.74209 19.9855C6.72805 20.0342 6.72762 20.0858 6.74083 20.1348C6.75404 20.1837 6.78039 20.2281 6.81703 20.2631L8.1354 21.5926C8.21554 21.6713 8.27919 21.7653 8.32264 21.8689C8.36609 21.9726 8.38847 22.0838 8.38847 22.1962C8.38847 22.3086 8.36609 22.4199 8.32264 22.5235C8.27919 22.6272 8.21554 22.7211 8.1354 22.7999L6.96691 23.9656C6.91381 24.0111 6.84551 24.0348 6.77566 24.0322C6.70581 24.0295 6.63955 24.0005 6.59012 23.9511C6.54069 23.9016 6.51173 23.8354 6.50903 23.7655C6.50633 23.6957 6.53009 23.6274 6.57556 23.5743L7.74405 22.4086C7.79727 22.3534 7.8271 22.2798 7.82732 22.2032C7.82725 22.1257 7.79744 22.0512 7.74405 21.995L6.41458 20.6683C6.30972 20.563 6.23444 20.4319 6.19631 20.2882C6.15818 20.1446 6.15855 19.9934 6.19737 19.85C6.23619 19.7065 6.3121 19.5758 6.41746 19.471C6.52283 19.3661 6.65394 19.2909 6.7976 19.2528L8.00495 18.9142V2.67746C8.00495 2.60385 8.03419 2.53325 8.08624 2.4812C8.13829 2.42915 8.20889 2.39991 8.2825 2.39991H21.8436C21.9161 2.39947 21.9858 2.42736 22.0379 2.47762L27.8249 8.10636C27.8514 8.13239 27.8725 8.16349 27.8868 8.19782C27.9011 8.23215 27.9083 8.269 27.9081 8.30619V14.9674C27.9081 15.041 27.8789 15.1116 27.8268 15.1637C27.7748 15.2157 27.7042 15.245 27.6306 15.245C27.557 15.245 27.4864 15.2157 27.4343 15.1637C27.3823 15.1116 27.353 15.041 27.353 14.9674V14.9757ZM23.9558 12.3557H12.5318C12.4582 12.3557 12.3876 12.3849 12.3355 12.437C12.2835 12.489 12.2543 12.5596 12.2543 12.6332C12.2543 12.7068 12.2835 12.7774 12.3355 12.8295C12.3876 12.8815 12.4582 12.9108 12.5318 12.9108H23.9558C24.0294 12.9108 24.1 12.8815 24.1521 12.8295C24.2041 12.7774 24.2334 12.7068 24.2334 12.6332C24.2334 12.5596 24.2041 12.489 24.1521 12.437C24.1 12.3849 24.0294 12.3557 23.9558 12.3557ZM24.2334 15.8611C24.2334 15.7875 24.2041 15.7169 24.1521 15.6649C24.1 15.6128 24.0294 15.5836 23.9558 15.5836H12.5318C12.4582 15.5836 12.3876 15.6128 12.3355 15.6649C12.2835 15.7169 12.2543 15.7875 12.2543 15.8611C12.2543 15.9347 12.2835 16.0053 12.3355 16.0574C12.3876 16.1094 12.4582 16.1387 12.5318 16.1387H23.9558C24.0294 16.1387 24.1 16.1094 24.1521 16.0574C24.2041 16.0053 24.2334 15.9347 24.2334 15.8611ZM23.8198 20.5545H18.5463C18.4727 20.5545 18.4021 20.5838 18.3501 20.6358C18.298 20.6879 18.2688 20.7585 18.2688 20.8321C18.2688 20.9057 18.298 20.9763 18.3501 21.0283C18.4021 21.0804 18.4727 21.1096 18.5463 21.1096H23.8198C23.8934 21.1096 23.964 21.0804 24.0161 21.0283C24.0681 20.9763 24.0974 20.9057 24.0974 20.8321C24.0974 20.7585 24.0681 20.6879 24.0161 20.6358C23.964 20.5838 23.8934 20.5545 23.8198 20.5545ZM23.8198 23.4827H18.5463C18.4727 23.4827 18.4021 23.5119 18.3501 23.564C18.298 23.616 18.2688 23.6866 18.2688 23.7602C18.2688 23.8338 18.298 23.9044 18.3501 23.9565C18.4021 24.0085 18.4727 24.0378 18.5463 24.0378H23.8198C23.8934 24.0378 23.964 24.0085 24.0161 23.9565C24.0681 23.9044 24.0974 23.8338 24.0974 23.7602C24.0974 23.6866 24.0681 23.616 24.0161 23.564C23.964 23.5119 23.8934 23.4827 23.8198 23.4827ZM13.2645 10.8652C12.6885 10.8641 12.1257 10.6923 11.6473 10.3716C11.1688 10.0508 10.7961 9.59543 10.5763 9.06298C10.3565 8.53053 10.2994 7.94488 10.4123 7.38C10.5251 6.81513 10.8028 6.29637 11.2104 5.88924C11.6179 5.48212 12.1369 5.20489 12.7019 5.09258C13.2669 4.98026 13.8525 5.0379 14.3847 5.25822C14.9169 5.47853 15.372 5.85163 15.6923 6.3304C16.0126 6.80916 16.1838 7.37212 16.1844 7.94815C16.1847 8.33156 16.1094 8.71128 15.9628 9.06554C15.8162 9.4198 15.6011 9.74164 15.3298 10.0126C15.0586 10.2836 14.7365 10.4984 14.3821 10.6447C14.0277 10.791 13.648 10.8659 13.2645 10.8652ZM13.2645 10.3101C13.7313 10.3112 14.1878 10.1738 14.5765 9.91541C14.9651 9.65697 15.2683 9.28906 15.4478 8.85824C15.6273 8.42742 15.675 7.95303 15.5848 7.49511C15.4946 7.03718 15.2707 6.61629 14.9412 6.28569C14.6118 5.95508 14.1917 5.72962 13.7341 5.63783C13.2765 5.54604 12.8019 5.59203 12.3705 5.77001C11.939 5.94798 11.5701 6.24992 11.3102 6.63764C11.0504 7.02536 10.9115 7.48143 10.9109 7.94815C10.9109 8.57314 11.1586 9.17266 11.5998 9.61537C12.0409 10.0581 12.6396 10.3079 13.2645 10.3101Z" fill="#6A90D9" stroke="#6A90D9" stroke-width="0.8"/>
</svg>
