<svg width="32" height="32" viewBox="0 0 32 32" fill="none" xmlns="http://www.w3.org/2000/svg">
<path d="M27.353 14.9758V8.81143H21.4856C21.412 8.81143 21.3414 8.78218 21.2893 8.73013C21.2373 8.67808 21.208 8.60749 21.208 8.53388V6.77698C21.208 6.70337 21.2373 6.63277 21.2893 6.58072C21.3414 6.52867 21.412 6.49943 21.4856 6.49943C21.5592 6.49943 21.6298 6.52867 21.6819 6.58072C21.7339 6.63277 21.7632 6.70337 21.7632 6.77698V8.25632H27.1837L21.7632 2.98563V5.31428C21.7632 5.3879 21.7339 5.45849 21.6819 5.51054C21.6298 5.56259 21.5592 5.59184 21.4856 5.59184C21.412 5.59184 21.3414 5.56259 21.2893 5.51054C21.2373 5.45849 21.208 5.3879 21.208 5.31428V2.9551H8.56005V18.7755L14.4774 17.1935C14.6208 17.153 14.7724 17.1518 14.9164 17.1898C15.0604 17.2279 15.1916 17.3039 15.2962 17.41C15.4057 17.5153 15.4842 17.6486 15.5233 17.7953C15.5625 17.9421 15.5607 18.0968 15.5183 18.2426L13.4616 25.8891C13.4238 26.0333 13.3486 26.165 13.2435 26.2708C13.1385 26.3766 13.0074 26.4528 12.8635 26.4917C12.7195 26.5305 12.5679 26.5307 12.4239 26.4922C12.2799 26.4536 12.1486 26.3777 12.0433 26.2722L10.7138 24.9455C10.6588 24.8911 10.5845 24.8605 10.5071 24.8605C10.4297 24.8605 10.3554 24.8911 10.3003 24.9455L8.56005 26.6857V29.0449H27.353V16.4385C27.353 16.3649 27.3823 16.2943 27.4343 16.2423C27.4864 16.1902 27.557 16.161 27.6306 16.161C27.7042 16.161 27.7748 16.1902 27.8268 16.2423C27.8789 16.2943 27.9081 16.3649 27.9081 16.4385V29.3224C27.9081 29.3961 27.8789 29.4667 27.8268 29.5187C27.7748 29.5708 27.7042 29.6 27.6306 29.6H8.2825C8.20889 29.6 8.13829 29.5708 8.08624 29.5187C8.03419 29.4667 8.00495 29.3961 8.00495 29.3224V27.2408L6.89475 28.351C6.78568 28.4609 6.65597 28.5481 6.51307 28.6076C6.37017 28.6672 6.2169 28.6979 6.06209 28.698C5.906 28.6982 5.75138 28.6677 5.60708 28.6082C5.46278 28.5486 5.33162 28.4613 5.22111 28.351L4.34405 27.4712C4.12372 27.2501 4 26.9507 4 26.6385C4 26.3264 4.12372 26.027 4.34405 25.8059L5.11842 25.0204C5.17042 24.9687 5.24077 24.9397 5.31409 24.9397C5.38742 24.9397 5.45776 24.9687 5.50977 25.0204C5.53578 25.0462 5.55643 25.0769 5.57052 25.1107C5.58461 25.1445 5.59187 25.1808 5.59187 25.2175C5.59187 25.2541 5.58461 25.2904 5.57052 25.3242C5.55643 25.358 5.53578 25.3887 5.50977 25.4145L4.7354 26.1917C4.61811 26.3097 4.55228 26.4694 4.55228 26.6358C4.55228 26.8022 4.61811 26.9618 4.7354 27.0798L5.61246 27.9541C5.67092 28.0132 5.74052 28.06 5.81723 28.0919C5.89394 28.1239 5.97623 28.1402 6.05932 28.1401C6.14146 28.1411 6.22295 28.1254 6.29882 28.0939C6.37469 28.0624 6.44335 28.0158 6.50062 27.9569L9.90895 24.5513C10.0685 24.3934 10.2839 24.3048 10.5085 24.3048C10.733 24.3048 10.9484 24.3934 11.108 24.5513L12.4347 25.878C12.4687 25.9193 12.5139 25.9499 12.5648 25.9662C12.6158 25.9824 12.6704 25.9835 12.722 25.9694C12.7736 25.9554 12.8201 25.9267 12.8557 25.8868C12.8914 25.847 12.9148 25.7977 12.9232 25.7448L14.9826 18.0816C14.9963 18.0327 14.9963 17.9809 14.9826 17.932C14.9689 17.883 14.942 17.8388 14.9049 17.8041C14.8699 17.7674 14.8255 17.7411 14.7765 17.7279C14.7276 17.7147 14.676 17.7151 14.6273 17.7291L6.94748 19.7775C6.89726 19.7896 6.85143 19.8155 6.81515 19.8523C6.77886 19.8891 6.75356 19.9353 6.74209 19.9856C6.72805 20.0343 6.72762 20.0859 6.74083 20.1349C6.75404 20.1838 6.78039 20.2282 6.81703 20.2632L8.1354 21.5926C8.21554 21.6714 8.27919 21.7654 8.32264 21.869C8.36609 21.9727 8.38847 22.0839 8.38847 22.1963C8.38847 22.3087 8.36609 22.42 8.32264 22.5236C8.27919 22.6273 8.21554 22.7212 8.1354 22.8L6.96691 23.9657C6.91381 24.0112 6.84551 24.0349 6.77566 24.0322C6.70581 24.0295 6.63955 24.0006 6.59012 23.9512C6.54069 23.9017 6.51173 23.8355 6.50903 23.7656C6.50633 23.6958 6.53009 23.6275 6.57556 23.5744L7.74405 22.4086C7.79727 22.3535 7.8271 22.2799 7.82732 22.2033C7.82725 22.1258 7.79744 22.0513 7.74405 21.9951L6.41458 20.6684C6.30972 20.5631 6.23444 20.432 6.19631 20.2883C6.15818 20.1447 6.15855 19.9935 6.19737 19.8501C6.23619 19.7066 6.3121 19.5759 6.41746 19.471C6.52283 19.3662 6.65394 19.291 6.7976 19.2529L8.00495 18.9143V2.67755C8.00495 2.60394 8.03419 2.53334 8.08624 2.48129C8.13829 2.42924 8.20889 2.4 8.2825 2.4H21.8436C21.9161 2.39956 21.9858 2.42745 22.0379 2.47771L27.8249 8.10645C27.8514 8.13248 27.8725 8.16358 27.8868 8.19791C27.9011 8.23224 27.9083 8.26909 27.9081 8.30628V14.9675C27.9081 15.0411 27.8789 15.1117 27.8268 15.1638C27.7748 15.2158 27.7042 15.2451 27.6306 15.2451C27.557 15.2451 27.4864 15.2158 27.4343 15.1638C27.3823 15.1117 27.353 15.0411 27.353 14.9675V14.9758ZM23.9558 12.3558H12.5318C12.4582 12.3558 12.3876 12.385 12.3355 12.437C12.2835 12.4891 12.2543 12.5597 12.2543 12.6333C12.2543 12.7069 12.2835 12.7775 12.3355 12.8296C12.3876 12.8816 12.4582 12.9109 12.5318 12.9109H23.9558C24.0294 12.9109 24.1 12.8816 24.1521 12.8296C24.2041 12.7775 24.2334 12.7069 24.2334 12.6333C24.2334 12.5597 24.2041 12.4891 24.1521 12.437C24.1 12.385 24.0294 12.3558 23.9558 12.3558ZM24.2334 15.8612C24.2334 15.7876 24.2041 15.717 24.1521 15.665C24.1 15.6129 24.0294 15.5837 23.9558 15.5837H12.5318C12.4582 15.5837 12.3876 15.6129 12.3355 15.665C12.2835 15.717 12.2543 15.7876 12.2543 15.8612C12.2543 15.9348 12.2835 16.0054 12.3355 16.0575C12.3876 16.1095 12.4582 16.1388 12.5318 16.1388H23.9558C24.0294 16.1388 24.1 16.1095 24.1521 16.0575C24.2041 16.0054 24.2334 15.9348 24.2334 15.8612ZM23.8198 20.5546H18.5463C18.4727 20.5546 18.4021 20.5839 18.3501 20.6359C18.298 20.688 18.2688 20.7585 18.2688 20.8322C18.2688 20.9058 18.298 20.9764 18.3501 21.0284C18.4021 21.0805 18.4727 21.1097 18.5463 21.1097H23.8198C23.8934 21.1097 23.964 21.0805 24.0161 21.0284C24.0681 20.9764 24.0974 20.9058 24.0974 20.8322C24.0974 20.7585 24.0681 20.688 24.0161 20.6359C23.964 20.5839 23.8934 20.5546 23.8198 20.5546ZM23.8198 23.4828H18.5463C18.4727 23.4828 18.4021 23.512 18.3501 23.5641C18.298 23.6161 18.2688 23.6867 18.2688 23.7603C18.2688 23.8339 18.298 23.9045 18.3501 23.9566C18.4021 24.0086 18.4727 24.0379 18.5463 24.0379H23.8198C23.8934 24.0379 23.964 24.0086 24.0161 23.9566C24.0681 23.9045 24.0974 23.8339 24.0974 23.7603C24.0974 23.6867 24.0681 23.6161 24.0161 23.5641C23.964 23.512 23.8934 23.4828 23.8198 23.4828ZM13.2645 10.8653C12.6885 10.8642 12.1257 10.6924 11.6473 10.3717C11.1688 10.0509 10.7961 9.59552 10.5763 9.06307C10.3565 8.53062 10.2994 7.94497 10.4123 7.38009C10.5251 6.81522 10.8028 6.29646 11.2104 5.88933C11.6179 5.48221 12.1369 5.20498 12.7019 5.09267C13.2669 4.98036 13.8525 5.038 14.3847 5.25831C14.9169 5.47862 15.372 5.85172 15.6923 6.33049C16.0126 6.80925 16.1838 7.37221 16.1844 7.94824C16.1847 8.33165 16.1094 8.71137 15.9628 9.06563C15.8162 9.41989 15.6011 9.74173 15.3298 10.0127C15.0586 10.2837 14.7365 10.4985 14.3821 10.6448C14.0277 10.7911 13.648 10.866 13.2645 10.8653ZM13.2645 10.3102C13.7313 10.3113 14.1878 10.1739 14.5765 9.9155C14.9651 9.65706 15.2683 9.28916 15.4478 8.85833C15.6273 8.42751 15.675 7.95312 15.5848 7.4952C15.4946 7.03727 15.2707 6.61638 14.9412 6.28578C14.6118 5.95518 14.1917 5.72971 13.7341 5.63792C13.2765 5.54613 12.8019 5.59213 12.3705 5.7701C11.939 5.94807 11.5701 6.25001 11.3102 6.63773C11.0504 7.02545 10.9115 7.48152 10.9109 7.94824C10.9109 8.57323 11.1586 9.17275 11.5998 9.61546C12.0409 10.0582 12.6396 10.308 13.2645 10.3102Z" fill="#6A90D9" stroke="#6A90D9" stroke-width="0.8"/>
</svg>
