<svg width="32" height="32" viewBox="0 0 32 32" fill="none" xmlns="http://www.w3.org/2000/svg">
<path fill-rule="evenodd" clip-rule="evenodd" d="M2.3999 15.9998C2.3999 23.4798 8.5199 29.5998 15.9999 29.5998C22.3919 29.5998 27.9679 25.1118 29.3279 18.8558C29.3279 18.4478 29.1919 18.1758 28.7839 18.0398C28.3759 18.0398 28.1039 18.1758 27.9679 18.5838C26.7439 24.1598 21.7119 28.2398 15.9999 28.2398C9.1999 28.2398 3.7599 22.7998 3.7599 15.9998C3.7599 9.19984 9.1999 3.75984 15.9999 3.75984C21.7119 3.75984 26.7439 7.83984 27.9679 13.4158C28.1039 13.8238 28.3759 14.0958 28.7839 13.9598C29.1919 13.8238 29.4639 13.5518 29.3279 13.1438C27.9679 6.88784 22.3919 2.39984 15.9999 2.39984C8.5199 2.39984 2.3999 8.51984 2.3999 15.9998ZM5.39187 13.8242C5.39187 14.2322 5.52787 14.5042 6.07187 14.6402C6.34387 14.6402 6.61587 14.3682 6.75187 14.0962C7.56787 9.74415 11.5119 6.48015 15.9999 6.48015C18.9919 6.48015 21.8479 7.84015 23.6159 10.2882C23.8879 10.5602 24.2959 10.6962 24.5679 10.4242C24.8399 10.1522 24.9759 9.74415 24.7039 9.47215C22.6639 6.75215 19.3999 5.12015 15.9999 5.12015C10.8319 5.12015 6.34387 8.79215 5.39187 13.8242ZM15.9999 26.8798C12.5999 26.8798 9.33588 25.2478 7.29588 22.5278C6.34388 21.3038 5.66388 19.8078 5.39188 18.1758C5.25588 17.7678 5.52788 17.4958 5.93588 17.3598C6.34388 17.2238 6.61588 17.4958 6.75188 17.9038C6.88788 18.9918 7.29588 20.0798 7.83988 21.0318C9.87988 18.7198 12.8719 17.3598 15.9999 17.3598C19.3999 17.3598 22.6639 18.9918 24.7039 21.7118C24.8399 21.9838 24.8399 22.2558 24.7039 22.5278C22.6639 25.2478 19.3999 26.8798 15.9999 26.8798ZM8.79188 22.1198C10.5599 24.2958 13.1439 25.5198 15.9999 25.5198C18.8559 25.5198 21.4399 24.2958 23.3439 22.1198C21.4399 19.9438 18.8559 18.7198 15.9999 18.7198C13.1439 18.7198 10.5599 19.9438 8.79188 22.1198ZM11.9199 11.9197C11.9199 14.2317 13.6879 15.9997 15.9999 15.9997C18.3119 15.9997 20.0799 14.2317 20.0799 11.9197C20.0799 9.60768 18.3119 7.83968 15.9999 7.83968C13.6879 7.83968 11.9199 9.60768 11.9199 11.9197ZM13.2799 11.9197C13.2799 10.4237 14.5039 9.19968 15.9999 9.19968C17.4959 9.19968 18.7199 10.4237 18.7199 11.9197C18.7199 13.4157 17.4959 14.6397 15.9999 14.6397C14.5039 14.6397 13.2799 13.4157 13.2799 11.9197ZM5.79993 16.6802C6.17549 16.6802 6.47993 16.3757 6.47993 16.0002C6.47993 15.6246 6.17549 15.3202 5.79993 15.3202C5.42438 15.3202 5.11993 15.6246 5.11993 16.0002C5.11993 16.3757 5.42438 16.6802 5.79993 16.6802ZM26.1999 15.3198H28.9199C29.3279 15.3198 29.5999 15.5918 29.5999 15.9998C29.5999 16.4078 29.3279 16.6798 28.9199 16.6798H26.1999V19.3998C26.1999 19.8078 25.9279 20.0798 25.5199 20.0798C25.1119 20.0798 24.8399 19.8078 24.8399 19.3998V16.6798H22.1199C21.7119 16.6798 21.4399 16.4078 21.4399 15.9998C21.4399 15.5918 21.7119 15.3198 22.1199 15.3198H24.8399V12.5998C24.8399 12.1918 25.1119 11.9198 25.5199 11.9198C25.9279 11.9198 26.1999 12.1918 26.1999 12.5998V15.3198Z" fill="#6A90D9"/>
</svg>
