<svg width="32" height="32" viewBox="0 0 32 32" fill="none" xmlns="http://www.w3.org/2000/svg">
<path fill-rule="evenodd" clip-rule="evenodd" d="M23.8982 27.7929H9.39784C9.19078 27.7929 9.02137 27.6298 9.02137 27.4227C9.02137 27.2157 9.19078 27.0525 9.39784 27.0525H23.8982C24.1053 27.0525 24.2684 27.2157 24.2684 27.4227C24.2684 27.6298 24.1053 27.7929 23.8982 27.7929ZM26.1822 29.6H7.10765C6.90059 29.6 6.73745 29.4369 6.73745 29.2298V28.1129H5.57039C5.36333 28.1129 5.2002 27.9498 5.2002 27.7427V2.77019C5.2002 2.56313 5.36333 2.39999 5.57039 2.39999H18.5335C18.7406 2.39999 18.9037 2.56313 18.9037 2.77019V3.88705H20.052C20.1461 3.88078 20.2465 3.91215 20.3155 3.9749L20.3218 3.98117L26.4269 9.39607L26.4331 9.40235L26.4394 9.40862L26.4457 9.4149L26.452 9.42117L26.4582 9.42745C26.5147 9.49019 26.5524 9.57803 26.5524 9.67843V29.2298C26.5524 29.4369 26.3892 29.6 26.1822 29.6ZM6.73745 27.3663V4.25725C6.73745 4.05019 6.90059 3.88705 7.10765 3.88705H18.1633V3.14666H5.94059V27.3663H6.73745ZM20.4473 5.08548V9.30823H25.2033L20.4473 5.08548ZM7.48412 28.8533H25.812V10.0486H20.0708C19.8637 10.0486 19.7006 9.88548 19.7006 9.67843V4.63372H18.5398H18.5335H18.5273H7.48412V27.7365V27.7427V28.8533ZM18.3202 21.3114H14.9759C14.7688 21.3114 14.5994 21.1482 14.5994 20.9412V12.9725H12.7422C12.5916 12.9725 12.4598 12.8847 12.4033 12.7467C12.3406 12.6149 12.372 12.458 12.4661 12.3514L16.3939 8.04705C16.4629 7.96548 16.5696 7.92784 16.67 7.92784C16.7767 7.92784 16.8771 7.96548 16.9461 8.04705L20.83 12.3514C20.9304 12.4643 20.9492 12.6149 20.8927 12.7467C20.83 12.8784 20.6982 12.9725 20.5539 12.9725H18.6904V20.9412C18.6904 21.1482 18.5273 21.3114 18.3202 21.3114ZM15.3461 20.571H17.95V12.6023C17.95 12.3953 18.1131 12.2259 18.3202 12.2259H19.7194L16.67 8.85019L13.5892 12.2259H14.9759C15.1829 12.2259 15.3461 12.3953 15.3461 12.6023V20.571ZM23.8982 23.2753H9.39784C9.19078 23.2753 9.02137 23.1122 9.02137 22.9051C9.02137 22.698 9.19078 22.5349 9.39784 22.5349H23.8982C24.1053 22.5349 24.2684 22.698 24.2684 22.9051C24.2684 23.1122 24.1053 23.2753 23.8982 23.2753ZM23.8982 25.509H9.39784C9.19078 25.509 9.02137 25.3459 9.02137 25.1388C9.02137 24.9318 9.19078 24.7623 9.39784 24.7623H23.8982C24.1053 24.7623 24.2684 24.9318 24.2684 25.1388C24.2684 25.3459 24.1053 25.509 23.8982 25.509Z" fill="#6A90D9" stroke="#6A90D9" stroke-width="0.3"/>
</svg>
