<svg width="32" height="32" viewBox="0 0 32 32" fill="none" xmlns="http://www.w3.org/2000/svg">
<path fill-rule="evenodd" clip-rule="evenodd" d="M20.0934 29.6H20.0927H20.0921H20.0914H12.0502H12.0495H12.0489H12.0482H9.94495C9.73936 29.6 9.57306 29.4337 9.57306 29.2281C9.57306 29.0225 9.73935 28.8562 9.94495 28.8562H12.0236C12.9938 28.7407 13.6853 28.3792 14.0775 27.7805C14.6203 26.9531 14.4883 25.8541 14.3887 25.3574H6.63474C5.62325 25.3574 4.7998 24.5345 4.7998 23.5225V10.5026C4.7998 9.49113 5.62271 8.66768 6.63474 8.66768H9.57308L9.57309 2.77188C9.57309 2.56629 9.73936 2.39999 9.94497 2.39999H18.7632C18.7823 2.39999 18.8012 2.40147 18.8198 2.40433L18.8227 2.40478L18.8237 2.40495C18.8991 2.41712 18.9706 2.45236 19.0272 2.50892L22.4601 5.94185C22.5386 6.02029 22.5763 6.12762 22.568 6.23393V8.66767L25.5063 8.66768C26.5178 8.66768 27.3413 9.4906 27.3413 10.5026V21.7471C27.3416 21.7538 27.3418 21.7605 27.3418 21.7672C27.3418 21.774 27.3416 21.7807 27.3413 21.7873V23.5225C27.3418 24.5345 26.5184 25.3574 25.5069 25.3574H17.7535C17.6539 25.8539 17.5215 26.9534 18.064 27.781C18.4558 28.3783 19.1459 28.7402 20.1139 28.8562H22.1961C22.4017 28.8562 22.568 29.0225 22.568 29.2281C22.568 29.4337 22.4017 29.6 22.1966 29.6H20.0934ZM14.6646 24.6137C14.6763 24.6131 14.688 24.6131 14.6996 24.6137H17.4505C17.4568 24.6135 17.463 24.6135 17.4692 24.6137H25.5063C26.1082 24.6137 26.5975 24.1244 26.5975 23.5225V22.1391H5.54348V23.5225C5.54348 24.1244 6.03277 24.6137 6.63468 24.6137H14.6646ZM15.1464 25.3574C15.2595 26.0115 15.3399 27.2078 14.7023 28.1837C14.5338 28.4418 14.3277 28.6661 14.0852 28.8562L18.0558 28.8562C17.8135 28.6662 17.6077 28.4421 17.4393 28.1842C16.8016 27.208 16.8822 26.0114 16.9954 25.3574H15.1464ZM9.57308 9.41153L6.63474 9.41151C6.03336 9.41151 5.54354 9.9008 5.54354 10.5027V21.3954L26.5976 21.3954V10.5027C26.5976 9.90133 26.1083 9.41151 25.5064 9.41151H22.568V18.5235C22.5686 18.7291 22.4018 18.8954 22.1967 18.8954H9.94502C9.73943 18.8954 9.57312 18.7291 9.57312 18.5235L9.57308 9.41153ZM16.7657 23.7483H15.1198C14.9143 23.7483 14.748 23.5821 14.748 23.3765C14.748 23.1709 14.9142 23.0046 15.1198 23.0046L16.7657 23.0046C16.9713 23.0046 17.1376 23.1709 17.1376 23.3765C17.1376 23.5821 16.9713 23.7483 16.7657 23.7483ZM10.3168 18.1516H21.8242V9.03963V6.53832L19.7295 6.30903C19.1526 6.24581 18.7228 5.81603 18.6601 5.23909L18.4308 3.14382H10.3168V9.03965V18.1516ZM21.1851 5.71978L19.2483 3.78299L19.3985 5.15833C19.424 5.39048 19.5776 5.54401 19.8097 5.56951L21.1851 5.71978ZM17.4532 8.75817C17.2799 8.52488 17.0065 8.38303 16.7073 8.38303L16.6934 8.383C16.5006 8.47756 16.287 8.52697 16.0708 8.52697C15.8541 8.52697 15.641 8.47756 15.4482 8.383H15.4344C15.1355 8.383 14.8619 8.52488 14.6884 8.75822C15.0566 9.08511 15.5408 9.28402 16.0708 9.28402C16.6006 9.28402 17.0849 9.08511 17.4532 8.75817ZM13.9723 9.09305C13.9562 9.07778 13.9416 9.0612 13.9286 9.04354C13.5012 8.54796 13.2424 7.9031 13.2424 7.19885C13.2424 5.63964 14.5111 4.37048 16.0708 4.37048C17.63 4.37048 18.8992 5.63911 18.8992 7.19885C18.8992 7.90044 18.6423 8.54304 18.2178 9.03787C18.2027 9.05936 18.1852 9.07933 18.1655 9.09736C17.6476 9.6682 16.9002 10.0272 16.0708 10.0272C15.2393 10.0272 14.4904 9.66636 13.9723 9.09305ZM14.2212 8.15993C14.5311 7.83296 14.9652 7.63925 15.4344 7.63925L15.5411 7.63926C15.6076 7.63926 15.6729 7.65734 15.7303 7.6908C15.9359 7.81192 16.2063 7.81192 16.4119 7.6908C16.4692 7.65678 16.5346 7.63926 16.601 7.63926H16.7078C17.1767 7.63926 17.6107 7.83284 17.9207 8.1596C18.0706 7.87208 18.1554 7.54548 18.1554 7.19938C18.1554 6.04976 17.2199 5.11476 16.0708 5.11476C14.9217 5.11476 13.9862 6.04976 13.9862 7.19938C13.9862 7.54554 14.0711 7.87231 14.2212 8.15993ZM16.0708 7.54947C15.454 7.54947 14.952 7.04745 14.952 6.43066C14.952 5.81389 15.454 5.31186 16.0708 5.31186C16.6876 5.31186 17.1896 5.81389 17.1896 6.43066C17.1896 7.04745 16.6876 7.54947 16.0708 7.54947ZM16.0708 6.05561C15.8641 6.05561 15.6957 6.22402 15.6957 6.43066C15.6957 6.63732 15.8641 6.80573 16.0708 6.80573C16.2774 6.80573 16.4459 6.63732 16.4459 6.43066C16.4459 6.22402 16.2774 6.05561 16.0708 6.05561ZM17.9727 11.5934H11.8134C11.6078 11.5934 11.4415 11.4271 11.4415 11.2215C11.4415 11.0159 11.6077 10.8496 11.8134 10.8496L17.9727 10.8496C18.1783 10.8496 18.3446 11.0159 18.3446 11.2215C18.3446 11.4271 18.1777 11.5934 17.9727 11.5934ZM20.3282 11.5934H19.1505C18.9449 11.5934 18.7786 11.4271 18.7786 11.2215C18.7786 11.0159 18.9448 10.8496 19.1505 10.8496L20.3282 10.8496C20.5338 10.8496 20.7001 11.0159 20.7001 11.2215C20.7001 11.4271 20.5338 11.5934 20.3282 11.5934ZM17.9727 13.3173H11.8134C11.6078 13.3173 11.4415 13.151 11.4415 12.9454C11.4415 12.7398 11.6077 12.5735 11.8134 12.5735L17.9727 12.5735C18.1783 12.5735 18.3446 12.7398 18.3446 12.9454C18.3446 13.151 18.1777 13.3173 17.9727 13.3173ZM20.3282 13.3173H19.1505C18.9449 13.3173 18.7786 13.151 18.7786 12.9454C18.7786 12.7398 18.9448 12.5735 19.1505 12.5735L20.3282 12.5735C20.5338 12.5735 20.7001 12.7398 20.7001 12.9454C20.7001 13.151 20.5338 13.3173 20.3282 13.3173ZM17.9727 15.0417H11.8134C11.6078 15.0417 11.4415 14.8754 11.4415 14.6698C11.4415 14.4642 11.6077 14.2979 11.8134 14.2979L17.9727 14.298C18.1783 14.298 18.3446 14.4642 18.3446 14.6698C18.3446 14.8754 18.1777 15.0417 17.9727 15.0417ZM20.3282 15.0417H19.1505C18.9449 15.0417 18.7786 14.8754 18.7786 14.6698C18.7786 14.4642 18.9448 14.2979 19.1505 14.2979L20.3282 14.298C20.5338 14.298 20.7001 14.4642 20.7001 14.6698C20.7001 14.8754 20.5338 15.0417 20.3282 15.0417ZM17.9727 16.7661H11.8134C11.6078 16.7661 11.4415 16.5999 11.4415 16.3943C11.4415 16.1886 11.6077 16.0224 11.8134 16.0224H17.9727C18.1783 16.0224 18.3446 16.1886 18.3446 16.3943C18.3446 16.5999 18.1777 16.7661 17.9727 16.7661ZM20.3282 16.7661H19.1505C18.9449 16.7661 18.7786 16.5999 18.7786 16.3943C18.7786 16.1886 18.9448 16.0224 19.1505 16.0224H20.3282C20.5338 16.0224 20.7001 16.1886 20.7001 16.3943C20.7001 16.5999 20.5338 16.7661 20.3282 16.7661Z" fill="#6A90D9" stroke="#6A90D9" stroke-width="0.3"/>
</svg>
