<svg width="65" height="24" viewBox="0 0 65 24" fill="none" xmlns="http://www.w3.org/2000/svg">
<path fill-rule="evenodd" clip-rule="evenodd" d="M22.3861 0.519034C23.1897 0.359075 24.432 0.164165 25.2655 0.0672144C26.2403 -0.046132 26.2577 -0.0223907 25.3528 0.186165C24.0676 0.482412 22.3317 1.02332 21.1021 1.51071C18.1505 2.68062 16.4793 3.95818 15.9815 5.42507C15.8641 5.77099 15.847 6.35934 15.9427 6.75821C15.9832 6.92726 16.0164 7.17578 16.0164 7.3105C16.0164 7.87817 15.6392 8.17703 14.7911 8.28132C13.4302 8.4487 10.4957 7.80889 7.07761 6.59947C6.25266 6.30758 6.02164 6.19228 6.61889 6.37055C7.58823 6.65987 8.85935 6.92009 9.83864 7.02967C10.4335 7.09623 11.6531 7.08854 12.1248 7.01519C13.9135 6.73715 14.8789 5.95813 15.2511 4.49264C15.4209 3.82394 15.6347 3.46514 16.1536 2.97826C17.236 1.96267 19.3765 1.11807 22.3861 0.519034ZM6.8075 3.21509C7.85133 2.71728 9.61568 2.29199 11.4092 2.10582C11.4764 2.09885 11.5536 2.09064 11.5809 2.08758C11.6081 2.08451 11.6197 2.09255 11.6068 2.10547C11.5938 2.11835 11.3203 2.19539 10.9989 2.27667C10.18 2.48377 9.46319 2.71098 8.79205 2.97625C6.86554 3.73771 5.85609 4.55711 5.68193 5.50078C5.64455 5.70318 5.64717 5.77398 5.70148 6.03208C5.79994 6.50001 5.74147 6.71602 5.48047 6.84883C4.86912 7.1599 3.30804 6.922 1.0643 6.17578C0.0810995 5.84879 -0.0204326 5.81175 0.00284727 5.78853C0.011887 5.77955 0.148111 5.81064 0.305556 5.85767C1.40523 6.18594 2.6746 6.32951 3.43983 6.21209C4.47769 6.05289 5.02091 5.62878 5.26684 4.78572C5.39133 4.35889 5.48037 4.19622 5.73313 3.93367C5.99787 3.65869 6.2974 3.45835 6.8075 3.21509ZM20.7842 5.70969C21.8262 5.18918 22.9574 4.93415 24.742 4.81743C25.2793 4.78231 27.1708 4.85934 27.3597 4.92406C27.3885 4.93394 27.1764 5.01008 26.8885 5.09324C24.8795 5.67355 23.1115 6.51767 21.7578 7.54283C21.2873 7.89916 20.521 8.67055 20.2316 9.07914C19.9621 9.4597 19.6517 10.0583 19.5277 10.4368C19.3681 10.9239 19.3249 11.2215 19.2978 12.0207C19.279 12.5748 19.2569 12.8264 19.2177 12.9306C19.03 13.4292 18.6933 13.743 18.1236 13.9498C16.6419 14.4879 13.7808 14.0852 9.82119 12.7813C8.20465 12.2489 5.88555 11.3742 5.94188 11.318C5.95187 11.308 6.08275 11.3403 6.23276 11.3897C7.32992 11.7508 9.0859 12.1364 10.3622 12.2964C11.5494 12.4452 12.8857 12.4755 13.7393 12.3729C15.8485 12.1194 17.2312 11.32 17.931 9.94943C18.1423 9.53552 18.2263 9.30231 18.3383 8.81805C18.4603 8.29055 18.5474 8.03479 18.7293 7.66927C19.1524 6.81913 19.8007 6.20095 20.7842 5.70969ZM41.5466 8.71257C41.8612 6.77802 43.1976 5.44018 45.0727 5.18281C45.207 5.16436 45.5526 5.15496 45.8405 5.16189C46.8802 5.18696 47.6265 5.42688 48.6743 6.07284C49.389 6.51349 49.6656 6.59286 49.9262 6.43213C50.0298 6.36832 50.2204 6.06637 50.221 5.96538C50.2211 5.94519 50.2375 5.86996 50.2575 5.79814C50.2938 5.66767 50.294 5.6676 50.4842 5.6676H50.6745V8.03479V10.402H50.4847H50.2949L50.2736 10.2366C50.1482 9.26207 49.9636 8.59884 49.6364 7.94776C48.8576 6.39774 47.4868 5.55686 45.7358 5.55481C45.0623 5.55401 44.6335 5.648 44.0954 5.91431C43.5336 6.19235 43.1101 6.62468 42.8196 7.21672C42.546 7.77433 42.4902 8.05738 42.49 8.88767C42.4899 9.6451 42.5224 9.84715 42.7062 10.2279C42.8421 10.5093 43.2274 10.8767 43.5719 11.0532C44.2106 11.3805 44.9931 11.5925 46.8876 11.9515C48.8501 12.3233 49.7899 12.6999 50.5292 13.4107C51.2092 14.0644 51.5158 14.8956 51.5701 16.2329C51.6698 18.6848 50.6438 20.5668 48.8076 21.3001C48.0167 21.6159 46.9835 21.7448 46.0382 21.6455C45.2852 21.5664 44.6724 21.3876 43.7464 20.977C42.7278 20.5253 42.422 20.4484 42.167 20.5799C42.0189 20.6563 41.9082 20.9003 41.8869 21.1973L41.8697 21.4373H41.6824H41.4952V18.6001V15.763H41.6871H41.8791V16.003C41.8791 16.135 41.8957 16.4052 41.9161 16.6035C42.0619 18.024 42.5419 19.1373 43.3624 19.9586C44.1332 20.7301 45.1099 21.1575 46.347 21.2646C48.0153 21.4091 49.4826 20.6959 50.1106 19.4354C50.3894 18.8759 50.4886 18.3553 50.4524 17.6428C50.4065 16.7395 50.1722 16.1229 49.6993 15.6605C49.3991 15.367 49.1829 15.227 48.7305 15.0333C48.1935 14.8033 47.6472 14.6695 46.3815 14.4581C44.1643 14.0879 43.1471 13.7047 42.4639 12.9823C41.964 12.4538 41.677 11.7615 41.5486 10.7744C41.4789 10.2389 41.4779 9.13511 41.5466 8.71257ZM33.9562 5.91128V5.70241V5.49354H37.1673H40.3783V5.70241V5.91128H39.3487H38.319V13.4132V20.9151H39.3487H40.3783V21.1239V21.3328H37.1673H33.9562V21.1239V20.9151H34.9684H35.9806V13.4132V5.91128H34.9684H33.9562ZM51.8961 5.91128V5.70008V5.48891L55.7266 5.5035C59.6935 5.51861 59.7088 5.51913 60.4821 5.67216C62.2503 6.02209 63.5379 7.01025 63.9103 8.30315C63.9756 8.52998 63.9884 8.6598 63.9884 9.09654C63.9884 9.66 63.9441 9.98277 63.8072 10.4194C63.3587 11.8491 62.1158 12.6532 60.0022 12.8812C59.7863 12.9044 59.6095 12.9336 59.6095 12.946C59.6095 12.9583 59.7312 12.9794 59.88 12.9928C60.2286 13.0241 60.787 13.1318 61.1728 13.242C63.2452 13.8341 64.34 15.0506 64.416 16.8456C64.4608 17.9046 64.2109 18.7854 63.6581 19.5172C63.1086 20.2446 62.176 20.8413 61.1771 21.1048C61.0208 21.146 60.9045 21.1789 60.7867 21.2053C60.2891 21.3167 59.7649 21.3112 56.0757 21.3229L51.8961 21.3362V21.1257V20.9151H52.9606H54.0252V13.4132V5.91128H52.9606H51.8961ZM56.3636 12.7438V9.32369V5.90359L57.3671 5.92092C58.4462 5.93955 58.6897 5.97116 59.2904 6.1707C60.4122 6.54332 61.2271 7.36233 61.5504 8.44219C61.7352 9.05943 61.6941 10.0847 61.4558 10.8023C61.1722 11.6562 60.5837 12.2239 59.6936 12.5022C59.1827 12.6619 58.778 12.7034 57.5241 12.7244L56.3636 12.7438ZM56.3636 20.9151V17.012V13.1089L57.3496 13.1267C58.3652 13.145 58.622 13.1731 59.1862 13.3275C60.6127 13.7178 61.482 14.6324 61.7635 16.039C61.842 16.4312 61.8412 17.4167 61.762 17.8869C61.4703 19.6188 60.5651 20.595 59.0029 20.8621C58.7677 20.9023 58.4121 20.9151 57.5283 20.9151H56.3636Z" fill="white"/>
<path d="M28.3195 8.85669C26.4498 9.20773 24.6374 9.96446 23.0555 11.0545C22.0209 11.7675 21.147 12.6123 20.2558 13.7612C19.1693 15.162 17.5645 15.9589 15.1962 16.2736C14.6245 16.3496 12.5134 16.3617 11.8106 16.293C10.8906 16.2031 9.58881 16.0066 8.75373 15.8316C8.47699 15.7736 8.1799 15.7119 8.09352 15.6944C8.00713 15.677 7.74051 15.6148 7.50105 15.5562C7.26158 15.4976 7.04648 15.4497 7.02302 15.4497C6.86544 15.4497 7.65776 17.1968 8.22416 18.0982C8.587 18.6758 9.17207 19.4592 9.21888 19.4304C9.2401 19.4173 9.24593 19.4238 9.23245 19.4455C9.21947 19.4665 9.26024 19.5432 9.32306 19.616L9.55764 19.8879C9.83798 20.2128 10.7233 21.0644 11.0889 21.3609C12.8026 22.7505 14.6652 23.6001 16.6892 23.9152C17.3647 24.0204 18.8909 24.0294 19.6113 23.9325C21.8155 23.6359 23.7446 22.8163 25.4575 21.4488C25.9149 21.0836 26.7218 20.2917 27.088 19.8487C28.5208 18.1149 29.4036 16.0693 29.6801 13.8422C29.7529 13.2552 29.7525 11.6187 29.6794 11.0295C29.5721 10.1654 29.3043 9.02521 29.1679 8.85234C29.0801 8.74091 28.9322 8.74167 28.3195 8.85669Z" fill="white"/>
</svg>
