<svg width="201" height="24" viewBox="0 0 201 24" fill="none" xmlns="http://www.w3.org/2000/svg">
<path fill-rule="evenodd" clip-rule="evenodd" d="M0.421021 12V24H21.0856H41.7503V12V0H21.0856H0.421021V12ZM8.16518 6.15491C7.45128 5.79855 7.17211 4.37018 7.71719 3.86218C7.86964 3.71964 8.44006 3.65127 8.98436 3.71055C9.69514 3.788 10.0114 4.068 10.108 4.70691C10.2816 5.85382 9.19101 6.66691 8.16518 6.15491ZM32.7463 6.16364C32.0184 5.80036 31.7303 4.37564 32.2808 3.86218C32.7728 3.40327 34.4451 3.79782 34.8877 4.47745C35.4975 5.41382 33.8474 6.71309 32.7463 6.16364ZM6.85434 8.78C7.92657 8.74473 9.06702 8.56073 9.38868 8.37091C9.89867 8.06982 9.98718 8.81273 10.08 14.1724L10.1868 20.3189L11.4446 20.4647C12.1367 20.5451 10.9483 20.6109 8.80384 20.6109C6.6594 20.6109 5.47488 20.5447 6.17202 20.4644L7.43919 20.3175V14.7273V9.13709L6.17202 8.99018C5.24289 8.88291 5.42498 8.82655 6.85434 8.78ZM30.9407 9.02982C29.8311 8.98364 30.0443 8.90909 31.8078 8.72727C33.0945 8.59455 34.279 8.45855 34.4397 8.42473C34.6003 8.39127 34.7321 11.0531 34.7321 14.3407V20.3175L35.9993 20.4644C36.696 20.5447 35.5119 20.6156 33.3674 20.6211C31.1977 20.6269 30.0736 20.5316 30.8331 20.4065L32.1977 20.1818L32.3054 14.6364L32.413 9.09091L30.9407 9.02982ZM16.9995 14.9585C14.62 9.85564 14.1548 9.10509 13.2955 8.97964C12.7551 8.90073 13.9797 8.83309 16.017 8.82945C18.0542 8.82582 19.1623 8.92436 18.4796 9.048L17.2377 9.27273L18.9946 13.2727C19.9612 15.4727 20.8837 17.3993 21.0451 17.5542C21.4342 17.9276 25.1055 10.2727 24.8431 9.63527C24.7312 9.36291 24.059 9.07345 23.3498 8.992C22.6406 8.91018 23.3763 8.83964 24.9846 8.83491C26.593 8.83018 27.5268 8.89564 27.06 8.98036C25.8826 9.19418 25.8046 9.31527 22.8468 15.5404C21.3987 18.5876 20.1031 21.0164 19.9674 20.9375C19.8317 20.8585 18.4963 18.168 16.9995 14.9585Z" fill="white"/>
<path fill-rule="evenodd" clip-rule="evenodd" d="M159.153 12.8713C156.901 14.0349 156.454 17.2156 158.3 18.9371C159.838 20.3713 162.559 20.4527 164.001 19.1073C164.527 18.6164 164.958 17.9618 164.958 17.6527C164.958 16.8073 164.655 16.9709 163.986 18.1767C163.276 19.4578 161.655 19.9836 160.818 19.2036C160.507 18.9138 160.148 18.0745 160.02 17.3385L159.787 16H162.373C164.73 16 164.958 15.9335 164.958 15.2447C164.958 14.8295 164.445 14.0113 163.818 13.4265C162.552 12.2458 160.772 12.0338 159.153 12.8713ZM161.059 15.2727C159.8 15.2727 159.563 14.7033 160.293 13.4305C161.06 12.0935 162.229 12.7844 162.229 14.5753C162.229 15.1076 161.952 15.2727 161.059 15.2727Z" fill="white"/>
<path fill-rule="evenodd" clip-rule="evenodd" d="M48.7684 8.72727C48.3395 8.72727 47.9886 8.56364 47.9886 8.36364C47.9886 8.15891 49.0858 8 50.5 8C51.8814 8 53.1197 8.16364 53.2523 8.36364C53.3848 8.56364 53.1318 8.72727 52.6904 8.72727C51.9157 8.72727 51.8876 8.91782 51.8876 14.1564C51.8876 19.4978 51.9016 19.5884 52.7649 19.7433C53.2476 19.8302 52.3262 19.9011 50.7179 19.9011C49.1096 19.9011 48.1886 19.8302 48.6709 19.7433C49.5342 19.5884 49.5482 19.4978 49.5482 14.1564C49.5482 8.96982 49.5135 8.72727 48.7684 8.72727ZM60.7578 8.81018C60.3823 8.71782 60.0755 8.49782 60.0755 8.32109C60.0755 8.14473 61.2159 8 62.6098 8C64.0396 8 65.1442 8.15855 65.1442 8.36364C65.1442 8.56364 64.8088 8.72727 64.3987 8.72727C63.7054 8.72727 63.7526 9.00727 65.0701 12.7273C65.8495 14.9273 66.5848 16.7273 66.7041 16.7273C66.8231 16.7273 67.5151 15.1316 68.2419 13.1818C68.9687 11.232 69.6405 9.432 69.7348 9.18182C69.837 8.91127 69.5738 8.72727 69.0849 8.72727C68.633 8.72727 68.2633 8.56364 68.2633 8.36364C68.2633 8.16364 69.1406 8 70.2128 8C71.2851 8 72.1623 8.16364 72.1623 8.36364C72.1623 8.56364 71.8329 8.72727 71.4297 8.72727L71.3953 8.72723C71.279 8.72703 71.1804 8.72685 71.0881 8.74914C70.5768 8.87256 70.2567 9.68468 68.164 14.9936L68.054 15.2727C67.0687 17.7727 66.1302 19.944 65.9692 20.0975C65.8082 20.2509 64.7231 17.812 63.5581 14.6775C62.0554 10.6335 61.2421 8.92945 60.7578 8.81018ZM121.29 8.72727C120.861 8.72727 120.51 8.56364 120.51 8.36364C120.51 8.15855 121.614 8 123.044 8C124.474 8 125.578 8.15855 125.578 8.36364C125.578 8.56364 125.228 8.72727 124.799 8.72727C124.054 8.72727 124.019 8.96982 124.019 14.2036V19.6804L125.481 19.5673L126.943 19.4545L127.056 16.4545C127.166 13.552 127.14 13.4527 126.276 13.4029C125.785 13.3745 126.085 13.252 126.943 13.1302C128.062 12.9716 128.563 13.0476 128.716 13.3989C128.887 13.7913 129.032 13.7731 129.446 13.308C130.115 12.556 132.361 12.56 133.171 13.3145C133.75 13.8553 133.856 13.8553 134.497 13.3145C135.396 12.5553 137.214 12.5625 138.122 13.3291C138.697 13.8145 138.835 14.4818 138.835 16.7836V19.6364H140.2H141.564V16.5455C141.564 13.5978 141.524 13.452 140.687 13.4029C140.204 13.3745 140.512 13.252 141.369 13.1302C142.488 12.9716 142.989 13.0476 143.142 13.3989C143.313 13.7913 143.458 13.7731 143.872 13.308C144.545 12.5516 146.572 12.5633 147.479 13.3291C148.143 13.8891 148.242 13.8891 148.906 13.3291C149.298 12.9982 150.165 12.7273 150.833 12.7273C152.643 12.7273 153.261 13.8055 153.261 16.9633C153.261 19.1524 153.373 19.6105 153.944 19.7495C154.319 19.8407 153.573 19.9156 152.286 19.9156C151 19.9156 150.261 19.8396 150.644 19.7465C151.258 19.5982 151.328 19.1989 151.229 16.4295C151.137 13.8375 151.003 13.2604 150.47 13.1655C150.114 13.1022 149.456 13.4175 149.008 13.8665C147.895 14.98 147.794 19.4858 148.875 19.7495C149.25 19.8407 148.504 19.9156 147.218 19.9156C145.931 19.9156 145.192 19.8396 145.576 19.7465C146.189 19.5982 146.259 19.1989 146.16 16.4295C146.068 13.8375 145.934 13.2604 145.401 13.1655C145.045 13.1022 144.387 13.4175 143.939 13.8665C142.827 14.98 142.725 19.4858 143.806 19.7495C144.181 19.8407 142.471 19.9156 140.005 19.9156C137.539 19.9156 135.828 19.8407 136.203 19.7495C137.194 19.508 137.227 13.5538 136.239 13.2004C135.814 13.0484 135.28 13.3084 134.679 13.9593C133.928 14.7738 133.766 15.3611 133.766 17.2662C133.766 19.1669 133.889 19.6127 134.449 19.7495C134.824 19.8407 134.078 19.9156 132.792 19.9156C131.505 19.9156 130.759 19.8407 131.134 19.7495C131.72 19.6065 131.817 19.1225 131.817 16.3371C131.817 13.5353 131.727 13.0909 131.159 13.0909C130.798 13.0909 130.096 13.4465 129.6 13.8815C128.829 14.5567 128.698 15.0313 128.698 17.1276C128.698 19.1604 128.815 19.6116 129.38 19.7495C129.755 19.8407 127.869 19.9244 125.189 19.9349C121.915 19.9476 120.603 19.8458 121.192 19.6251C122.046 19.3051 122.069 19.152 122.069 14.0116C122.069 8.96982 122.033 8.72727 121.29 8.72727ZM182.114 9.87891C182.114 9.512 182.237 9.09746 182.387 8.95709C182.915 8.46473 183.869 8.92473 183.993 9.73091C184.094 10.3935 183.93 10.5455 183.116 10.5455C182.404 10.5455 182.114 10.3524 182.114 9.87891ZM88.0136 12.9269C88.6901 12.6524 89.3896 12.0455 89.5682 11.5775C89.87 10.788 89.9023 10.8138 90.0224 11.9378L90.1519 13.1487L92.855 13.0287L95.5582 12.9091L95.557 15.6975C95.5562 18.9389 95.7656 19.6364 96.7392 19.6364C98.0781 19.6364 99.0653 17.9182 99.0653 15.5873C99.0653 13.6422 98.9908 13.4545 98.2204 13.4545C97.009 13.4545 97.4613 13.2284 99.1628 12.9833L100.625 12.7731V16.2047V19.6364H101.99H103.354V16.5455C103.354 13.596 103.314 13.4524 102.477 13.4091C101.994 13.384 102.389 13.2429 103.354 13.0956C104.394 12.9367 105.208 12.9709 105.352 13.1796C105.504 13.3989 105.697 13.3796 105.863 13.1298C106.513 12.148 108.98 12.9891 108.546 14.0444C108.195 14.8975 106.865 14.6487 106.85 13.7273L106.837 12.9091L106.071 13.7676C105.473 14.4364 105.304 15.1735 105.304 17.1058C105.304 19.3884 105.373 19.5982 106.181 19.7433C106.664 19.8302 105.26 19.9233 103.062 19.9505C99.5815 19.9935 99.0653 19.9222 99.0653 19.3982C99.0653 18.8382 99.0158 18.8382 98.3522 19.3982C97.5451 20.0793 95.8736 20.184 94.7507 19.6236C94.1019 19.2996 93.9966 18.8422 93.9966 16.3509V13.4545H92.0471H90.0977V16.3749C90.0977 19.5865 90.6154 20.2993 92.0616 19.0785C92.878 18.3898 93.1471 18.8287 92.3591 19.5636C91.7547 20.1273 89.6103 20.1273 89.0059 19.5636C88.7221 19.2989 88.5381 18.012 88.5381 16.2909C88.5381 13.596 88.4944 13.4538 87.6608 13.4404C86.913 13.428 86.9648 13.3524 88.0136 12.9269ZM70.6027 16.7371C70.6027 15.3895 71.4991 13.6393 72.4548 13.12C74.274 12.1316 77.231 13.4542 77.231 15.2564C77.231 15.9236 76.9885 16 74.8694 16H72.5074L72.6275 17.5084C72.6977 18.396 73.003 19.1662 73.3691 19.38C74.3075 19.9284 76.0317 19.3676 76.5272 18.3535C76.7686 17.8593 77.1179 17.4545 77.3035 17.4545C77.8432 17.4545 76.5444 19.5251 75.8488 19.7742C73.4872 20.6193 70.6027 18.9495 70.6027 16.7371ZM78.3032 13.4029C77.8205 13.3745 78.1278 13.252 78.9855 13.1302C80.1042 12.9716 80.6056 13.0476 80.7584 13.3989C80.9292 13.7913 81.0746 13.7731 81.4887 13.308C82.1515 12.5629 84.4012 12.5575 85.1962 13.2985C85.6493 13.7211 85.8088 14.6149 85.8088 16.728C85.8088 19.4025 85.8649 19.596 86.686 19.7433C87.1687 19.8302 86.4229 19.9127 85.029 19.9273C83.1524 19.9469 82.7223 19.8687 83.3719 19.6251C84.1638 19.3284 84.2492 19.0498 84.2492 16.7687C84.2492 15.3785 84.1427 13.9825 84.0125 13.6662C83.6815 12.8611 82.706 12.9498 81.6423 13.8815C80.8719 14.5567 80.7401 15.0313 80.7401 17.1276C80.7401 19.1604 80.8575 19.6116 81.4224 19.7495C81.7979 19.8407 81.052 19.9124 79.7654 19.9084C78.4787 19.9044 77.8205 19.8302 78.3032 19.7433C79.1302 19.5949 79.1805 19.4102 79.1805 16.52C79.1805 13.5985 79.1392 13.452 78.3032 13.4029ZM108.85 17.5945C108.411 16.1116 108.805 14.8113 110.076 13.5455C111.309 12.3189 113.17 12.4473 114.432 13.8462C116.033 15.6215 115.8 16 113.102 16H110.762V17.3818C110.762 19.8905 112.734 20.4665 114.434 18.4545C114.983 17.8044 115.434 17.5076 115.437 17.7949C115.445 18.8327 113.807 20 112.341 20C110.498 20 109.322 19.1895 108.85 17.5945ZM168.37 13.4029C167.887 13.3745 168.194 13.2342 169.052 13.0909C169.91 12.9476 170.743 12.8073 170.904 12.7789C171.065 12.7505 171.197 12.9236 171.197 13.1636C171.197 13.5029 171.301 13.5029 171.664 13.1636C172.668 12.2276 175.214 13.1211 174.521 14.1658C174.031 14.9047 172.757 14.5902 172.743 13.7273L172.73 12.9091L171.963 13.7676C171.366 14.4364 171.197 15.1735 171.197 17.1058C171.197 19.3884 171.266 19.5982 172.074 19.7433C172.556 19.8302 171.723 19.9011 170.222 19.9011C168.721 19.9011 167.887 19.8302 168.37 19.7433C169.197 19.5949 169.247 19.4102 169.247 16.52C169.247 13.5985 169.206 13.452 168.37 13.4029ZM175.613 16.312C174.9 15.7596 174.963 13.9938 175.721 13.2865C176.148 12.888 176.89 12.736 178.06 12.8062C179.663 12.9025 179.774 12.9767 179.774 13.9582L179.774 15.0073L178.966 14.0491C178.065 12.9804 176.996 12.8149 176.269 13.6316C175.549 14.4415 176.089 15.2727 177.336 15.2727C179.032 15.2727 180.164 16.2047 180.164 17.6007C180.164 19.3193 179.122 20.0604 176.896 19.9265C175.121 19.8196 175.096 19.8007 175.097 18.5455L175.098 17.2727L175.871 18.4545C176.713 19.7425 178.146 20.044 178.979 19.1084C179.818 18.1662 179.288 17.3244 177.658 17.0087C176.818 16.8458 175.898 16.5324 175.613 16.312ZM181.431 13.4065C181.056 13.3804 181.363 13.2382 182.114 13.0909C182.864 12.9436 183.61 12.8015 183.771 12.7753C183.932 12.7487 184.063 14.2698 184.063 16.1553C184.063 19.1142 184.156 19.6058 184.745 19.7495C185.121 19.8407 184.375 19.9156 183.088 19.9156C181.802 19.9156 181.056 19.8407 181.431 19.7495C182.013 19.6076 182.114 19.1313 182.114 16.5189C182.114 13.8611 182.023 13.4484 181.431 13.4065ZM194.201 16.4644C194.201 15.1684 194.424 14.6451 195.34 13.7902C196.894 12.3415 198.48 12.3611 199.819 13.8462C201.425 15.6251 201.189 16 198.467 16H196.105L196.225 17.5084C196.295 18.396 196.601 19.1662 196.967 19.38C197.924 19.9389 199.575 19.3742 200.219 18.268C200.619 17.5796 200.802 17.4647 200.813 17.8949C200.84 18.9611 199.263 20 197.618 20C195.499 20 194.201 18.6564 194.201 16.4644ZM72.5522 14.6182C72.5522 14.2582 72.7628 13.7673 73.0201 13.5273C73.2774 13.2873 73.681 13.0909 73.9169 13.0909C74.5707 13.0909 75.2815 13.8862 75.2815 14.6182C75.2815 15.1236 74.9712 15.2727 73.9169 15.2727C72.8626 15.2727 72.5522 15.1236 72.5522 14.6182ZM110.762 14.6182C110.762 14.2582 110.973 13.7673 111.23 13.5273C111.913 12.8902 112.628 12.9927 113.088 13.7942C113.758 14.9622 113.556 15.2727 112.127 15.2727C111.073 15.2727 110.762 15.1236 110.762 14.6182ZM187.743 16.9189C186.899 15.0244 185.944 13.4069 185.623 13.3247C185.301 13.2425 186.091 13.1753 187.377 13.1753C188.664 13.1753 189.409 13.2502 189.034 13.3415C188.976 13.3558 188.921 13.3681 188.87 13.3795C188.672 13.4242 188.538 13.4546 188.47 13.5344C188.328 13.704 188.49 14.0966 188.996 15.3231C189.056 15.4703 189.122 15.6295 189.193 15.8018C189.655 16.9287 190.161 17.7204 190.317 17.5615C190.472 17.4025 190.965 16.488 191.412 15.5287L192.223 13.7851L191.36 13.4611C190.684 13.2073 190.919 13.1371 192.446 13.1371C193.866 13.1371 194.178 13.2193 193.594 13.4396C193.075 13.636 192.258 14.9065 191.272 17.0531C190.436 18.8738 189.645 20.3636 189.515 20.3636C189.385 20.3636 188.588 18.8135 187.743 16.9189ZM196.15 14.6182C196.15 14.2582 196.361 13.7673 196.618 13.5273C196.875 13.2873 197.279 13.0909 197.515 13.0909C198.169 13.0909 198.879 13.8862 198.879 14.6182C198.879 15.1236 198.569 15.2727 197.515 15.2727C196.46 15.2727 196.15 15.1236 196.15 14.6182ZM56.5664 16.3636C54.4044 16.3636 53.8289 16.1287 54.4871 15.5153C54.6298 15.3818 55.6825 15.2727 56.8265 15.2727C58.4149 15.2727 58.9058 15.4015 58.9058 15.8182C58.9058 16.2425 58.386 16.3636 56.5664 16.3636Z" fill="#E8E8E8"/>
<path fill-rule="evenodd" clip-rule="evenodd" d="M157.695 11.0887C152.954 13.7389 154.202 20.4502 159.7 21.8658C162.731 22.6465 166.407 20.5404 167.278 17.5236C168.774 12.3393 162.724 8.27673 157.695 11.0887ZM155.711 16.3993C155.528 14.4065 156.475 12.7425 158.424 11.6345C161.99 9.60618 166.52 12.0738 166.516 16.0429C166.513 19.0389 164.288 21.0909 161.041 21.0909C158.09 21.0909 155.971 19.2255 155.711 16.3993Z" fill="white"/>
</svg>
