<svg width="28" height="28" viewBox="0 0 28 28" fill="none" xmlns="http://www.w3.org/2000/svg">
<circle opacity="0.16" cx="14" cy="14" r="14" fill="#192890"/>
<path d="M19.25 10.4889C17.3075 10.2964 15.3533 10.1973 13.405 10.1973C12.25 10.1973 11.095 10.2556 9.94 10.3723L8.75 10.4889" stroke="#192890" stroke-width="0.777778" stroke-linecap="round" stroke-linejoin="round"/>
<path d="M11.9585 9.89949L12.0868 9.13533C12.1802 8.58116 12.2502 8.16699 13.236 8.16699H14.7643C15.7502 8.16699 15.826 8.60449 15.9135 9.14116L16.0418 9.89949" stroke="#192890" stroke-width="0.777778" stroke-linecap="round" stroke-linejoin="round"/>
<path d="M17.9956 12.332L17.6164 18.2062C17.5522 19.122 17.4997 19.8337 15.8722 19.8337H12.1272C10.4997 19.8337 10.4472 19.122 10.3831 18.2062L10.0039 12.332" stroke="#192890" stroke-width="0.777778" stroke-linecap="round" stroke-linejoin="round"/>
<path d="M13.0259 16.625H14.9684" stroke="#192890" stroke-width="0.777778" stroke-linecap="round" stroke-linejoin="round"/>
<path d="M12.5415 14.292H15.4582" stroke="#192890" stroke-width="0.777778" stroke-linecap="round" stroke-linejoin="round"/>
</svg>
