<svg width="66" height="66" viewBox="0 0 66 66" fill="none" xmlns="http://www.w3.org/2000/svg">
<path d="M2.0625 14.4375C2.0625 7.60297 7.60297 2.0625 14.4375 2.0625H51.5625C58.397 2.0625 63.9375 7.60297 63.9375 14.4375V51.5625C63.9375 58.397 58.397 63.9375 51.5625 63.9375H14.4375C7.60297 63.9375 2.0625 58.397 2.0625 51.5625V14.4375Z" fill="white" fill-opacity="0.16"/>
<path d="M33 16.5C23.8873 16.5 16.5 23.8873 16.5 33C16.5 42.1127 23.8873 49.5 33 49.5C42.1127 49.5 49.5 42.1127 49.5 33C49.5 23.8873 42.1127 16.5 33 16.5Z" fill="#6DAA39"/>
<path d="M40.0211 28.1381C39.9194 28.0356 39.7984 27.9542 39.665 27.8986C39.5317 27.8431 39.3886 27.8145 39.2442 27.8145C39.0997 27.8145 38.9567 27.8431 38.8233 27.8986C38.69 27.9542 38.5689 28.0356 38.4672 28.1381L30.3146 36.3017L26.8894 32.8656C26.7838 32.7635 26.6591 32.6833 26.5225 32.6295C26.3858 32.5756 26.2399 32.5492 26.0931 32.5518C25.9463 32.5543 25.8014 32.5857 25.6667 32.6443C25.532 32.7028 25.4102 32.7873 25.3081 32.8929C25.2061 32.9986 25.1259 33.1232 25.072 33.2599C25.0182 33.3965 24.9918 33.5424 24.9943 33.6892C24.9968 33.8361 25.0283 33.981 25.0868 34.1157C25.1454 34.2503 25.2299 34.3722 25.3355 34.4742L29.5376 38.6764C29.6394 38.7789 29.7604 38.8603 29.8937 38.9159C30.0271 38.9715 30.1701 39.0001 30.3146 39.0001C30.4591 39.0001 30.6021 38.9715 30.7354 38.9159C30.8688 38.8603 30.9898 38.7789 31.0916 38.6764L40.0211 29.7468C40.1322 29.6443 40.2209 29.5199 40.2815 29.3815C40.3421 29.2431 40.3734 29.0936 40.3734 28.9425C40.3734 28.7913 40.3421 28.6419 40.2815 28.5034C40.2209 28.365 40.1322 28.2406 40.0211 28.1381Z" fill="white"/>
</svg>
