<svg width="28" height="28" viewBox="0 0 28 28" fill="none" xmlns="http://www.w3.org/2000/svg">
<circle opacity="0.16" cx="14" cy="14" r="14" fill="#2B3F79"/>
<path d="M8.16675 10.5003C8.16675 9.40038 8.16675 8.85041 8.50846 8.5087C8.85017 8.16699 9.40014 8.16699 10.5001 8.16699C11.6 8.16699 12.15 8.16699 12.4917 8.5087C12.8334 8.85041 12.8334 9.40038 12.8334 10.5003V17.5003C12.8334 18.6003 12.8334 19.1502 12.4917 19.492C12.15 19.8337 11.6 19.8337 10.5001 19.8337C9.40014 19.8337 8.85017 19.8337 8.50846 19.492C8.16675 19.1502 8.16675 18.6003 8.16675 17.5003V10.5003Z" fill="#2B3F79"/>
<path d="M15.1667 10.5003C15.1667 9.40038 15.1667 8.85041 15.5085 8.5087C15.8502 8.16699 16.4001 8.16699 17.5001 8.16699C18.6 8.16699 19.15 8.16699 19.4917 8.5087C19.8334 8.85041 19.8334 9.40038 19.8334 10.5003V17.5003C19.8334 18.6003 19.8334 19.1502 19.4917 19.492C19.15 19.8337 18.6 19.8337 17.5001 19.8337C16.4001 19.8337 15.8502 19.8337 15.5085 19.492C15.1667 19.1502 15.1667 18.6003 15.1667 17.5003V10.5003Z" fill="#2B3F79"/>
</svg>
