<svg width="66" height="66" viewBox="0 0 66 66" fill="none" xmlns="http://www.w3.org/2000/svg">
<path d="M2.0625 14.4375C2.0625 7.60297 7.60297 2.0625 14.4375 2.0625H51.5625C58.397 2.0625 63.9375 7.60297 63.9375 14.4375V51.5625C63.9375 58.397 58.397 63.9375 51.5625 63.9375H14.4375C7.60297 63.9375 2.0625 58.397 2.0625 51.5625V14.4375Z" fill="#282C36"/>
<path d="M33 16.5C23.8873 16.5 16.5 23.8873 16.5 33C16.5 42.1127 23.8873 49.5 33 49.5C42.1127 49.5 49.5 42.1127 49.5 33C49.5 23.8873 42.1127 16.5 33 16.5Z" fill="#2877EE"/>
<path fill-rule="evenodd" clip-rule="evenodd" d="M28.9998 25C30.1045 25 31 25.6294 31 26.4062V38.5938C31 39.3706 30.1045 40 28.9998 40C27.8955 40 27 39.3706 27 38.5938V26.4062C27 25.6294 27.8955 25 28.9998 25Z" fill="#F3F3F3"/>
<path fill-rule="evenodd" clip-rule="evenodd" d="M36.9998 25C38.1045 25 39 25.6294 39 26.4062V38.5938C39 39.3706 38.1045 40 36.9998 40C35.8955 40 35 39.3706 35 38.5938V26.4062C35 25.6294 35.8955 25 36.9998 25Z" fill="#F3F3F3"/>
</svg>
