<svg width="25" height="24" viewBox="0 0 25 24" fill="none" xmlns="http://www.w3.org/2000/svg">
<path d="M12.5 1C6.43355 1 1.5 5.93355 1.5 12C1.5 18.0664 6.43355 23 12.5 23C18.5664 23 23.5 18.0664 23.5 12C23.5 5.93355 18.5664 1 12.5 1ZM12.5 2.46667C17.7738 2.46667 22.0333 6.7262 22.0333 12C22.0333 17.2738 17.7738 21.5333 12.5 21.5333C7.2262 21.5333 2.96667 17.2738 2.96667 12C2.96667 6.7262 7.2262 2.46667 12.5 2.46667ZM12.7444 6.13333C10.6128 6.13333 8.83333 7.79911 8.83333 9.88403C8.83196 9.9812 8.84991 10.0777 8.88615 10.1679C8.92239 10.258 8.97618 10.3401 9.04442 10.4093C9.11265 10.4785 9.19395 10.5335 9.28361 10.571C9.37327 10.6085 9.46948 10.6278 9.56667 10.6278C9.66385 10.6278 9.76007 10.6085 9.84972 10.571C9.93938 10.5335 10.0207 10.4785 10.0889 10.4093C10.1571 10.3401 10.2109 10.258 10.2472 10.1679C10.2834 10.0777 10.3014 9.9812 10.3 9.88403C10.3 8.63317 11.366 7.6 12.7444 7.6C14.1228 7.6 15.1889 8.63317 15.1889 9.88403C15.1889 10.7638 14.7307 11.2257 14.0278 11.8243C13.3248 12.4229 12.3446 13.0534 12.034 14.2611C12.0099 14.3544 12.0045 14.4515 12.0179 14.5469C12.0314 14.6424 12.0635 14.7342 12.1124 14.8172C12.1614 14.9002 12.2262 14.9727 12.3032 15.0307C12.3802 15.0886 12.4678 15.1309 12.5611 15.1549C12.6544 15.179 12.7515 15.1845 12.8469 15.171C12.9423 15.1575 13.0342 15.1254 13.1172 15.0765C13.2002 15.0275 13.2727 14.9627 13.3306 14.8857C13.3886 14.8087 13.4308 14.7211 13.4549 14.6278C13.5961 14.0786 14.202 13.5979 14.975 12.9396C15.748 12.2813 16.6556 11.3355 16.6556 9.88403C16.6556 7.79911 14.8761 6.13333 12.7444 6.13333ZM12.7444 15.9111C12.2044 15.9111 11.7667 16.3489 11.7667 16.8889C11.7667 17.4289 12.2044 17.8667 12.7444 17.8667C13.2845 17.8667 13.7222 17.4289 13.7222 16.8889C13.7222 16.3489 13.2845 15.9111 12.7444 15.9111Z" fill="white"/>
</svg>
