<svg width="24" height="24" viewBox="0 0 24 24" fill="none" xmlns="http://www.w3.org/2000/svg">
<g clip-path="url(#clip0_23632_2102)">
<path d="M12 24C18.6274 24 24 18.6274 24 12C24 5.37258 18.6274 0 12 0C5.37258 0 0 5.37258 0 12C0 18.6274 5.37258 24 12 24Z" fill="#17A643"/>
<path d="M19.5096 10.5527H18.3457C18.3068 10.4068 18.2207 10.2778 18.101 10.1856C17.9813 10.0935 17.8345 10.0435 17.6834 10.0432H17.5039C17.457 9.90226 17.3671 9.77961 17.2467 9.69262C17.1263 9.60564 16.9816 9.55872 16.8331 9.55852H16.0432C15.8951 9.55914 15.7509 9.60626 15.631 9.69322C15.511 9.78018 15.4214 9.9026 15.3748 10.0432H15.1953C15.0439 10.043 14.8967 10.0929 14.7765 10.1851C14.6564 10.2772 14.5701 10.4065 14.5311 10.5527H13.3671C13.2427 10.5527 13.1198 10.5805 13.0076 10.6343C12.548 10.3432 12.0466 10.1241 11.5207 9.98462C12.1648 9.68395 12.687 9.1726 13.0012 8.53502C13.3154 7.89744 13.4027 7.17177 13.2487 6.47787C13.0947 5.78398 12.7086 5.16336 12.1542 4.71852C11.5999 4.27369 10.9103 4.03125 10.1996 4.03125C9.48879 4.03125 8.79927 4.27369 8.2449 4.71852C7.69052 5.16336 7.30446 5.78398 7.15047 6.47787C6.99648 7.17177 7.08378 7.89744 7.39794 8.53502C7.7121 9.1726 8.23434 9.68395 8.8784 9.98462C8.03184 10.2077 7.23777 10.6479 6.53465 11.2882C5.51934 12.2149 4.77074 13.5251 4.42527 14.9768C4.39623 15.0984 4.39476 15.2249 4.42096 15.3472C4.44715 15.4694 4.50036 15.5842 4.57668 15.6832C5.48546 16.8637 6.74235 17.7285 8.1696 18.1555C9.59684 18.5825 11.1222 18.55 12.53 18.0626V19.136C12.5302 19.2457 12.5521 19.3542 12.5943 19.4555C12.6365 19.5567 12.6982 19.6486 12.776 19.726C12.8537 19.8033 12.9459 19.8646 13.0474 19.9063C13.1488 19.948 13.2575 19.9693 13.3671 19.969H19.5078C19.6174 19.9691 19.726 19.9476 19.8273 19.9058C19.9287 19.864 20.0208 19.8026 20.0984 19.7251C20.176 19.6477 20.2376 19.5557 20.2796 19.4545C20.3217 19.3533 20.3434 19.2447 20.3436 19.1351V11.3866C20.3433 11.1656 20.2554 10.9536 20.099 10.7973C19.9427 10.6409 19.7307 10.553 19.5096 10.5527ZM15.1934 10.512H15.5717C15.6338 10.512 15.6935 10.4873 15.7374 10.4433C15.7814 10.3994 15.8061 10.3397 15.8061 10.2776V10.2659C15.8061 10.2029 15.831 10.1425 15.8755 10.098C15.92 10.0534 15.9803 10.0283 16.0432 10.0282H16.8331C16.8961 10.0283 16.9565 10.0534 17.001 10.098C17.0455 10.1425 17.0706 10.2029 17.0707 10.2659V10.2785C17.0707 10.3407 17.0954 10.4003 17.1394 10.4443C17.1833 10.4882 17.243 10.5129 17.3051 10.5129H17.6834C17.7406 10.513 17.7954 10.5358 17.8359 10.5762C17.8764 10.6166 17.8992 10.6713 17.8995 10.7285V11.3571C17.8994 11.4144 17.8766 11.4693 17.8361 11.5098C17.7956 11.5503 17.7407 11.5731 17.6834 11.5732H15.1934C15.1361 11.5731 15.0812 11.5503 15.0407 11.5098C15.0002 11.4693 14.9774 11.4144 14.9773 11.3571V10.7276C14.9776 10.6704 15.0004 10.6156 15.0409 10.5752C15.0814 10.5348 15.1362 10.5121 15.1934 10.512ZM7.54668 7.1543C7.54659 6.62925 7.70221 6.11596 7.99385 5.67935C8.2855 5.24274 8.70008 4.90243 9.18515 4.70146C9.67022 4.50049 10.204 4.44788 10.719 4.55029C11.2339 4.6527 11.707 4.90553 12.0782 5.2768C12.4495 5.64807 12.7023 6.12111 12.8048 6.63608C12.9072 7.15105 12.8546 7.68483 12.6536 8.1699C12.4526 8.65497 12.1123 9.06955 11.6757 9.36119C11.2391 9.65284 10.7258 9.80846 10.2007 9.80837C9.49707 9.80762 8.82243 9.52776 8.32486 9.03019C7.82729 8.53262 7.54742 7.85798 7.54668 7.1543ZM10.2007 17.9824C9.18569 17.9856 8.18368 17.7537 7.27324 17.3049C6.3628 16.8561 5.56867 16.2025 4.95309 15.3954C4.91938 15.3515 4.89588 15.3007 4.88428 15.2466C4.87269 15.1926 4.87329 15.1366 4.88605 15.0827C5.55637 12.2548 7.74168 10.2799 10.2007 10.2799C11.0629 10.2847 11.9076 10.5228 12.6453 10.969C12.5717 11.0957 12.5331 11.2397 12.5332 11.3862V17.5634C11.7869 17.8427 10.9963 17.9851 10.1993 17.9838L10.2007 17.9824ZM19.8748 19.1351C19.8748 19.2319 19.8363 19.3248 19.7679 19.3933C19.6994 19.4618 19.6065 19.5002 19.5096 19.5002H13.369C13.2722 19.5002 13.1793 19.4618 13.1108 19.3933C13.0423 19.3248 13.0039 19.2319 13.0039 19.1351V11.3866C13.0039 11.2898 13.0423 11.1969 13.1108 11.1284C13.1793 11.06 13.2722 11.0215 13.369 11.0215H14.5104V11.3562C14.5107 11.5377 14.5829 11.7118 14.7113 11.8402C14.8397 11.9685 15.0137 12.0408 15.1953 12.041H17.6853C17.8668 12.0408 18.0409 11.9685 18.1693 11.8402C18.2976 11.7118 18.3699 11.5377 18.3701 11.3562V11.0215H19.5115C19.5595 11.0215 19.607 11.0309 19.6513 11.0493C19.6956 11.0676 19.7358 11.0945 19.7697 11.1284C19.8036 11.1624 19.8305 11.2026 19.8489 11.2469C19.8672 11.2912 19.8767 11.3387 19.8767 11.3866L19.8748 19.1351Z" fill="white" stroke="white" stroke-width="0.5"/>
<path d="M18.9542 13.2275H13.9226C13.8604 13.2303 13.8016 13.2569 13.7585 13.302C13.7154 13.347 13.6914 13.4069 13.6914 13.4692C13.6914 13.5315 13.7154 13.5914 13.7585 13.6364C13.8016 13.6814 13.8604 13.7081 13.9226 13.7108H18.9523C19.0146 13.7081 19.0734 13.6814 19.1164 13.6364C19.1595 13.5914 19.1836 13.5315 19.1836 13.4692C19.1836 13.4069 19.1595 13.347 19.1164 13.302C19.0734 13.2569 19.0146 13.2303 18.9523 13.2275H18.9542Z" fill="white"/>
<path d="M18.9542 14.6621H13.9226C13.8604 14.6649 13.8016 14.6915 13.7585 14.7365C13.7154 14.7815 13.6914 14.8414 13.6914 14.9037C13.6914 14.9661 13.7154 15.026 13.7585 15.071C13.8016 15.116 13.8604 15.1426 13.9226 15.1454H18.9523C19.0146 15.1426 19.0734 15.116 19.1164 15.071C19.1595 15.026 19.1836 14.9661 19.1836 14.9037C19.1836 14.8414 19.1595 14.7815 19.1164 14.7365C19.0734 14.6915 19.0146 14.6649 18.9523 14.6621H18.9542Z" fill="white"/>
<path d="M18.9542 16.0972H13.9226C13.8604 16.0999 13.8016 16.1266 13.7585 16.1716C13.7154 16.2166 13.6914 16.2765 13.6914 16.3388C13.6914 16.4011 13.7154 16.461 13.7585 16.506C13.8016 16.5511 13.8604 16.5777 13.9226 16.5804H18.9523C19.0146 16.5777 19.0734 16.5511 19.1164 16.506C19.1595 16.461 19.1836 16.4011 19.1836 16.3388C19.1836 16.2765 19.1595 16.2166 19.1164 16.1716C19.0734 16.1266 19.0146 16.0999 18.9523 16.0972H18.9542Z" fill="white"/>
<path d="M18.9531 17.5312H13.9216C13.8574 17.5312 13.7959 17.5567 13.7505 17.6021C13.7052 17.6475 13.6797 17.709 13.6797 17.7731C13.6797 17.8373 13.7052 17.8988 13.7505 17.9442C13.7959 17.9895 13.8574 18.015 13.9216 18.015H18.9512C19.0154 18.015 19.0769 17.9895 19.1223 17.9442C19.1676 17.8988 19.1931 17.8373 19.1931 17.7731C19.1931 17.709 19.1676 17.6475 19.1223 17.6021C19.0769 17.5567 19.0154 17.5312 18.9512 17.5312H18.9531Z" fill="white"/>
</g>
<defs>
<clipPath id="clip0_23632_2102">
<rect width="24" height="24" fill="white"/>
</clipPath>
</defs>
</svg>
