<svg width="40" height="40" viewBox="0 0 40 40" fill="none" xmlns="http://www.w3.org/2000/svg">
<g filter="url(#filter0_b_23922_20404)">
<rect width="40" height="40" rx="20" transform="matrix(-1 0 0 1 40 0)" fill="white" fill-opacity="0.25"/>
<path d="M14.1311 19.1316L14.1313 19.1313L21.4206 11.8421L21.4268 11.8358L21.4333 11.8298C21.6663 11.6128 21.9744 11.4946 22.2928 11.5002C22.6111 11.5058 22.9149 11.6348 23.1401 11.8599C23.3652 12.0851 23.4942 12.3889 23.4998 12.7072C23.5054 13.0256 23.3872 13.3337 23.1702 13.5667L23.1642 13.5732L23.1579 13.5794L16.7373 20L23.1579 26.4206L23.1642 26.4268L23.1702 26.4333C23.3872 26.6663 23.5054 26.9744 23.4998 27.2928C23.4942 27.6111 23.3652 27.9149 23.1401 28.1401C22.9149 28.3652 22.6111 28.4942 22.2928 28.4998C21.9744 28.5054 21.6663 28.3872 21.4333 28.1702L21.4268 28.1642L21.4206 28.1579L14.1313 20.8687L14.1311 20.8684C13.901 20.638 13.7717 20.3257 13.7717 20C13.7717 19.6743 13.901 19.362 14.1311 19.1316Z" fill="white" stroke="white"/>
</g>
<defs>
<filter id="filter0_b_23922_20404" x="-14" y="-14" width="68" height="68" filterUnits="userSpaceOnUse" color-interpolation-filters="sRGB">
<feFlood flood-opacity="0" result="BackgroundImageFix"/>
<feGaussianBlur in="BackgroundImageFix" stdDeviation="7"/>
<feComposite in2="SourceAlpha" operator="in" result="effect1_backgroundBlur_23922_20404"/>
<feBlend mode="normal" in="SourceGraphic" in2="effect1_backgroundBlur_23922_20404" result="shape"/>
</filter>
</defs>
</svg>
