<svg width="80" height="80" viewBox="0 0 80 80" fill="none" xmlns="http://www.w3.org/2000/svg">
<circle cx="40" cy="40" r="40" fill="#1FC578"/>
<path d="M24.8623 39.2461C23.7171 38.4169 22.1165 38.6731 21.2874 39.8183C20.4583 40.9635 20.7145 42.564 21.8596 43.3932C25.85 46.2823 29.1144 50.7886 31.7918 56.7311C32.6921 58.7294 35.5238 58.746 36.4474 56.7582C41.6661 45.5268 49.2335 34.6708 58.3056 26.9044C59.3796 25.9849 59.5049 24.3689 58.5855 23.2949C57.666 22.2208 56.05 22.0955 54.9759 23.015C46.5563 30.2228 39.4304 39.8067 34.0956 49.967C31.5281 45.4812 28.4902 41.8728 24.8623 39.2461Z" fill="white"/>
</svg>
