<svg width="32" height="32" viewBox="0 0 32 32" fill="none" xmlns="http://www.w3.org/2000/svg">
<path fill-rule="evenodd" clip-rule="evenodd" d="M20.0934 29.5999H20.0927H20.0921H20.0914H12.0502H12.0495H12.0489H12.0482H9.94495C9.73936 29.5999 9.57306 29.4336 9.57306 29.228C9.57306 29.0224 9.73935 28.8561 9.94495 28.8561H12.0236C12.9938 28.7406 13.6853 28.3791 14.0775 27.7804C14.6203 26.9531 14.4883 25.854 14.3887 25.3573H6.63474C5.62325 25.3573 4.7998 24.5344 4.7998 23.5224V10.5025C4.7998 9.49104 5.62271 8.66759 6.63474 8.66759H9.57308L9.57309 2.77179C9.57309 2.5662 9.73936 2.3999 9.94497 2.3999H18.7632C18.7823 2.3999 18.8012 2.40138 18.8198 2.40424L18.8227 2.40469L18.8237 2.40486C18.8991 2.41702 18.9706 2.45226 19.0272 2.50883L22.4601 5.94176C22.5386 6.0202 22.5763 6.12753 22.568 6.23383V8.66758L25.5063 8.66759C26.5178 8.66759 27.3413 9.49051 27.3413 10.5025V21.747C27.3416 21.7537 27.3418 21.7604 27.3418 21.7672C27.3418 21.7739 27.3416 21.7806 27.3413 21.7873V23.5224C27.3418 24.5344 26.5184 25.3573 25.5069 25.3573H17.7535C17.6539 25.8538 17.5215 26.9533 18.064 27.7809C18.4558 28.3782 19.1459 28.7401 20.1139 28.8562H22.1961C22.4017 28.8562 22.568 29.0224 22.568 29.228C22.568 29.4336 22.4017 29.5999 22.1966 29.5999H20.0934ZM14.6646 24.6136C14.6763 24.613 14.688 24.613 14.6996 24.6136H17.4505C17.4568 24.6134 17.463 24.6134 17.4692 24.6136H25.5063C26.1082 24.6136 26.5975 24.1243 26.5975 23.5224V22.139H5.54348V23.5224C5.54348 24.1243 6.03277 24.6136 6.63468 24.6136H14.6646ZM15.1464 25.3573C15.2595 26.0114 15.3399 27.2077 14.7023 28.1836C14.5338 28.4417 14.3277 28.666 14.0852 28.8561L18.0558 28.8562C17.8135 28.6661 17.6077 28.442 17.4393 28.1841C16.8016 27.2079 16.8822 26.0113 16.9954 25.3573H15.1464ZM9.57308 9.41143L6.63474 9.41142C6.03336 9.41142 5.54354 9.90071 5.54354 10.5026V21.3953L26.5976 21.3954V10.5026C26.5976 9.90124 26.1083 9.41142 25.5064 9.41142H22.568V18.5234C22.5686 18.729 22.4018 18.8953 22.1967 18.8953H9.94502C9.73943 18.8953 9.57312 18.729 9.57312 18.5234L9.57308 9.41143ZM16.7657 23.7482H15.1198C14.9143 23.7482 14.748 23.582 14.748 23.3764C14.748 23.1708 14.9142 23.0045 15.1198 23.0045L16.7657 23.0045C16.9713 23.0045 17.1376 23.1708 17.1376 23.3764C17.1376 23.582 16.9713 23.7482 16.7657 23.7482ZM10.3168 18.1515H21.8242V9.03954V6.53823L19.7295 6.30894C19.1526 6.24572 18.7228 5.81594 18.6601 5.239L18.4308 3.14373H10.3168V9.03956V18.1515ZM21.1851 5.71969L19.2483 3.78289L19.3985 5.15823C19.424 5.39039 19.5776 5.54392 19.8097 5.56942L21.1851 5.71969ZM17.4532 8.75808C17.2799 8.52478 17.0065 8.38294 16.7073 8.38294L16.6934 8.38291C16.5006 8.47747 16.287 8.52688 16.0708 8.52688C15.8541 8.52688 15.641 8.47747 15.4482 8.38291H15.4344C15.1355 8.38291 14.8619 8.52478 14.6884 8.75813C15.0566 9.08502 15.5408 9.28393 16.0708 9.28393C16.6006 9.28393 17.0849 9.08502 17.4532 8.75808ZM13.9723 9.09296C13.9562 9.07769 13.9416 9.06111 13.9286 9.04344C13.5012 8.54787 13.2424 7.90301 13.2424 7.19876C13.2424 5.63955 14.5111 4.37039 16.0708 4.37039C17.63 4.37039 18.8992 5.63902 18.8992 7.19876C18.8992 7.90035 18.6423 8.54295 18.2178 9.03778C18.2027 9.05927 18.1852 9.07924 18.1655 9.09727C17.6476 9.66811 16.9002 10.0271 16.0708 10.0271C15.2393 10.0271 14.4904 9.66627 13.9723 9.09296ZM14.2212 8.15984C14.5311 7.83287 14.9652 7.63916 15.4344 7.63916L15.5411 7.63917C15.6076 7.63917 15.6729 7.65724 15.7303 7.69071C15.9359 7.81183 16.2063 7.81183 16.4119 7.69071C16.4692 7.65669 16.5346 7.63917 16.601 7.63917H16.7078C17.1767 7.63917 17.6107 7.83275 17.9207 8.1595C18.0706 7.87199 18.1554 7.54538 18.1554 7.19929C18.1554 6.04967 17.2199 5.11467 16.0708 5.11467C14.9217 5.11467 13.9862 6.04967 13.9862 7.19929C13.9862 7.54544 14.0711 7.87222 14.2212 8.15984ZM16.0708 7.54937C15.454 7.54937 14.952 7.04736 14.952 6.43057C14.952 5.8138 15.454 5.31176 16.0708 5.31176C16.6876 5.31176 17.1896 5.8138 17.1896 6.43057C17.1896 7.04736 16.6876 7.54937 16.0708 7.54937ZM16.0708 6.05552C15.8641 6.05552 15.6957 6.22393 15.6957 6.43057C15.6957 6.63723 15.8641 6.80564 16.0708 6.80564C16.2774 6.80564 16.4459 6.63723 16.4459 6.43057C16.4459 6.22393 16.2774 6.05552 16.0708 6.05552ZM17.9727 11.5933H11.8134C11.6078 11.5933 11.4415 11.427 11.4415 11.2214C11.4415 11.0158 11.6077 10.8495 11.8134 10.8495L17.9727 10.8495C18.1783 10.8495 18.3446 11.0158 18.3446 11.2214C18.3446 11.427 18.1777 11.5933 17.9727 11.5933ZM20.3282 11.5933H19.1505C18.9449 11.5933 18.7786 11.427 18.7786 11.2214C18.7786 11.0158 18.9448 10.8495 19.1505 10.8495L20.3282 10.8495C20.5338 10.8495 20.7001 11.0158 20.7001 11.2214C20.7001 11.427 20.5338 11.5933 20.3282 11.5933ZM17.9727 13.3172H11.8134C11.6078 13.3172 11.4415 13.1509 11.4415 12.9453C11.4415 12.7397 11.6077 12.5734 11.8134 12.5734L17.9727 12.5734C18.1783 12.5734 18.3446 12.7397 18.3446 12.9453C18.3446 13.1509 18.1777 13.3172 17.9727 13.3172ZM20.3282 13.3172H19.1505C18.9449 13.3172 18.7786 13.1509 18.7786 12.9453C18.7786 12.7397 18.9448 12.5734 19.1505 12.5734L20.3282 12.5734C20.5338 12.5734 20.7001 12.7397 20.7001 12.9453C20.7001 13.1509 20.5338 13.3172 20.3282 13.3172ZM17.9727 15.0416H11.8134C11.6078 15.0416 11.4415 14.8753 11.4415 14.6697C11.4415 14.4641 11.6077 14.2978 11.8134 14.2978L17.9727 14.2979C18.1783 14.2979 18.3446 14.4641 18.3446 14.6697C18.3446 14.8753 18.1777 15.0416 17.9727 15.0416ZM20.3282 15.0416H19.1505C18.9449 15.0416 18.7786 14.8753 18.7786 14.6697C18.7786 14.4641 18.9448 14.2978 19.1505 14.2978L20.3282 14.2979C20.5338 14.2979 20.7001 14.4641 20.7001 14.6697C20.7001 14.8753 20.5338 15.0416 20.3282 15.0416ZM17.9727 16.766H11.8134C11.6078 16.766 11.4415 16.5998 11.4415 16.3942C11.4415 16.1886 11.6077 16.0223 11.8134 16.0223H17.9727C18.1783 16.0223 18.3446 16.1886 18.3446 16.3942C18.3446 16.5998 18.1777 16.766 17.9727 16.766ZM20.3282 16.766H19.1505C18.9449 16.766 18.7786 16.5998 18.7786 16.3942C18.7786 16.1886 18.9448 16.0223 19.1505 16.0223H20.3282C20.5338 16.0223 20.7001 16.1886 20.7001 16.3942C20.7001 16.5998 20.5338 16.766 20.3282 16.766Z" fill="#6A90D9" stroke="#6A90D9" stroke-width="0.3"/>
</svg>
