<svg width="32" height="32" viewBox="0 0 32 32" fill="none" xmlns="http://www.w3.org/2000/svg">
<path fill-rule="evenodd" clip-rule="evenodd" d="M23.8982 27.7928H9.39784C9.19078 27.7928 9.02137 27.6297 9.02137 27.4226C9.02137 27.2156 9.19078 27.0525 9.39784 27.0525H23.8982C24.1053 27.0525 24.2684 27.2156 24.2684 27.4226C24.2684 27.6297 24.1053 27.7928 23.8982 27.7928ZM26.1822 29.5999H7.10765C6.90059 29.5999 6.73745 29.4368 6.73745 29.2297V28.1128H5.57039C5.36333 28.1128 5.2002 27.9497 5.2002 27.7426V2.7701C5.2002 2.56304 5.36333 2.3999 5.57039 2.3999H18.5335C18.7406 2.3999 18.9037 2.56304 18.9037 2.7701V3.88696H20.052C20.1461 3.88069 20.2465 3.91206 20.3155 3.9748L20.3218 3.98108L26.4269 9.39598L26.4331 9.40226L26.4394 9.40853L26.4457 9.4148L26.452 9.42108L26.4582 9.42735C26.5147 9.4901 26.5524 9.57794 26.5524 9.67833V29.2297C26.5524 29.4368 26.3892 29.5999 26.1822 29.5999ZM6.73745 27.3662V4.25716C6.73745 4.0501 6.90059 3.88696 7.10765 3.88696H18.1633V3.14657H5.94059V27.3662H6.73745ZM20.4473 5.08539V9.30814H25.2033L20.4473 5.08539ZM7.48412 28.8532H25.812V10.0485H20.0708C19.8637 10.0485 19.7006 9.88539 19.7006 9.67833V4.63363H18.5398H18.5335H18.5273H7.48412V27.7364V27.7426V28.8532ZM18.3202 21.3113H14.9759C14.7688 21.3113 14.5994 21.1481 14.5994 20.9411V12.9725H12.7422C12.5916 12.9725 12.4598 12.8846 12.4033 12.7466C12.3406 12.6148 12.372 12.4579 12.4661 12.3513L16.3939 8.04696C16.4629 7.96539 16.5696 7.92775 16.67 7.92775C16.7767 7.92775 16.8771 7.96539 16.9461 8.04696L20.83 12.3513C20.9304 12.4642 20.9492 12.6148 20.8927 12.7466C20.83 12.8783 20.6982 12.9725 20.5539 12.9725H18.6904V20.9411C18.6904 21.1481 18.5273 21.3113 18.3202 21.3113ZM15.3461 20.5709H17.95V12.6023C17.95 12.3952 18.1131 12.2258 18.3202 12.2258H19.7194L16.67 8.8501L13.5892 12.2258H14.9759C15.1829 12.2258 15.3461 12.3952 15.3461 12.6023V20.5709ZM23.8982 23.2752H9.39784C9.19078 23.2752 9.02137 23.1121 9.02137 22.905C9.02137 22.6979 9.19078 22.5348 9.39784 22.5348H23.8982C24.1053 22.5348 24.2684 22.6979 24.2684 22.905C24.2684 23.1121 24.1053 23.2752 23.8982 23.2752ZM23.8982 25.5089H9.39784C9.19078 25.5089 9.02137 25.3458 9.02137 25.1387C9.02137 24.9317 9.19078 24.7623 9.39784 24.7623H23.8982C24.1053 24.7623 24.2684 24.9317 24.2684 25.1387C24.2684 25.3458 24.1053 25.5089 23.8982 25.5089Z" fill="#6A90D9" stroke="#6A90D9" stroke-width="0.3"/>
</svg>
