<svg width="34" height="34" viewBox="0 0 24 24" fill="none" xmlns="http://www.w3.org/2000/svg">
<path d="M21.407 16.9686L14.8016 4.99274C14.0927 3.70753 13.0976 3 12.0007 3C10.9029 3 9.90778 3.70753 9.19889 4.99274L2.59285 16.9686C1.88707 18.2491 1.80885 19.4946 2.37218 20.4775C2.9353 21.4593 4.0393 22 5.4802 22H18.5203C19.9614 22 21.0645 21.4593 21.6276 20.4775C22.1914 19.4958 22.1127 18.2491 21.407 16.9686ZM20.301 19.6857C20.0283 20.1605 19.3796 20.4315 18.5203 20.4315H5.4802C4.62108 20.4315 3.97153 20.1591 3.69975 19.6857C3.42708 19.2107 3.51286 18.5004 3.9333 17.7371L10.5385 5.76146C10.9576 5.00316 11.49 4.56826 12.0007 4.56826C12.5107 4.56826 13.0429 5.00316 13.4611 5.76146L20.0658 17.7371C20.487 18.5004 20.5725 19.2107 20.301 19.6857Z" fill="#353E74"/>
<path d="M11.9998 16.394C11.4411 16.394 10.9875 16.8566 10.9875 17.4266C10.9875 17.9979 11.4411 18.4607 11.9998 18.4607C12.5593 18.4607 13.0129 17.9981 13.0129 17.4266C13.0129 16.8566 12.5593 16.394 11.9998 16.394Z" fill="#353E74"/>
<path d="M11.9998 8.91138C11.4411 8.91138 10.9875 9.37392 10.9875 9.94389C10.9875 9.97449 10.9935 10.0021 10.9958 10.0311H10.9907L11.3947 15.0335H11.3978C11.424 15.3505 11.6824 15.6019 12 15.6019C12.3184 15.6019 12.5767 15.351 12.6029 15.0335H12.6062L13.01 10.0311H13.0047C13.0073 10.0021 13.0129 9.97449 13.0129 9.94389C13.0129 9.37392 12.5593 8.91138 11.9998 8.91138Z" fill="#353E74"/>
</svg>
