<svg width="1440" height="745" viewBox="0 0 1440 745" fill="none" xmlns="http://www.w3.org/2000/svg">
<rect x="-49.5" y="0.5" width="109" height="109" fill="#FAFAFA" stroke="#F1F1F1"/>
<rect x="60.5" y="0.5" width="109" height="109" fill="#FAFAFA" stroke="#F1F1F1"/>
<rect x="170.5" y="0.5" width="109" height="109" fill="#FAFAFA" stroke="#F1F1F1"/>
<rect x="280.5" y="0.5" width="109" height="109" fill="#FAFAFA" stroke="#F1F1F1"/>
<rect x="390.5" y="0.5" width="109" height="109" fill="#FAFAFA" stroke="#F1F1F1"/>
<rect x="500.5" y="0.5" width="109" height="109" fill="#FAFAFA" stroke="#F1F1F1"/>
<rect x="610.5" y="0.5" width="109" height="109" fill="#FAFAFA"/>
<rect x="610.5" y="0.5" width="109" height="109" fill="url(#paint0_linear_22683_1020)"/>
<rect x="610.5" y="0.5" width="109" height="109" stroke="#F1F1F1"/>
<rect x="720.5" y="0.5" width="109" height="109" fill="#FAFAFA" stroke="#F1F1F1"/>
<rect x="830.5" y="0.5" width="109" height="109" fill="#FAFAFA" stroke="#F1F1F1"/>
<rect x="940.5" y="0.5" width="109" height="109" fill="#FAFAFA"/>
<rect x="940.5" y="0.5" width="109" height="109" fill="url(#paint1_linear_22683_1020)"/>
<rect x="940.5" y="0.5" width="109" height="109" stroke="#F1F1F1"/>
<rect x="1050.5" y="0.5" width="109" height="109" fill="#FAFAFA" stroke="#F1F1F1"/>
<rect x="1160.5" y="0.5" width="109" height="109" fill="#FAFAFA" stroke="#F1F1F1"/>
<rect x="1270.5" y="0.5" width="109" height="109" fill="#FAFAFA" stroke="#F1F1F1"/>
<rect x="1380.5" y="0.5" width="109" height="109" fill="#FAFAFA" stroke="#F1F1F1"/>
<rect x="-49.5" y="110.5" width="109" height="109" fill="#FAFAFA" stroke="#F1F1F1"/>
<rect x="60.5" y="110.5" width="109" height="109" fill="#FAFAFA" stroke="#F1F1F1"/>
<rect x="170.5" y="110.5" width="109" height="109" fill="#FAFAFA" stroke="#F1F1F1"/>
<rect x="280.5" y="110.5" width="109" height="109" fill="#FAFAFA" stroke="#F1F1F1"/>
<rect x="390.5" y="110.5" width="109" height="109" fill="#FAFAFA"/>
<rect x="390.5" y="110.5" width="109" height="109" fill="url(#paint2_linear_22683_1020)"/>
<rect x="390.5" y="110.5" width="109" height="109" stroke="#F1F1F1"/>
<rect x="500.5" y="110.5" width="109" height="109" fill="#FAFAFA" stroke="#F1F1F1"/>
<rect x="610.5" y="110.5" width="109" height="109" fill="#FAFAFA" stroke="#F1F1F1"/>
<rect x="720.5" y="110.5" width="109" height="109" fill="#FAFAFA" stroke="#F1F1F1"/>
<rect x="830.5" y="110.5" width="109" height="109" fill="url(#paint3_linear_22683_1020)" stroke="#F1F1F1"/>
<rect x="940.5" y="110.5" width="109" height="109" fill="#FAFAFA" stroke="#F1F1F1"/>
<rect x="1050.5" y="110.5" width="109" height="109" fill="#FAFAFA" stroke="#F1F1F1"/>
<rect x="1160.5" y="110.5" width="109" height="109" fill="#FAFAFA" stroke="#F1F1F1"/>
<rect x="1270.5" y="110.5" width="109" height="109" fill="#FAFAFA" stroke="#F1F1F1"/>
<rect x="1380.5" y="110.5" width="109" height="109" fill="#FAFAFA" stroke="#F1F1F1"/>
<rect x="-49.5" y="220.5" width="109" height="109" fill="#FAFAFA" stroke="#F1F1F1"/>
<rect x="60.5" y="220.5" width="109" height="109" fill="#FAFAFA" stroke="#F1F1F1"/>
<rect x="170.5" y="220.5" width="109" height="109" fill="#FAFAFA" stroke="#F1F1F1"/>
<rect x="280.5" y="220.5" width="109" height="109" fill="#FAFAFA" stroke="#F1F1F1"/>
<rect x="390.5" y="220.5" width="109" height="109" fill="#FAFAFA" stroke="#F1F1F1"/>
<rect x="500.5" y="220.5" width="109" height="109" fill="#FAFAFA"/>
<rect x="500.5" y="220.5" width="109" height="109" fill="url(#paint4_linear_22683_1020)"/>
<rect x="500.5" y="220.5" width="109" height="109" stroke="#F1F1F1"/>
<rect x="610.5" y="220.5" width="109" height="109" fill="#FAFAFA" stroke="#F1F1F1"/>
<rect x="720.5" y="220.5" width="109" height="109" fill="#FAFAFA"/>
<rect x="720.5" y="220.5" width="109" height="109" fill="url(#paint5_linear_22683_1020)"/>
<rect x="720.5" y="220.5" width="109" height="109" stroke="#F1F1F1"/>
<rect x="830.5" y="220.5" width="109" height="109" fill="#FAFAFA" stroke="#F1F1F1"/>
<rect x="940.5" y="220.5" width="109" height="109" fill="#FAFAFA" stroke="#F1F1F1"/>
<rect x="1050.5" y="220.5" width="109" height="109" fill="#FAFAFA" stroke="#F1F1F1"/>
<rect x="1160.5" y="220.5" width="109" height="109" fill="#FAFAFA" stroke="#F1F1F1"/>
<rect x="1270.5" y="220.5" width="109" height="109" fill="#FAFAFA" stroke="#F1F1F1"/>
<rect x="1380.5" y="220.5" width="109" height="109" fill="#FAFAFA" stroke="#F1F1F1"/>
<rect x="-49.5" y="330.5" width="109" height="109" fill="#FAFAFA" stroke="#F1F1F1"/>
<rect x="60.5" y="330.5" width="109" height="109" fill="#FAFAFA" stroke="#F1F1F1"/>
<rect x="170.5" y="330.5" width="109" height="109" fill="#FAFAFA" stroke="#F1F1F1"/>
<rect x="280.5" y="330.5" width="109" height="109" fill="#FAFAFA" stroke="#F1F1F1"/>
<rect x="390.5" y="330.5" width="109" height="109" fill="#FAFAFA" stroke="#F1F1F1"/>
<rect x="500.5" y="330.5" width="109" height="109" fill="#FAFAFA" stroke="#F1F1F1"/>
<rect x="610.5" y="330.5" width="109" height="109" fill="#FAFAFA" stroke="#F1F1F1"/>
<rect x="720.5" y="330.5" width="109" height="109" fill="#FAFAFA" stroke="#F1F1F1"/>
<rect x="830.5" y="330.5" width="109" height="109" fill="#FAFAFA" stroke="#F1F1F1"/>
<rect x="940.5" y="330.5" width="109" height="109" fill="#FAFAFA" stroke="#F1F1F1"/>
<rect x="1050.5" y="330.5" width="109" height="109" fill="#FAFAFA" stroke="#F1F1F1"/>
<rect x="1160.5" y="330.5" width="109" height="109" fill="#FAFAFA" stroke="#F1F1F1"/>
<rect x="1270.5" y="330.5" width="109" height="109" fill="#FAFAFA" stroke="#F1F1F1"/>
<rect x="1380.5" y="330.5" width="109" height="109" fill="#FAFAFA" stroke="#F1F1F1"/>
<rect x="-49.5" y="440.5" width="109" height="109" fill="#FAFAFA" stroke="#F1F1F1"/>
<rect x="60.5" y="440.5" width="109" height="109" fill="#FAFAFA" stroke="#F1F1F1"/>
<rect x="170.5" y="440.5" width="109" height="109" fill="#FAFAFA" stroke="#F1F1F1"/>
<rect x="280.5" y="440.5" width="109" height="109" fill="#FAFAFA" stroke="#F1F1F1"/>
<rect x="390.5" y="440.5" width="109" height="109" fill="#FAFAFA" stroke="#F1F1F1"/>
<rect x="500.5" y="440.5" width="109" height="109" fill="#FAFAFA" stroke="#F1F1F1"/>
<rect x="610.5" y="440.5" width="109" height="109" fill="#FAFAFA" stroke="#F1F1F1"/>
<rect x="720.5" y="440.5" width="109" height="109" fill="#FAFAFA" stroke="#F1F1F1"/>
<rect x="830.5" y="440.5" width="109" height="109" fill="#FAFAFA" stroke="#F1F1F1"/>
<rect x="940.5" y="440.5" width="109" height="109" fill="#FAFAFA" stroke="#F1F1F1"/>
<rect x="1050.5" y="440.5" width="109" height="109" fill="#FAFAFA" stroke="#F1F1F1"/>
<rect x="1160.5" y="440.5" width="109" height="109" fill="#FAFAFA" stroke="#F1F1F1"/>
<rect x="1270.5" y="440.5" width="109" height="109" fill="#FAFAFA" stroke="#F1F1F1"/>
<rect x="1380.5" y="440.5" width="109" height="109" fill="#FAFAFA" stroke="#F1F1F1"/>
<rect x="-49.5" y="550.5" width="109" height="109" fill="#FAFAFA" stroke="#F1F1F1"/>
<rect x="60.5" y="550.5" width="109" height="109" fill="#FAFAFA" stroke="#F1F1F1"/>
<rect x="170.5" y="550.5" width="109" height="109" fill="#FAFAFA" stroke="#F1F1F1"/>
<rect x="280.5" y="550.5" width="109" height="109" fill="#FAFAFA" stroke="#F1F1F1"/>
<rect x="390.5" y="550.5" width="109" height="109" fill="#FAFAFA" stroke="#F1F1F1"/>
<rect x="500.5" y="550.5" width="109" height="109" fill="#FAFAFA" stroke="#F1F1F1"/>
<rect x="610.5" y="550.5" width="109" height="109" fill="#FAFAFA" stroke="#F1F1F1"/>
<rect x="720.5" y="550.5" width="109" height="109" fill="#FAFAFA" stroke="#F1F1F1"/>
<rect x="830.5" y="550.5" width="109" height="109" fill="#FAFAFA" stroke="#F1F1F1"/>
<rect x="940.5" y="550.5" width="109" height="109" fill="#FAFAFA" stroke="#F1F1F1"/>
<rect x="1050.5" y="550.5" width="109" height="109" fill="#FAFAFA" stroke="#F1F1F1"/>
<rect x="1160.5" y="550.5" width="109" height="109" fill="#FAFAFA" stroke="#F1F1F1"/>
<rect x="1270.5" y="550.5" width="109" height="109" fill="#FAFAFA" stroke="#F1F1F1"/>
<rect x="1380.5" y="550.5" width="109" height="109" fill="#FAFAFA" stroke="#F1F1F1"/>
<rect x="-49.5" y="660.5" width="109" height="109" fill="#FAFAFA" stroke="#F1F1F1"/>
<rect x="60.5" y="660.5" width="109" height="109" fill="#FAFAFA" stroke="#F1F1F1"/>
<rect x="170.5" y="660.5" width="109" height="109" fill="#FAFAFA" stroke="#F1F1F1"/>
<rect x="280.5" y="660.5" width="109" height="109" fill="#FAFAFA" stroke="#F1F1F1"/>
<rect x="390.5" y="660.5" width="109" height="109" fill="#FAFAFA" stroke="#F1F1F1"/>
<rect x="500.5" y="660.5" width="109" height="109" fill="#FAFAFA" stroke="#F1F1F1"/>
<rect x="610.5" y="660.5" width="109" height="109" fill="#FAFAFA" stroke="#F1F1F1"/>
<rect x="720.5" y="660.5" width="109" height="109" fill="#FAFAFA" stroke="#F1F1F1"/>
<rect x="830.5" y="660.5" width="109" height="109" fill="#FAFAFA" stroke="#F1F1F1"/>
<rect x="940.5" y="660.5" width="109" height="109" fill="#FAFAFA" stroke="#F1F1F1"/>
<rect x="1050.5" y="660.5" width="109" height="109" fill="#FAFAFA" stroke="#F1F1F1"/>
<rect x="1160.5" y="660.5" width="109" height="109" fill="#FAFAFA" stroke="#F1F1F1"/>
<rect x="1270.5" y="660.5" width="109" height="109" fill="#FAFAFA" stroke="#F1F1F1"/>
<rect x="1380.5" y="660.5" width="109" height="109" fill="#FAFAFA" stroke="#F1F1F1"/>
<defs>
<linearGradient id="paint0_linear_22683_1020" x1="665" y1="0" x2="665" y2="110" gradientUnits="userSpaceOnUse">
<stop stop-color="#FAFAFA"/>
<stop offset="1" stop-color="#EBEBEB"/>
</linearGradient>
<linearGradient id="paint1_linear_22683_1020" x1="995" y1="0" x2="995" y2="110" gradientUnits="userSpaceOnUse">
<stop stop-color="#FAFAFA"/>
<stop offset="1" stop-color="#EBEBEB"/>
</linearGradient>
<linearGradient id="paint2_linear_22683_1020" x1="445" y1="110" x2="445" y2="220" gradientUnits="userSpaceOnUse">
<stop stop-color="#FAFAFA"/>
<stop offset="1" stop-color="#EBEBEB"/>
</linearGradient>
<linearGradient id="paint3_linear_22683_1020" x1="885" y1="110" x2="885" y2="220" gradientUnits="userSpaceOnUse">
<stop stop-color="#FAFAFA"/>
<stop offset="1" stop-color="#EBEBEB"/>
</linearGradient>
<linearGradient id="paint4_linear_22683_1020" x1="555" y1="220" x2="555" y2="330" gradientUnits="userSpaceOnUse">
<stop stop-color="#FAFAFA"/>
<stop offset="1" stop-color="#EBEBEB"/>
</linearGradient>
<linearGradient id="paint5_linear_22683_1020" x1="775" y1="220" x2="775" y2="330" gradientUnits="userSpaceOnUse">
<stop stop-color="#FAFAFA"/>
<stop offset="1" stop-color="#EBEBEB"/>
</linearGradient>
</defs>
</svg>
