<svg width="31" height="34" viewBox="0 0 31 34" fill="none" xmlns="http://www.w3.org/2000/svg">
<path fill-rule="evenodd" clip-rule="evenodd" d="M10.073 0.958256C9.99901 0.957967 9.92567 0.972331 9.85724 1.00052C9.7888 1.02871 9.72662 1.07017 9.67429 1.1225C9.62195 1.17484 9.58049 1.23702 9.5523 1.30545C9.52411 1.37389 9.50975 1.44723 9.51004 1.52124C9.51033 1.59488 9.52512 1.66775 9.55357 1.73568C9.58202 1.80361 9.62356 1.86527 9.67584 1.91714C9.72812 1.96901 9.7901 2.01007 9.85825 2.03799C9.9264 2.0659 9.99938 2.08012 10.073 2.07984H11.8156V4.21347C9.94944 4.64593 8.21956 5.43484 6.70281 6.50592L4.73238 4.53549C4.6273 4.43102 4.48515 4.37238 4.33697 4.37238C4.1888 4.37238 4.04664 4.43102 3.94156 4.53549L1.54946 6.92322C1.49707 6.97534 1.45551 7.0373 1.42714 7.10553C1.39878 7.17376 1.38417 7.24692 1.38417 7.32082C1.38417 7.39471 1.39878 7.46787 1.42714 7.53611C1.45551 7.60434 1.49707 7.66629 1.54946 7.71841L3.46839 9.63407C1.61226 12.0823 0.51001 15.1312 0.51001 18.4358C0.51001 26.4938 7.06013 33.0416 15.1278 33.0416C23.1954 33.0416 29.7489 26.4938 29.7489 18.4358C29.7489 11.5169 24.9165 5.71656 18.4433 4.21456V2.07984H20.1859C20.334 2.07955 20.4761 2.02064 20.5809 1.91598C20.6858 1.81131 20.745 1.6694 20.7456 1.52124C20.7458 1.4475 20.7316 1.37443 20.7036 1.30621C20.6756 1.23799 20.6345 1.17596 20.5825 1.12367C20.5305 1.07138 20.4687 1.02985 20.4006 1.00147C20.3326 0.973083 20.2596 0.958399 20.1859 0.958256H10.073ZM12.9372 2.07984H17.3217V3.99989C16.6058 3.89205 15.8735 3.8356 15.1278 3.8356C14.3836 3.8356 13.6516 3.8914 12.9372 3.9988V2.07984ZM15.1278 4.95717C16.0181 4.95717 16.8872 5.04421 17.7291 5.20799C17.7603 5.21659 17.7922 5.22246 17.8245 5.22555C23.9918 6.47148 28.6273 11.9074 28.6273 18.4359C28.6273 25.8869 22.5902 31.9189 15.1278 31.9189C7.66551 31.9189 1.62836 25.8869 1.62836 18.4359C1.62836 15.2535 2.73032 12.3317 4.57359 10.0273C4.58876 10.016 4.60334 10.0039 4.61729 9.99115C4.66118 9.94706 4.69742 9.89598 4.72454 9.83999C5.37556 9.05519 6.11493 8.34595 6.92608 7.72608C6.97013 7.70134 7.01064 7.67076 7.0465 7.63517C7.04688 7.63441 7.04726 7.63364 7.04763 7.63287C8.6118 6.46532 10.4385 5.62969 12.4244 5.22761C12.4668 5.22433 12.5087 5.21625 12.5492 5.20351C13.3837 5.04275 14.2459 4.95717 15.1278 4.95717ZM4.33588 5.72717L5.80576 7.19376C5.22537 7.67458 4.68333 8.19975 4.18362 8.76332L2.73785 7.32081L4.33588 5.72717ZM15.3217 7.30439C15.2474 7.30309 15.1736 7.31656 15.1046 7.34402C15.0355 7.37148 14.9726 7.41239 14.9195 7.46436C14.8664 7.51633 14.8242 7.57833 14.7953 7.64676C14.7663 7.71519 14.7513 7.78869 14.751 7.86298V12.3263C14.7516 12.4743 14.8106 12.616 14.9153 12.7207C15.0199 12.8253 15.1617 12.8843 15.3096 12.8849C15.4584 12.8855 15.6012 12.827 15.7068 12.7222C15.8124 12.6174 15.872 12.475 15.8726 12.3263V8.55083C21.0642 8.94813 25.1585 13.169 25.1585 18.4358C25.1585 23.9731 20.6739 28.4545 15.1278 28.4545C9.58173 28.4545 5.10149 23.9731 5.10149 18.4358C5.10149 16.0556 5.94766 13.7572 7.49362 11.9451C7.54153 11.8892 7.57795 11.8244 7.6008 11.7543C7.62365 11.6843 7.63248 11.6105 7.6268 11.5371C7.62111 11.4636 7.60101 11.392 7.56765 11.3264C7.53428 11.2607 7.48831 11.2022 7.43236 11.1543C7.37634 11.1065 7.31145 11.0702 7.24138 11.0474C7.17132 11.0247 7.09746 11.0159 7.02402 11.0217C6.95059 11.0275 6.87901 11.0477 6.81338 11.0812C6.74776 11.1147 6.68937 11.1607 6.64156 11.2168C4.9227 13.2315 3.9789 15.7889 3.9789 18.4358C3.9789 24.58 8.9765 29.5761 15.1279 29.5761C21.2793 29.5761 26.2802 24.58 26.2802 18.4358C26.2802 12.3659 21.3979 7.40862 15.3217 7.30439ZM8.89448 11.6461C8.8022 11.6503 8.71238 11.6772 8.633 11.7244C8.55362 11.7717 8.48714 11.8378 8.43945 11.9169C8.39177 11.996 8.36436 12.0857 8.35967 12.1779C8.35498 12.2702 8.37315 12.3621 8.41256 12.4457C8.41256 12.4457 9.29064 14.3451 10.268 16.3625C10.7567 17.3711 11.2693 18.4093 11.7127 19.2595C12.1561 20.1097 12.4801 20.7191 12.785 21.081C13.7633 22.2426 15.5119 22.3969 16.6755 21.4205C17.839 20.4441 17.9934 18.6917 17.015 17.53C16.7102 17.1681 16.159 16.7452 15.3961 16.1631C14.6333 15.581 13.6998 14.9002 12.7883 14.2464C10.9653 12.9387 9.24059 11.7469 9.24059 11.7469C9.13945 11.6761 9.0178 11.6407 8.89448 11.6461ZM10.3381 13.8948C10.9971 14.3558 11.2128 14.4966 12.1344 15.1576C13.0408 15.8078 13.9708 16.4877 14.7182 17.058C15.4655 17.6282 16.0674 18.1511 16.1541 18.254C16.7419 18.9519 16.6551 19.9727 15.9559 20.5596C15.2565 21.1465 14.2293 21.0593 13.6415 20.3614C13.5548 20.2584 13.1449 19.5711 12.7105 18.7382C12.2761 17.9053 11.7638 16.877 11.2779 15.874C10.7845 14.8555 10.6798 14.6218 10.3381 13.8948Z" fill="white" stroke="white" stroke-width="0.729167"/>
</svg>
