<svg width="80" height="80" viewBox="0 0 80 80" fill="none" xmlns="http://www.w3.org/2000/svg">
<g clip-path="url(#clip0_23929_3496)">
<path d="M1.27927 77.8096C2.57505 79.1054 4.54213 79.4545 6.20452 78.6835L51.3216 59.2589C53.5298 58.235 54.0459 55.3262 52.3248 53.605L25.5814 26.8615C23.8602 25.1403 20.9514 25.6564 19.9274 27.8648L0.405418 72.8844C-0.365475 74.5467 -0.0165121 76.5138 1.27927 77.8096Z" fill="#FFE266"/>
<path d="M38.8627 55.0035L5.69744 69.2823C4.5253 69.8258 3.14854 69.6102 2.19739 68.7515L0.405266 72.8842C-0.365627 74.5467 -0.0166647 76.5136 1.27912 77.8094C2.5749 79.1052 4.54198 79.4542 6.20436 78.6833L50.8887 59.4451C49.8593 59.0325 39.0301 54.9259 38.8627 55.0035Z" fill="#EFAA66"/>
<path d="M52.6373 57.4345C55.7202 54.3516 51.2379 44.871 42.6259 36.2589C34.0138 27.6469 24.5332 23.1646 21.4503 26.2475C18.3674 29.3304 22.8497 38.811 31.4617 47.4231C40.0738 56.0351 49.5544 60.5174 52.6373 57.4345Z" fill="#FFE266"/>
<path d="M44.8242 53.4617C46.8466 51.4393 43.5709 44.8848 37.5078 38.8217C31.4447 32.7586 24.8902 29.4829 22.8678 31.5052C20.8455 33.5276 24.1212 40.0821 30.1843 46.1452C36.2474 52.2083 42.8019 55.484 44.8242 53.4617Z" fill="#EFAA66"/>
<path d="M49.8625 60.0146C44.948 60.0146 37.3371 55.5601 30.3354 48.5584C23.9776 42.2004 19.6208 35.1984 18.966 30.2848C18.8491 29.4068 19.4657 28.6003 20.3438 28.4834C21.221 28.3668 22.0283 28.9831 22.1452 29.8611C22.7031 34.0464 26.8082 40.4953 32.6035 46.2904C40.0082 53.6951 46.8362 56.9237 50.0452 56.8037C50.9291 56.7715 51.676 57.4576 51.7113 58.3426C51.7464 59.2275 51.0574 59.9736 50.1724 60.0087C50.0705 60.0125 49.9666 60.0146 49.8625 60.0146Z" fill="#D0844B"/>
<path d="M32.7164 35.2571C32.34 34.8807 32.0496 34.4077 31.8882 33.8612L30.4053 28.8417C29.8451 26.9461 30.3506 24.9152 31.7242 23.5416L34.42 20.8458C35.7937 19.4721 37.8246 18.9668 39.7202 19.527L45.1198 21.0509L43.2986 14.5536C42.7826 12.807 43.7802 10.9729 45.5268 10.4568C47.2734 9.94075 49.1075 10.9384 49.6237 12.685L51.1067 17.7045C51.6667 19.6002 51.1614 21.6312 49.7878 23.0046L47.092 25.7004C45.7184 27.0739 43.6875 27.5792 41.792 27.0192L36.3372 25.2404L38.2133 31.9926C38.7294 33.7392 37.7317 35.5733 35.9852 36.0894C34.7848 36.4439 33.5431 36.0838 32.7164 35.2571Z" fill="#CAB4EF"/>
<path d="M45.1198 21.0511L39.7202 19.5272C38.0908 19.0457 36.362 19.352 35.0361 20.3195C35.4074 21.8041 35.8796 23.7789 36.337 25.2405L41.7918 27.0193C43.4984 27.5235 45.3143 27.1638 46.6619 26.0848C46.1846 24.5908 45.5739 22.5522 45.1198 21.0511Z" fill="#A183E2"/>
<path d="M53.6004 32.9102C53.9768 33.2866 54.4499 33.577 54.9963 33.7383L60.0158 35.2213C61.9112 35.7813 63.9423 35.2759 65.3158 33.9024L68.0116 31.2066C69.3854 29.8329 69.8907 27.802 69.3305 25.9064L67.8065 20.5068L74.3039 22.3278C76.0504 22.8438 77.8847 21.8462 78.4008 20.0996C78.9169 18.353 77.9192 16.5189 76.1726 16.0028L71.1531 14.5199C69.2574 13.9599 67.2265 14.4654 65.8531 15.8388L63.1573 18.5346C61.7837 19.9081 61.2784 21.939 61.8384 23.8346L63.617 29.2894L56.8649 27.4132C55.1183 26.8972 53.2842 27.8948 52.7681 29.6414C52.4134 30.8417 52.7737 32.0835 53.6004 32.9102Z" fill="#F7C4DB"/>
<path d="M69.3303 25.9063L67.8064 20.5067C66.2354 20.1681 64.0377 19.735 62.4698 19.3833C61.6302 20.6751 61.3846 22.2991 61.8382 23.8347L63.6169 29.2894C65.2432 29.691 66.9641 29.968 68.5255 30.6074C69.5029 29.2792 69.8139 27.5425 69.3303 25.9063Z" fill="#EF8BBD"/>
<path d="M61.2777 5.793C60.2321 6.83861 58.5367 6.83861 57.4911 5.793C56.4455 4.7474 56.4455 3.05198 57.4911 2.00637C58.5367 0.960767 60.2321 0.960767 61.2777 2.00637C62.3233 3.05214 62.3233 4.7474 61.2777 5.793Z" fill="#FFA585"/>
<path d="M65.3181 50.2759C66.7968 50.2759 67.9956 49.0772 67.9956 47.5984C67.9956 46.1197 66.7968 44.9209 65.3181 44.9209C63.8393 44.9209 62.6406 46.1197 62.6406 47.5984C62.6406 49.0772 63.8393 50.2759 65.3181 50.2759Z" fill="#78EAC4"/>
<path d="M50.6705 49.9781C49.6249 51.0237 47.9294 51.0237 46.8838 49.9781C45.8382 48.9325 45.8382 47.237 46.8838 46.1914C47.9294 45.1458 49.6249 45.1458 50.6705 46.1914C51.7161 47.2372 51.7161 48.9325 50.6705 49.9781Z" fill="#78EAC4"/>
<path d="M50.6705 49.9781C49.6249 51.0237 47.9294 51.0237 46.8838 49.9781C45.8382 48.9325 45.8382 47.237 46.8838 46.1914C47.9294 45.1458 49.6249 45.1458 50.6705 46.1914C51.7161 47.2372 51.7161 48.9325 50.6705 49.9781Z" fill="#8BB6EF"/>
<path d="M14.5782 57.8278C14.3667 57.8278 14.1514 57.7856 13.9449 57.6966C13.1313 57.3464 12.7558 56.4031 13.1062 55.5896L15.1371 50.8725C15.4873 50.0591 16.4309 49.6829 17.2442 50.0337C18.0577 50.384 18.4333 51.3273 18.0829 52.1408L16.052 56.8579C15.7907 57.4646 15.1995 57.8278 14.5782 57.8278Z" fill="white"/>
<path d="M18.882 47.8323C18.6705 47.8323 18.4554 47.7901 18.2485 47.7011C17.4351 47.3509 17.0596 46.4076 17.41 45.5939L18.029 44.156C18.3792 43.3428 19.3222 42.9665 20.1362 43.3174C20.9496 43.6677 21.3252 44.611 20.975 45.4247L20.3559 46.8626C20.0945 47.4691 19.5031 47.8323 18.882 47.8323Z" fill="white"/>
<path d="M31.4671 1.30372L32.7844 5.00792C32.8408 5.16652 32.9525 5.29225 33.0934 5.35576L36.3843 6.83853C36.8493 7.04797 36.8493 7.78871 36.3843 7.99831L33.0934 9.48108C32.9525 9.54459 32.8408 9.67032 32.7844 9.82876L31.4671 13.533C31.2811 14.0562 30.6228 14.0562 30.4367 13.533L29.1195 9.82876C29.063 9.67016 28.9514 9.54443 28.8104 9.48108L25.5195 7.99831C25.0546 7.78887 25.0546 7.04813 25.5195 6.83853L28.8104 5.35576C28.9514 5.29225 29.063 5.16652 29.1195 5.00792L30.4367 1.30372C30.6228 0.780272 31.2811 0.780272 31.4671 1.30372Z" fill="#F7C4DB"/>
<path d="M76.0939 34.6036L77.0711 37.3512C77.1129 37.4689 77.1957 37.5621 77.3002 37.6092L79.7414 38.709C80.0863 38.8644 80.0863 39.4138 79.7414 39.5692L77.3002 40.669C77.1957 40.7162 77.1129 40.8094 77.0711 40.9271L76.0939 43.6747C75.9558 44.0629 75.4677 44.0629 75.3296 43.6747L74.3525 40.9271C74.3106 40.8094 74.2279 40.7162 74.1233 40.669L71.6822 39.5692C71.3372 39.4138 71.3372 38.8644 71.6822 38.709L74.1233 37.6092C74.2279 37.5621 74.3106 37.4689 74.3525 37.3512L75.3296 34.6036C75.4677 34.2155 75.9558 34.2155 76.0939 34.6036Z" fill="#CAB4EF"/>
<path d="M57.9251 13.9122C58.6103 13.9122 59.1658 13.3567 59.1658 12.6714C59.1658 11.9862 58.6103 11.4307 57.9251 11.4307C57.2398 11.4307 56.6843 11.9862 56.6843 12.6714C56.6843 13.3567 57.2398 13.9122 57.9251 13.9122Z" fill="#78EAC4"/>
<path d="M76.7111 4.99254C76.8654 3.73645 75.9722 2.59308 74.716 2.43874C73.4598 2.28441 72.3164 3.17756 72.1621 4.43365C72.0078 5.68974 72.901 6.83312 74.1572 6.98745C75.4134 7.14179 76.5568 6.24864 76.7111 4.99254Z" fill="#8BB6EF"/>
</g>
<defs>
<clipPath id="clip0_23929_3496">
<rect width="80" height="80" fill="white"/>
</clipPath>
</defs>
</svg>
