<svg width="28" height="28" viewBox="0 0 28 28" fill="none" xmlns="http://www.w3.org/2000/svg">
<circle cx="14" cy="14" r="13.5" transform="rotate(-90 14 14)" stroke="#E3E7EF"/>
<g clip-path="url(#clip0_182_6958)">
<path d="M17.5 5.99995C17.7763 5.99995 18 6.22383 18 6.49995V20.293L20.1465 18.1465C20.1929 18.1 20.248 18.0631 20.3086 18.038C20.3693 18.0128 20.4343 17.9999 20.5 17.9999C20.5656 17.9999 20.6307 18.0128 20.6913 18.038C20.752 18.0631 20.8071 18.1 20.8535 18.1465C20.9511 18.2441 21 18.3721 21 18.5C21 18.6278 20.9511 18.7558 20.8535 18.8535L17.8535 21.8535C17.8071 21.8999 17.752 21.9368 17.6913 21.9619C17.6307 21.9871 17.5656 22 17.5 22C17.4343 22 17.3693 21.9871 17.3086 21.9619C17.248 21.9368 17.1929 21.8999 17.1465 21.8535L14.1465 18.8535C13.9511 18.6581 13.9511 18.3417 14.1465 18.1465C14.3418 17.9512 14.6582 17.9511 14.8535 18.1465L17 20.293V6.49995C17 6.22383 17.2236 5.99995 17.5 5.99995ZM10.1465 6.14645L7.14647 9.14645C6.9511 9.34183 6.9511 9.6582 7.14647 9.85345C7.34185 10.0487 7.65822 10.0488 7.85347 9.85345L9.99997 7.70695V21.5C9.99997 21.7761 10.2236 22 10.5 22C10.7763 22 11 21.7761 11 21.5V7.70695L13.1465 9.85345C13.1929 9.89991 13.248 9.93677 13.3086 9.96191C13.3693 9.98706 13.4343 10 13.5 10C13.5656 10 13.6307 9.98706 13.6913 9.96191C13.752 9.93677 13.8071 9.89991 13.8535 9.85345C13.9511 9.75583 14 9.62783 14 9.49995C14 9.37208 13.9511 9.24408 13.8535 9.14645L10.8535 6.14645C10.8071 6.09999 10.752 6.06314 10.6913 6.03799C10.6307 6.01285 10.5656 5.9999 10.5 5.9999C10.4343 5.9999 10.3693 6.01285 10.3086 6.03799C10.248 6.06314 10.1929 6.09999 10.1465 6.14645Z" fill="#58595B"/>
</g>
<defs>
<clipPath id="clip0_182_6958">
<rect width="16" height="16" fill="white" transform="matrix(0 -1 1 0 6 22)"/>
</clipPath>
</defs>
</svg>
