<svg xmlns="http://www.w3.org/2000/svg" width="54" height="54" viewBox="0 0 54 54" fill="none">
<rect width="54" height="54" rx="8" fill="red" />
<path d="M34.3109 17.6218H31.5126V17.6269C31.5126 16.1798 30.3176 15 28.8706 15H26.0874C24.6403 15 23.4454 16.1798 23.4454 17.6269V17.6218H20.6471C19.2 17.6218 18 18.8067 18 20.2487V22.4521C18 22.7849 18.2975 23.0672 18.6303 23.0672H19.916V36.3731C19.916 37.8202 21.0706 39 22.5176 39H32.4454C33.8924 39 35.0471 37.8202 35.0471 36.3731V23.0672H36.3328C36.6655 23.0672 36.963 22.7899 36.963 22.4521V20.2487C36.958 18.8067 35.758 17.6218 34.3109 17.6218ZM26.0874 16.2101H28.8706C29.6471 16.2101 30.2975 16.8454 30.3025 17.6218H24.6555C24.6605 16.8454 25.3109 16.2101 26.0874 16.2101ZM33.8319 36.3731C33.8319 37.1496 33.2218 37.7899 32.4403 37.7899H22.5176C21.7412 37.7899 21.1261 37.1496 21.1261 36.3731V23.0672H33.8319V36.3731ZM35.7479 21.8571H19.2101V20.2487C19.2101 19.4723 19.8706 18.8319 20.6471 18.8319H34.3109C35.0874 18.8319 35.7479 19.4723 35.7479 20.2487V21.8571Z" fill="#FFFFFF"/>
<path d="M30.0505 34.4923C30.3832 34.4923 30.6555 34.2201 30.6555 33.8873V26.3243C30.6555 25.9915 30.3832 25.7192 30.0505 25.7192C29.7177 25.7192 29.4454 25.9915 29.4454 26.3243V33.8873C29.4454 34.2201 29.7177 34.4923 30.0505 34.4923Z" fill="#FFFFFF"/>
<path d="M24.9075 34.4923C25.2403 34.4923 25.5126 34.2201 25.5126 33.8873V26.3243C25.5126 25.9915 25.2403 25.7192 24.9075 25.7192C24.5748 25.7192 24.3025 25.9915 24.3025 26.3243V33.8873C24.3025 34.2201 24.5748 34.4923 24.9075 34.4923Z" fill="#FFFFFF"/>
</svg>