<svg width="24" height="24" viewBox="0 0 24 24" fill="none" xmlns="http://www.w3.org/2000/svg">
<path fill-rule="evenodd" clip-rule="evenodd" d="M15.6111 1.58364C17.2678 1.34697 18.75 2.63249 18.75 4.306V5.6825C19.9395 6.31125 20.75 7.56096 20.75 8.99998V19C20.75 21.071 19.0711 22.75 17 22.75H7C4.92893 22.75 3.25 21.071 3.25 19V4.99998C3.25 4.99068 3.25017 4.98142 3.2505 4.97221C3.25017 4.95782 3.25 4.94338 3.25 4.92891C3.25 4.02266 3.91638 3.25431 4.81353 3.12615L15.6111 1.58364ZM4.75 6.74998V19C4.75 20.2426 5.75736 21.25 7 21.25H17C18.2426 21.25 19.25 20.2426 19.25 19V8.99998C19.25 7.75734 18.2426 6.74998 17 6.74998H4.75ZM5.07107 5.24998H17.25V4.306C17.25 3.54531 16.5763 2.96098 15.8232 3.06856L5.02566 4.61107C4.86749 4.63367 4.75 4.76913 4.75 4.92891C4.75 5.10623 4.89375 5.24998 5.07107 5.24998ZM7.25 12C7.25 11.5858 7.58579 11.25 8 11.25H16C16.4142 11.25 16.75 11.5858 16.75 12C16.75 12.4142 16.4142 12.75 16 12.75H8C7.58579 12.75 7.25 12.4142 7.25 12ZM7.25 15.5C7.25 15.0858 7.58579 14.75 8 14.75H13.5C13.9142 14.75 14.25 15.0858 14.25 15.5C14.25 15.9142 13.9142 16.25 13.5 16.25H8C7.58579 16.25 7.25 15.9142 7.25 15.5Z" fill="#2B4078"/>
</svg>
