<svg width="28" height="32" viewBox="0 0 28 32" fill="none" xmlns="http://www.w3.org/2000/svg">
<path d="M27.4367 14.6038L24.0538 12.0613V4.50003C24.0538 4.36753 24.0001 4.24003 23.9041 4.14627L19.8099 0.14625C19.7139 0.0524994 19.5834 0 19.4478 0H4.09424C3.81148 0 3.58245 0.223751 3.58245 0.500002V12.0613L0.199598 14.6038C0.0742113 14.6988 0 14.8451 0 15.0001V31.5C0 31.7763 0.229024 32 0.511784 32H27.1246C27.4073 32 27.6364 31.7763 27.6364 31.5V15.0001C27.6364 14.8451 27.5634 14.6976 27.4367 14.6038ZM24.0538 13.3238L26.2852 15.0013L24.0538 16.6789V13.3238ZM26.6128 16.0164V30.4865L16.986 23.2516L26.6128 16.0164ZM13.8183 22.1313L25.62 31.0014L2.01665 31.0001L13.8183 22.13V22.1313ZM19.9597 1.7075L22.3063 4.00003H19.9597V1.7075ZM4.60619 1.00001H18.9362V4.50019C18.9362 4.77644 19.1652 5.00019 19.4479 5.00019H23.0306V17.4466L16.147 22.6191L14.1306 21.1041C13.9463 20.9666 13.6904 20.9666 13.5062 21.1041L11.4898 22.6191L4.60616 17.4466L4.60619 1.00001ZM3.58263 13.3226V16.6762L1.35125 14.9987L3.58263 13.3212V13.3226ZM10.6503 23.25L1.02354 30.4849V16.0148L10.6503 23.25Z" fill="white"/>
<path d="M13.8182 14.4997C14.1009 14.4997 14.33 14.2759 14.33 13.9997C14.33 13.7234 14.1009 13.4997 13.8182 13.4997C12.4069 13.4997 11.2592 12.3784 11.2592 10.9997C11.2592 9.62093 12.4069 8.49968 13.8182 8.49968C15.2294 8.49968 16.3771 9.62093 16.3771 10.9997C16.3771 11.2747 16.1468 11.4997 15.8653 11.4997C15.5825 11.4997 15.3535 11.2747 15.3535 10.9997C15.3535 10.1722 14.6652 9.49968 13.8182 9.49968C12.9712 9.49968 12.2828 10.1722 12.2828 10.9997C12.2828 11.8259 12.9712 12.4997 13.8182 12.4997C14.211 12.4997 14.5705 12.3547 14.8417 12.1172C15.113 12.3547 15.4725 12.4997 15.8653 12.4997C16.7123 12.4997 17.4007 11.8272 17.4007 10.9997C17.4007 9.06969 15.7937 7.49951 13.818 7.49951C11.8423 7.49951 10.2354 9.0695 10.2354 10.9997C10.2354 12.9299 11.8425 14.4997 13.8182 14.4997ZM13.8182 11.4997C13.5367 11.4997 13.3064 11.2747 13.3064 10.9997C13.3064 10.7247 13.5367 10.4997 13.8182 10.4997C14.0997 10.4997 14.33 10.7247 14.33 10.9997C14.33 11.2747 14.0997 11.4997 13.8182 11.4997Z" fill="white"/>
</svg>
