<svg width="19" height="12" viewBox="0 0 19 12" fill="none" xmlns="http://www.w3.org/2000/svg">
<path fill-rule="evenodd" clip-rule="evenodd" d="M0.5 2.47059C0.5 1.3512 1.46161 0.5 2.57407 0.5H11.3889C12.5013 0.5 13.463 1.3512 13.463 2.47059V3.09884L16.2403 1.28156L16.2416 1.28072C16.679 0.996415 17.24 0.962276 17.7116 1.19139L17.7134 1.19225C18.1834 1.42288 18.5 1.88951 18.5 2.42359V9.57653C18.5 10.108 18.189 10.5763 17.7126 10.8082C17.5021 10.9109 17.2754 10.9589 17.0556 10.9589C16.7737 10.9589 16.4899 10.8799 16.2425 10.7199L16.2403 10.7184L13.463 8.90116V9.52941C13.463 10.6488 12.5013 11.5 11.3889 11.5H2.57407C1.46161 11.5 0.5 10.6488 0.5 9.52941V2.47059ZM2.57415 2.08814C2.29829 2.08814 2.12971 2.29283 2.12971 2.47049V9.52932C2.12971 9.70698 2.29829 9.91167 2.57415 9.91167H11.389C11.6648 9.91167 11.8334 9.70698 11.8334 9.52932V2.47049C11.8334 2.29283 11.6648 2.08814 11.389 2.08814H2.57415ZM16.8705 2.78142L13.4631 5.01136V6.98834L16.8705 9.21829V2.78142Z" fill="#50B089"/>
</svg>
