<svg width="97" height="38" viewBox="0 0 97 38" fill="none" xmlns="http://www.w3.org/2000/svg">
<g clip-path="url(#clip0_23922_18925)">
<path fill-rule="evenodd" clip-rule="evenodd" d="M37.4173 0.18668C32.0153 0.897957 27.7831 2.13749 25.4081 3.70413C23.9479 4.6673 23.2816 5.5187 22.9561 6.83718C22.4085 9.05522 20.9114 10.2858 18.2718 10.6876C17.3654 10.8255 15.6803 10.825 14.5032 10.6865C13.4739 10.5653 11.4783 10.1679 10.5499 9.89913C10.2177 9.80298 9.93581 9.73454 9.92341 9.74706C9.8902 9.78053 12.2007 10.5816 13.4346 10.9642C17.2288 12.1411 19.7566 12.6351 21.7127 12.582C22.7844 12.5529 22.8034 12.5496 23.2783 12.3038C23.671 12.1006 23.7904 11.9956 23.93 11.7311C24.122 11.3672 24.1201 11.094 23.9183 10.0176C23.6541 8.60778 24.1475 7.35709 25.515 5.97038C27.6738 3.78135 31.9464 1.81672 37.7969 0.322847C38.4701 0.150983 38.9568 0.0109304 38.8784 0.0117221C38.8 0.0124418 38.1425 0.0911766 37.4173 0.18668ZM15.8222 3.38696C13.3805 3.75818 11.4369 4.29493 10.1064 4.96525C8.75991 5.64378 8.16501 6.27927 7.91627 7.30499C7.65471 8.38352 6.87472 9.08473 5.58136 9.40405C4.60616 9.64479 2.75867 9.53259 1.18229 9.13698C0.872192 9.0591 0.605495 9.00858 0.589602 9.02463C0.540353 9.07436 2.98075 9.84969 3.99294 10.1058C5.35928 10.4516 6.18595 10.5796 7.05325 10.5796C7.69597 10.5796 7.85733 10.5553 8.12738 10.4177C8.54075 10.207 8.64595 10.0005 8.57653 9.53605C8.54695 9.33813 8.52158 8.9333 8.52015 8.63643C8.51801 8.18698 8.55116 8.02742 8.71843 7.68283C9.51196 6.04832 12.3085 4.52393 16.5349 3.42229C17.3565 3.20811 17.0864 3.19473 15.8222 3.38696ZM36.2413 7.41503C34.7147 7.56955 33.2134 7.89557 32.2318 8.28579C29.6196 9.32431 28.2131 10.8532 27.6579 13.2581C26.8324 16.8329 24.4527 18.5825 19.9378 18.9338C17.4555 19.127 13.5977 18.6171 10.3088 17.6612C9.84088 17.5252 9.44639 17.4257 9.43214 17.4401C9.36172 17.5112 12.7276 18.7709 15.0104 19.5279C22.7786 22.1037 27.6555 22.2535 28.7712 19.9506C28.9547 19.5719 28.97 19.4653 29.0168 18.2478C29.0711 16.8331 29.1773 16.2754 29.5771 15.3056C30.2142 13.7605 31.7632 12.0477 33.6694 10.7808C35.4981 9.56541 37.9394 8.45988 40.3585 7.75163L41.1468 7.5209L40.8322 7.46778C40.3287 7.38286 36.9441 7.34399 36.2413 7.41503ZM67.6695 7.94379C65.0489 8.37842 63.2 10.2235 62.6078 12.995C62.4613 13.681 62.441 15.6301 62.5711 16.5171C62.7916 18.0195 63.238 19.0299 64.0336 19.8277C65.1396 20.9368 66.4034 21.4083 69.9169 22.0226C71.7456 22.3423 71.8916 22.3747 72.7322 22.6475C73.9419 23.0401 74.8437 23.6682 75.3484 24.4698C75.4606 24.6479 75.6375 25.0527 75.7415 25.3694C75.9155 25.8988 75.9311 26.0437 75.935 27.1686C75.9392 28.3589 75.9334 28.4089 75.7195 29.0123C75.0959 30.7711 73.7296 31.907 71.7385 32.3219C70.5709 32.5653 69.0901 32.463 67.8818 32.0554C64.9603 31.07 63.2723 28.5375 63.0298 24.7756L62.9822 24.0379H62.7079H62.4335V28.3561V32.6743H62.7186C62.989 32.6743 63.0036 32.663 63.0036 32.4543C63.0036 32.0704 63.1542 31.6123 63.3373 31.4387C63.481 31.3026 63.5906 31.2715 63.9183 31.2741C64.2587 31.2768 64.5125 31.3604 65.5338 31.8058C67.0198 32.4539 67.5492 32.6391 68.4202 32.8157C70.2419 33.185 72.1115 33.0232 73.6168 32.366C76.1695 31.2516 77.6142 28.6668 77.6142 25.2143C77.6142 23.6922 77.4386 22.7364 76.9816 21.7709C76.1006 19.9095 74.3963 18.9606 70.6465 18.2437C65.6224 17.2832 64.501 16.7136 64.024 14.8797C63.8487 14.2057 63.8691 12.7305 64.064 11.983C64.5132 10.2611 65.6793 9.04838 67.3156 8.60152C67.5507 8.53732 68.0836 8.46593 68.4996 8.4429C71.4499 8.27974 73.8346 9.81068 74.9828 12.6053C75.272 13.3093 75.599 14.602 75.6602 15.2832L75.7096 15.8334H75.9848H76.2601V12.2349V8.63643H75.9863C75.7126 8.63643 75.7126 8.63643 75.6247 9.03312C75.4636 9.75994 75.0233 10.0549 74.3867 9.86229C74.2263 9.81371 73.8044 9.59478 73.4492 9.3757C71.6734 8.28046 70.6713 7.93868 69.0617 7.87916C68.5706 7.86102 68.0126 7.88693 67.6695 7.94379ZM51.1014 8.67097V8.9215L52.6515 8.94086L54.2017 8.96029L54.2197 20.4215L54.2377 31.8826H52.6695H51.1014V32.1705V32.4584H55.9122H60.723V32.1705V31.8826H59.1906H57.6583V20.4035V8.9243H59.1906H60.723V8.67241V8.42052H55.9122H51.1014V8.67097ZM78.1844 8.66766V8.92157L79.7702 8.94093L81.356 8.96029L81.374 20.4215L81.392 31.8826H79.7882H78.1844V32.1705V32.4584L84.2959 32.458C90.9275 32.4575 91.1495 32.4465 92.3676 32.0584C94.7775 31.2906 96.381 29.6239 96.8646 27.3845C97.0147 26.6889 96.978 25.1245 96.7951 24.4338C96.2809 22.4906 94.8486 21.1079 92.5529 20.3386C91.8749 20.1114 90.7276 19.8681 90.0689 19.8119C89.5865 19.7707 89.3928 19.6478 89.8103 19.6478C89.9327 19.6478 90.3736 19.5973 90.7903 19.5354C92.8333 19.2325 94.095 18.6599 95.058 17.5987C95.7891 16.793 96.1491 15.8887 96.2979 14.4843C96.491 12.6614 95.8435 11.1842 94.3671 10.079C93.4772 9.41276 92.3265 8.92121 90.9445 8.61671C90.292 8.47298 90.0235 8.466 84.2246 8.44038L78.1844 8.41375V8.66766ZM84.8454 9.01427C84.8266 9.06378 84.8197 11.4199 84.8298 14.2501L84.8482 19.3959L86.0955 19.4171C87.4763 19.4406 88.7848 19.3459 89.5068 19.1704C89.767 19.1072 90.2524 18.9249 90.5856 18.7655C92.0275 18.0755 92.7515 16.7423 92.8458 14.6038C92.8943 13.5045 92.7787 12.8818 92.3704 12.0445C91.491 10.2406 89.8113 9.21888 87.3584 8.99548C86.2521 8.89473 84.8867 8.90495 84.8454 9.01427ZM42.4576 14.8694C39.4808 15.4228 36.3591 16.7822 34.0195 18.5438C32.6243 19.5943 31.3201 20.8964 30.3547 22.2027C30.1499 22.4798 29.7216 22.9656 29.4029 23.2823C27.8689 24.8064 25.7539 25.7387 22.8424 26.1738C21.6539 26.3514 18.3756 26.3513 16.8556 26.1735C15.3146 25.9932 13.4355 25.6669 11.7711 25.2904C10.9738 25.1101 10.3037 24.9805 10.282 25.0023C10.2081 25.077 10.6438 26.153 11.2309 27.3449C13.1316 31.2045 16.2427 34.3725 19.9559 36.2298C21.6516 37.0779 23.2086 37.5704 25.012 37.8292C26.0536 37.9787 28.1716 37.9796 29.2592 37.8309C37.0564 36.7649 43.0006 30.9042 44.3068 22.9944C44.411 22.3633 44.4372 21.8159 44.4358 20.2955C44.4342 18.622 44.4138 18.2737 44.2686 17.4527C44.0894 16.4395 43.8036 15.2607 43.6667 14.9709C43.5604 14.7458 43.2586 14.7205 42.4576 14.8694ZM84.8661 19.9751C84.8367 20.0062 84.8126 22.6981 84.8126 25.9572V31.8826H86.6687C88.0879 31.8826 88.6538 31.8557 89.0736 31.7681C91.7067 31.2189 93.0945 29.1491 93.0985 25.7652C93.0994 25.0115 93.065 24.649 92.9451 24.1488C92.4147 21.9361 90.8647 20.565 88.3762 20.1075C87.7183 19.9866 84.9538 19.8823 84.8661 19.9751Z" fill="white"/>
</g>
<defs>
<clipPath id="clip0_23922_18925">
<rect width="97" height="38" fill="white"/>
</clipPath>
</defs>
</svg>
