<svg width="80" height="80" viewBox="0 0 80 80" fill="none" xmlns="http://www.w3.org/2000/svg">
<g clip-path="url(#clip0_24067_9805)">
<path d="M40 79.625C61.8843 79.625 79.625 61.8843 79.625 40C79.625 18.1157 61.8843 0.375 40 0.375C18.1157 0.375 0.375 18.1157 0.375 40C0.375 61.8843 18.1157 79.625 40 79.625Z" fill="#32BA7C"/>
<path d="M29.875 57.875L50.25 78.25C67.125 73.75 79.625 58.375 79.625 40C79.625 39.625 79.625 39.25 79.625 38.875L63.625 24.125L29.875 57.875Z" fill="#0AA06E"/>
<path d="M41 48.875C42.75 50.625 42.75 53.625 41 55.375L37.375 59C35.625 60.75 32.625 60.75 30.875 59L15 43C13.25 41.25 13.25 38.25 15 36.5L18.625 32.875C20.375 31.125 23.375 31.125 25.125 32.875L41 48.875Z" fill="white"/>
<path d="M54.875 21.25C56.625 19.5 59.625 19.5 61.375 21.25L65 24.875C66.75 26.625 66.75 29.625 65 31.375L37.5 58.75C35.75 60.5 32.75 60.5 31 58.75L27.375 55.125C25.625 53.375 25.625 50.375 27.375 48.625L54.875 21.25Z" fill="white"/>
</g>
<defs>
<clipPath id="clip0_24067_9805">
<rect width="80" height="80" fill="white"/>
</clipPath>
</defs>
</svg>
