<svg width="34" height="34" viewBox="0 0 34 34" fill="none" xmlns="http://www.w3.org/2000/svg">
<path d="M17 34C26.3888 34 34 26.3888 34 17C34 7.61116 26.3888 0 17 0C7.61116 0 0 7.61116 0 17C0 26.3888 7.61116 34 17 34Z" fill="#FFC2C2" fill-opacity="0.2"/>
<path d="M21.3825 8.99117C21.1839 8.90068 20.9733 8.8551 20.7567 8.8551C20.1278 8.8551 19.5739 9.23433 19.3455 9.82157C19.0578 10.5615 19.4294 11.4192 20.1917 11.7744C22.8097 12.9931 24.5013 15.6435 24.5013 18.5273C24.5013 22.6331 21.161 25.9736 17.055 25.9736C12.9491 25.9736 9.60872 22.6331 9.60872 18.5273C9.60872 15.6149 11.3244 12.9531 13.9798 11.7461C14.3918 11.5589 14.696 11.2005 14.8143 10.7633C14.9326 10.3261 14.8485 9.86031 14.5833 9.48531C14.3079 9.09566 13.8481 8.86324 13.3534 8.86324C13.1258 8.86324 12.8963 8.91337 12.6898 9.0081C8.97982 10.7119 6.58252 14.4485 6.58252 18.5273C6.58252 24.302 11.2804 29 17.055 29C22.8296 29 27.5275 24.302 27.5275 18.5273C27.5275 14.4306 25.1154 10.6875 21.3825 8.99117ZM17.055 28.3333C11.6481 28.3333 7.24919 23.9342 7.24919 18.5273C7.24919 14.708 9.49398 11.2093 12.9681 9.61422C13.0879 9.55888 13.2212 9.52991 13.3534 9.52991C13.632 9.52991 13.8883 9.65719 14.0389 9.87008C14.1911 10.0856 14.238 10.3408 14.1709 10.5892C14.1045 10.8339 13.9344 11.0345 13.7039 11.1393C10.8112 12.4541 8.94206 15.3538 8.94206 18.5273C8.94206 23.0009 12.5815 26.6403 17.055 26.6403C21.5285 26.6403 25.168 23.0009 25.168 18.5273C25.168 15.3854 23.325 12.4977 20.4731 11.1702C20.0358 10.9664 19.8088 10.4697 19.967 10.0631C20.0949 9.73433 20.4049 9.52177 20.7567 9.52177C20.8776 9.52177 20.9953 9.54749 21.1068 9.59794C24.6022 11.1865 26.8608 14.6914 26.8608 18.5273C26.8608 23.9342 22.4619 28.3333 17.055 28.3333Z" fill="#EE574D"/>
<path d="M17.055 28.3333C11.6481 28.3333 7.24919 23.9342 7.24919 18.5273C7.24919 14.708 9.49398 11.2093 12.9681 9.61422C13.0879 9.55888 13.2212 9.52991 13.3534 9.52991C13.632 9.52991 13.8883 9.65719 14.0389 9.87008C14.1911 10.0856 14.238 10.3408 14.1709 10.5892C14.1045 10.8339 13.9344 11.0345 13.7039 11.1393C10.8112 12.4541 8.94206 15.3538 8.94206 18.5273C8.94206 23.0009 12.5815 26.6403 17.055 26.6403C21.5285 26.6403 25.168 23.0009 25.168 18.5273C25.168 15.3854 23.325 12.4977 20.4731 11.1702C20.0358 10.9664 19.8088 10.4697 19.967 10.0631C20.0949 9.73433 20.4049 9.52177 20.7567 9.52177C20.8776 9.52177 20.9953 9.54749 21.1068 9.59794C24.6022 11.1865 26.8608 14.6914 26.8608 18.5273C26.8608 23.9342 22.4619 28.3333 17.055 28.3333Z" fill="#EE574D"/>
<path d="M15.5417 5.33333V16.1188C15.5417 16.3031 15.691 16.4521 15.8751 16.4521H18.2348C18.4189 16.4521 18.5681 16.3031 18.5681 16.1188V5.33333C18.5681 5.14909 18.4189 5 18.2348 5H15.8751C15.691 5 15.5417 5.14909 15.5417 5.33333ZM16.2084 5.66667H17.9014V15.7855H16.2084V5.66667Z" fill="#EE574D"/>
<path d="M16.2084 5.66667H17.9014V15.7855H16.2084V5.66667Z" fill="#EE574D"/>
</svg>
