<svg width="12" height="18" viewBox="0 0 12 18" fill="none" xmlns="http://www.w3.org/2000/svg">
<path d="M3.07489 3.14998C3.07489 2.37422 3.38306 1.63023 3.9316 1.08169C4.48015 0.533144 5.22413 0.224976 5.99989 0.224976C6.77565 0.224976 7.51963 0.533144 8.06818 1.08169C8.61672 1.63023 8.92489 2.37422 8.92489 3.14998V9.58498C8.92489 10.3607 8.61672 11.1047 8.06818 11.6533C7.51963 12.2018 6.77565 12.51 5.99989 12.51C5.22413 12.51 4.48015 12.2018 3.9316 11.6533C3.38306 11.1047 3.07489 10.3607 3.07489 9.58498V3.14998Z" fill="white"/>
<path d="M1.31989 7.82996C1.47505 7.82996 1.62384 7.89159 1.73355 8.0013C1.84326 8.11101 1.90489 8.2598 1.90489 8.41496V9.58496C1.90489 10.671 2.33633 11.7126 3.10429 12.4806C3.87225 13.2485 4.91383 13.68 5.99989 13.68C7.08596 13.68 8.12753 13.2485 8.8955 12.4806C9.66346 11.7126 10.0949 10.671 10.0949 9.58496V8.41496C10.0949 8.2598 10.1565 8.11101 10.2662 8.0013C10.3759 7.89159 10.5247 7.82996 10.6799 7.82996C10.835 7.82996 10.9838 7.89159 11.0936 8.0013C11.2033 8.11101 11.2649 8.2598 11.2649 8.41496V9.58496C11.2649 10.8801 10.7876 12.1298 9.9242 13.0952C9.06084 14.0606 7.87198 14.6739 6.58489 14.818V16.605H8.92489C9.08004 16.605 9.22884 16.6666 9.33855 16.7763C9.44826 16.886 9.50989 17.0348 9.50989 17.19C9.50989 17.3451 9.44826 17.4939 9.33855 17.6036C9.22884 17.7133 9.08004 17.775 8.92489 17.775H3.07489C2.91974 17.775 2.77095 17.7133 2.66124 17.6036C2.55153 17.4939 2.48989 17.3451 2.48989 17.19C2.48989 17.0348 2.55153 16.886 2.66124 16.7763C2.77095 16.6666 2.91974 16.605 3.07489 16.605H5.41489V14.818C4.1278 14.6739 2.93895 14.0606 2.07559 13.0952C1.21222 12.1298 0.734913 10.8801 0.734894 9.58496V8.41496C0.734894 8.2598 0.796527 8.11101 0.906236 8.0013C1.01595 7.89159 1.16474 7.82996 1.31989 7.82996Z" fill="white"/>
</svg>
