<svg width="12" height="20" viewBox="0 0 12 20" fill="none" xmlns="http://www.w3.org/2000/svg">
<path d="M2.74988 3.5C2.74988 2.63805 3.09229 1.8114 3.70178 1.2019C4.31127 0.59241 5.13792 0.25 5.99988 0.25C6.86183 0.25 7.68848 0.59241 8.29798 1.2019C8.90747 1.8114 9.24988 2.63805 9.24988 3.5V10.65C9.24988 11.512 8.90747 12.3386 8.29798 12.9481C7.68848 13.5576 6.86183 13.9 5.99988 13.9C5.13792 13.9 4.31127 13.5576 3.70178 12.9481C3.09229 12.3386 2.74988 11.512 2.74988 10.65V3.5Z" fill="#465466"/>
<path d="M0.799902 8.70001C0.972293 8.70001 1.13762 8.76849 1.25952 8.89039C1.38142 9.01229 1.4499 9.17762 1.4499 9.35001V10.65C1.4499 11.8567 1.92928 13.0141 2.78257 13.8673C3.63586 14.7206 4.79317 15.2 5.9999 15.2C7.20664 15.2 8.36395 14.7206 9.21724 13.8673C10.0705 13.0141 10.5499 11.8567 10.5499 10.65V9.35001C10.5499 9.17762 10.6184 9.01229 10.7403 8.89039C10.8622 8.76849 11.0275 8.70001 11.1999 8.70001C11.3723 8.70001 11.5376 8.76849 11.6595 8.89039C11.7814 9.01229 11.8499 9.17762 11.8499 9.35001V10.65C11.8499 12.089 11.3195 13.4776 10.3602 14.5502C9.40095 15.6229 8.08 16.3044 6.6499 16.4645V18.45H9.2499C9.42229 18.45 9.58762 18.5185 9.70952 18.6404C9.83142 18.7623 9.8999 18.9276 9.8999 19.1C9.8999 19.2724 9.83142 19.4377 9.70952 19.5596C9.58762 19.6815 9.42229 19.75 9.2499 19.75H2.7499C2.57751 19.75 2.41218 19.6815 2.29028 19.5596C2.16838 19.4377 2.0999 19.2724 2.0999 19.1C2.0999 18.9276 2.16838 18.7623 2.29028 18.6404C2.41218 18.5185 2.57751 18.45 2.7499 18.45H5.3499V16.4645C3.9198 16.3044 2.59885 15.6229 1.63956 14.5502C0.680268 13.4776 0.149923 12.089 0.149902 10.65V9.35001C0.149902 9.17762 0.218384 9.01229 0.340283 8.89039C0.462182 8.76849 0.627512 8.70001 0.799902 8.70001Z" fill="#465466"/>
</svg>
