<svg xmlns="http://www.w3.org/2000/svg" xmlns:xlink="http://www.w3.org/1999/xlink" viewBox="0 0 500 500" width="500" height="500" preserveAspectRatio="xMidYMid meet" style="width: 100%; height: 100%; transform: translate3d(0px, 0px, 0px); content-visibility: visible;"><defs><clipPath id="__lottie_element_2"><rect width="500" height="500" x="0" y="0"></rect></clipPath></defs><g clip-path="url(#__lottie_element_2)"><g transform="matrix(1,0,0,1,279.84503173828125,92.44900512695312)" opacity="0.9999520333894646" style="display: none;"><g opacity="1" transform="matrix(1,0,0,1,74.05799865722656,103.177001953125)"><path stroke-linecap="round" strokeLinejoin="round" fill-opacity="0" stroke="rgb(0,0,0)" stroke-opacity="1" strokeWidth="26" d=" M-9.057999610900879,-38.176998138427734 C2,-29.141000747680664 9.057999610900879,-15.395000457763672 9.057999610900879,0 C9.057999610900879,15.394000053405762 2,29.139999389648438 -9.057999610900879,38.176998138427734"></path></g></g><g transform="matrix(1,0,0,1,310.8520202636719,54.50700378417969)" opacity="0.9999520333894646" style="display: none;"><g opacity="1" transform="matrix(1,0,0,1,83.05500030517578,141.11900329589844)"><path stroke-linecap="round" strokeLinejoin="round" fill-opacity="0" stroke="rgb(0,0,0)" stroke-opacity="1" strokeWidth="26" d=" M-18.05500030517578,76.11900329589844 C4.894000053405762,57.3650016784668 18.05500030517578,29.621000289916992 18.05500030517578,0 C18.05500030517578,-29.621000289916992 4.894000053405762,-57.3650016784668 -18.05500030517578,-76.11900329589844"></path></g></g><g transform="matrix(1,0,0,1,84.03900146484375,92.44900512695312)" opacity="0.9999520333894646" style="display: none;"><g opacity="1" transform="matrix(1,0,0,1,74.05799865722656,103.177001953125)"><path stroke-linecap="round" strokeLinejoin="round" fill-opacity="0" stroke="rgb(0,0,0)" stroke-opacity="1" strokeWidth="26" d=" M9.059000015258789,-38.176998138427734 C-1.9989999532699585,-29.141000747680664 -9.059000015258789,-15.395000457763672 -9.059000015258789,0 C-9.059000015258789,15.394000053405762 -1.9989999532699585,29.139999389648438 9.059000015258789,38.176998138427734"></path></g></g><g transform="matrix(1,0,0,1,35.03700256347656,54.50700378417969)" opacity="0.9999520333894646" style="display: none;"><g opacity="1" transform="matrix(1,0,0,1,83.05599975585938,141.11900329589844)"><path stroke-linecap="round" strokeLinejoin="round" fill-opacity="0" stroke="rgb(0,0,0)" stroke-opacity="1" strokeWidth="26" d=" M18.05500030517578,76.11900329589844 C-4.894000053405762,57.3650016784668 -18.055999755859375,29.621000289916992 -18.055999755859375,0 C-18.055999755859375,-29.621000289916992 -4.894000053405762,-57.3650016784668 18.05500030517578,-76.11900329589844"></path></g></g><g transform="matrix(1,0,0,1,95.29200744628906,26.5)" opacity="1" style="display: block;"><g opacity="1" transform="matrix(1,0,0,1,160.70799255371094,304.15899658203125)"><path stroke-linecap="round" strokeLinejoin="round" fill-opacity="0" stroke="rgb(0,0,0)" stroke-opacity="1" strokeWidth="26" d=" M95.70800018310547,-33.840999603271484 C81.74800109863281,5.551000118255615 44.11600112915039,33.840999603271484 0,33.840999603271484 C-44.11600112915039,33.840999603271484 -81.74800109863281,5.551000118255615 -95.70800018310547,-33.840999603271484"></path></g><g opacity="1" transform="matrix(1,0,0,1,160.70799255371094,177)"><path stroke-linecap="round" strokeLinejoin="round" fill-opacity="0" stroke="rgb(0,0,0)" stroke-opacity="1" strokeWidth="26" d=" M0,-112 C0,-112 0,-112 0,-112 C-28.9950008392334,-112 -52.5,-88.49500274658203 -52.5,-59.5 C-52.5,-59.5 -52.5,59.5 -52.5,59.5 C-52.5,88.49500274658203 -28.9950008392334,112 0,112 C28.9950008392334,112 52.5,88.49500274658203 52.5,59.5 C52.5,59.5 52.5,-59.5 52.5,-59.5 C52.5,-88.49500274658203 28.9950008392334,-112 0,-112z"></path></g><g opacity="1" transform="matrix(1,0,0,1,0,0)"><path stroke-linecap="round" strokeLinejoin="round" fill-opacity="0" stroke="rgb(0,0,0)" stroke-opacity="1" strokeWidth="26" d=" M104.70800018310547,394 C104.70800018310547,394 216.70799255371094,394 216.70799255371094,394"></path></g><g opacity="1" transform="matrix(1,0,0,1,0,0)"><path stroke-linecap="round" strokeLinejoin="round" fill-opacity="0" stroke="rgb(0,0,0)" stroke-opacity="1" strokeWidth="26" d=" M160.70799255371094,394 C160.70799255371094,394 160.70799255371094,338 160.70799255371094,338"></path></g></g></g></svg>