<svg width="24" height="24" viewBox="0 0 24 24" fill="none" xmlns="http://www.w3.org/2000/svg">
<g clip-path="url(#clip0_92_16099)">
<path d="M12 19.25L16.7833 9L21.5667 19.25M13.3667 16.5167H20.2" stroke="#0F1828" strokeWidth="1.36667" stroke-linecap="round" strokeLinejoin="round"/>
<path d="M12.0925 5.892C11.7925 5.892 11.5705 6 11.4265 6.216C11.2825 6.432 11.2105 6.714 11.2105 7.062V15.972L9.78852 15.36V10.554C9.33252 10.746 8.88252 10.842 8.43852 10.842C7.92252 10.842 7.34052 10.716 6.69252 10.464C6.92052 10.752 7.09452 11.064 7.21452 11.4C7.34652 11.724 7.41252 12.048 7.41252 12.372C7.41252 12.816 7.30452 13.23 7.08852 13.614C6.87252 13.986 6.55452 14.286 6.13452 14.514C5.71452 14.742 5.21652 14.856 4.64052 14.856C2.85252 14.856 1.35852 13.638 0.158516 11.202L0.770516 10.896C1.20252 11.712 1.70652 12.384 2.28252 12.912C2.85852 13.428 3.48252 13.686 4.15452 13.686C4.68252 13.686 5.10252 13.53 5.41452 13.218C5.73852 12.906 5.90052 12.486 5.90052 11.958C5.90052 11.514 5.78652 11.088 5.55852 10.68C5.33052 10.272 5.01852 9.948 4.62252 9.708C4.32252 9.804 4.04052 9.87 3.77652 9.906L2.84052 10.032L2.53452 8.898L3.75852 8.682C4.49052 8.55 5.04852 8.364 5.43252 8.124C5.81652 7.872 6.00852 7.458 6.00852 6.882C6.00852 6.054 5.55252 5.64 4.64052 5.64C3.82452 5.64 2.97252 5.952 2.08452 6.576L1.43652 5.334C1.85652 5.034 2.31252 4.806 2.80452 4.65C3.29652 4.482 3.75852 4.398 4.19052 4.398C4.94652 4.398 5.57652 4.644 6.08052 5.136C6.59652 5.616 6.85452 6.264 6.85452 7.08C6.85452 7.584 6.72852 8.028 6.47652 8.412C6.22452 8.796 5.87652 9.114 5.43252 9.366C6.39252 9.618 7.20252 9.744 7.86252 9.744C8.97852 9.744 9.62052 9.396 9.78852 8.7V7.332C9.78852 6.912 9.83052 6.432 9.91452 5.892H7.95252L7.44852 4.74H13.0645L13.5685 5.892H12.0925Z" fill="#0F1828"/>
</g>
<defs>
<clipPath id="clip0_92_16099">
<rect width="24" height="24" fill="white"/>
</clipPath>
</defs>
</svg>
