<svg width="24" height="24" viewBox="0 0 24 24" fill="none" xmlns="http://www.w3.org/2000/svg">
<path d="M6 13.285C6 11.635 6.67 10.135 7.76 9.04503L6.34 7.62503C4.9 9.07503 4 11.075 4 13.285C4 17.365 7.05 20.725 11 21.215V19.195C8.17 18.715 6 16.255 6 13.285ZM20 13.285C20 8.86503 16.42 5.28503 12 5.28503C11.94 5.28503 11.88 5.29503 11.82 5.29503L12.91 4.20503L11.5 2.78503L8 6.28503L11.5 9.78503L12.91 8.37503L11.83 7.29503C11.89 7.29503 11.95 7.28503 12 7.28503C15.31 7.28503 18 9.97503 18 13.285C18 16.255 15.83 18.715 13 19.195V21.215C16.95 20.725 20 17.365 20 13.285Z" fill="black"/>
</svg>
