<svg width="20" height="20" viewBox="0 0 20 20" fill="none" xmlns="http://www.w3.org/2000/svg">
<path d="M19.5 9.9999C19.5 9.1572 19.0375 8.41375 18.2444 7.99985L4.19241 0.616036C3.7925 0.40689 3.34551 0.304157 2.89441 0.317716C2.44331 0.331275 2.00329 0.46067 1.61667 0.693457C0.91491 1.11431 0.494056 1.82996 0.501004 2.60914C0.495492 2.68524 0.512769 2.76126 0.550633 2.82751L3.88372 9.52942C3.94583 9.48823 4.0198 9.46869 4.09415 9.47383L4.97854 9.50162L9.99703 9.50857C10.062 9.50694 10.1266 9.51853 10.187 9.54264C10.2473 9.56675 10.3021 9.60288 10.3481 9.64884C10.394 9.69479 10.4302 9.74961 10.4543 9.80996C10.4784 9.87031 10.49 9.93493 10.4884 9.9999C10.49 10.0649 10.4784 10.1295 10.4543 10.1898C10.4302 10.2502 10.394 10.305 10.3481 10.351C10.3021 10.3969 10.2473 10.433 10.187 10.4572C10.1266 10.4813 10.062 10.4929 9.99703 10.4912L4.97854 10.4982L4.09514 10.4704C4.02691 10.4714 3.95936 10.4568 3.89762 10.4277L0.550633 17.1733C0.512906 17.2392 0.495631 17.3149 0.501004 17.3907C0.494056 17.9733 0.739223 18.5272 1.16107 18.949C1.29408 19.082 1.44892 19.2081 1.61766 19.3063C2.39584 19.7768 3.38545 19.8126 4.19241 19.3838L18.2444 12C19.0375 11.586 19.5 10.8426 19.5 9.9999Z" fill="#49454F"/>
</svg>
