<svg width="20" height="21" viewBox="0 0 20 21" fill="none" xmlns="http://www.w3.org/2000/svg">
<rect width="20" height="21" rx="10" fill="white"/>
<path d="M11.6667 3.1062V3.9812C14.7084 4.4187 17.0834 7.17495 17.0834 10.5C17.0834 13.825 14.7084 16.5812 11.6667 17.0187V17.8937C15.1667 17.4562 17.9167 14.3062 17.9167 10.5C17.9167 6.6937 15.1667 3.5437 11.6667 3.1062Z" fill="#81D4FA"/>
<path d="M5.83325 14H2.91659C2.45825 14 2.08325 13.6062 2.08325 13.125V7.875C2.08325 7.39375 2.45825 7 2.91659 7H5.83325V14Z" fill="#546E7A"/>
<path d="M10.8333 18.375L5.83325 14V7L10.8333 2.625V18.375Z" fill="#78909C"/>
<path d="M11.6667 7.56873V8.48748C12.4167 8.83748 12.9167 9.58123 12.9167 10.5C12.9167 11.4187 12.4167 12.1625 11.6667 12.5125V13.4312C12.8751 13.0375 13.7501 11.9 13.7501 10.5C13.7501 9.09998 12.8751 7.96248 11.6667 7.56873Z" fill="#03A9F4"/>
<path d="M11.6667 5.33752V6.21252C13.5834 6.60627 15.0001 8.40002 15.0001 10.5C15.0001 12.6 13.5834 14.3938 11.6667 14.7875V15.6625C14.0417 15.225 15.8334 13.0813 15.8334 10.5C15.8334 7.91877 14.0417 5.73127 11.6667 5.33752Z" fill="#4FC3F7"/>
</svg>
