<svg width="16" height="16" viewBox="0 0 16 16" fill="none" xmlns="http://www.w3.org/2000/svg">
<path d="M15.5 10C15.224 10 15 10.224 15 10.5V14H1V8H6.5C6.776 8 7 7.776 7 7.5C7 7.224 6.776 7 6.5 7H1V5H6.5C6.776 5 7 4.776 7 4.5C7 4.224 6.776 4 6.5 4H1C0.448 4 0 4.448 0 5V14C0 14.552 0.448 15 1 15H15C15.552 15 16 14.552 16 14V10.5C16 10.224 15.776 10 15.5 10Z" fill="#2A41AB"/>
<path d="M4.5 10H2.5C2.224 10 2 10.224 2 10.5C2 10.776 2.224 11 2.5 11H4.5C4.776 11 5 10.776 5 10.5C5 10.224 4.776 10 4.5 10Z" fill="#2A41AB"/>
<path d="M15.697 2.53975L12.197 1.03975C12.07 0.98675 11.929 0.98675 11.802 1.03975L8.302 2.53975C8.119 2.61875 8 2.79975 8 2.99975V4.99975C8 7.75075 9.017 9.35875 11.751 10.9338C11.828 10.9777 11.914 10.9998 12 10.9998C12.086 10.9998 12.172 10.9777 12.249 10.9338C14.983 9.36275 16 7.75475 16 4.99975V2.99975C16 2.79975 15.881 2.61875 15.697 2.53975ZM15 4.99975C15 7.30875 14.236 8.57975 12 9.91975C9.764 8.57675 9 7.30575 9 4.99975V3.32975L12 2.04375L15 3.32975V4.99975Z" fill="#2A41AB"/>
<path d="M13.8129 4.10886C13.5979 3.93886 13.2839 3.97186 13.1099 4.18686L11.5379 6.15286L10.9159 5.22286C10.7609 4.99286 10.4499 4.93186 10.2229 5.08386C9.9939 5.23686 9.9309 5.54786 10.0839 5.77686L11.0839 7.27686C11.1729 7.40986 11.3189 7.49186 11.4789 7.49986C11.4859 7.49986 11.4939 7.49986 11.4999 7.49986C11.6509 7.49986 11.7949 7.43186 11.8909 7.31186L13.8909 4.81186C14.0629 4.59586 14.0289 4.28186 13.8129 4.10886Z" fill="#2A41AB"/>
</svg>
