<svg width="16" height="16" viewBox="0 0 16 16" fill="none" xmlns="http://www.w3.org/2000/svg">
<g clip-path="url(#clip0_23922_20217)">
<circle cx="8" cy="10.6665" r="2" stroke="#2A41AB"/>
<path d="M8 12.8398L6.49142 14.2861C6.27537 14.4932 6.16735 14.5968 6.07587 14.6326C5.86741 14.7143 5.63617 14.6444 5.52651 14.4666C5.47839 14.3886 5.46339 14.2478 5.4334 13.9663C5.41647 13.8074 5.408 13.728 5.3823 13.6614C5.32476 13.5124 5.20386 13.3965 5.04844 13.3413C4.97902 13.3167 4.89613 13.3086 4.73036 13.2923C4.43675 13.2636 4.28994 13.2492 4.20855 13.2031C4.02309 13.0979 3.95019 12.8762 4.03537 12.6764C4.07275 12.5887 4.18078 12.4851 4.39682 12.278L5.3823 11.3332L6.07587 10.6396" stroke="#2A41AB"/>
<path d="M8 12.8401L9.50858 14.2864C9.72463 14.4935 9.83265 14.5971 9.92413 14.6329C10.1326 14.7146 10.3638 14.6447 10.4735 14.4669C10.5216 14.3889 10.5366 14.2481 10.5666 13.9667C10.5835 13.8077 10.592 13.7283 10.6177 13.6617C10.6752 13.5127 10.7961 13.3968 10.9516 13.3416C11.021 13.317 11.1039 13.3089 11.2696 13.2926C11.5633 13.2639 11.7101 13.2495 11.7914 13.2034C11.9769 13.0982 12.0498 12.8766 11.9646 12.6767C11.9272 12.589 11.8192 12.4854 11.6032 12.2783L10.6177 11.3335L10 10.7158" stroke="#2A41AB"/>
<path d="M11.5465 11.9973C12.8614 11.9834 13.5943 11.901 14.0809 11.4144C14.6667 10.8286 14.6667 9.88578 14.6667 8.00016V5.3335C14.6667 3.44788 14.6667 2.50507 14.0809 1.91928C13.4951 1.3335 12.5523 1.3335 10.6667 1.3335L5.33337 1.3335C3.44776 1.3335 2.50495 1.3335 1.91916 1.91928C1.33337 2.50507 1.33337 3.44788 1.33337 5.3335L1.33337 8.00016C1.33337 9.88578 1.33337 10.8286 1.91916 11.4144C2.43142 11.9266 3.21669 11.9909 4.66671 11.999" stroke="#2A41AB"/>
<path d="M6 4L10 4" stroke="#2A41AB" stroke-linecap="round"/>
<path d="M4.66663 6.3335H11.3333" stroke="#2A41AB" stroke-linecap="round"/>
</g>
<defs>
<clipPath id="clip0_23922_20217">
<rect width="16" height="16" fill="white"/>
</clipPath>
</defs>
</svg>
