<svg width="17" height="13" viewBox="0 0 17 13" fill="none" xmlns="http://www.w3.org/2000/svg">
<path d="M2.57233 7.11572C1.16008 7.11572 0 8.2758 0 9.68805V10.6711C0 11.4252 0.626326 12.0515 1.3804 12.0515H7.36553C8.11958 12.0515 8.74593 11.4252 8.74593 10.6711V9.68805C8.74593 8.2758 7.58585 7.11572 6.1736 7.11572H2.57233ZM2.57233 8.49612H6.1736C6.83999 8.49612 7.36553 9.02166 7.36553 9.68805V10.6711H1.3804V9.68805C1.3804 9.02166 1.90591 8.49612 2.57233 8.49612Z" fill="#2A41AB"/>
<path d="M4.82877 12.0518C4.64658 12.0511 4.47202 11.9785 4.3432 11.8496C4.21437 11.7208 4.14174 11.5463 4.14112 11.3641C4.14076 11.2735 4.15828 11.1836 4.19265 11.0997C4.22702 11.0159 4.27755 10.9396 4.34141 10.8753C4.40526 10.8109 4.48119 10.7598 4.56481 10.7248C4.64843 10.6899 4.73813 10.6717 4.82877 10.6714H13.8039C14.5743 10.6714 15.1792 10.0613 15.1792 9.29096V2.78627C15.1792 2.01592 14.5743 1.40587 13.8039 1.40587H9.73912C9.64848 1.40556 9.55879 1.38737 9.47517 1.35238C9.39155 1.3174 9.31562 1.26629 9.25176 1.20196C9.1879 1.13763 9.13733 1.06135 9.10297 0.977478C9.0686 0.893603 9.05112 0.803765 9.05147 0.713122C9.0521 0.530939 9.12473 0.356409 9.25355 0.227587C9.38237 0.0987635 9.55694 0.0260963 9.73912 0.0254688H13.8039C15.3201 0.0254688 16.5596 1.27009 16.5596 2.78627V9.29096C16.5596 10.8072 15.3201 12.0518 13.8039 12.0518H4.82877Z" fill="#2A41AB"/>
<path d="M4.49772 0C2.93292 0 1.64014 1.26924 1.64014 2.82702C1.64011 4.38482 2.9329 5.64897 4.49772 5.64894C6.06254 5.64897 7.36042 4.38482 7.36039 2.82702C7.36039 1.26924 6.06251 0 4.49772 0ZM4.49772 1.3804C5.32841 1.3804 5.97999 2.02699 5.97999 2.82702C5.97999 3.62707 5.32841 4.26854 4.49772 4.26854C3.66702 4.26854 3.02054 3.62707 3.02054 2.82702C3.02054 2.02699 3.66702 1.3804 4.49772 1.3804Z" fill="#2A41AB"/>
<path d="M8.97013 5.34839C8.87949 5.3487 8.78979 5.36689 8.70617 5.40187C8.62255 5.43686 8.54662 5.48797 8.48276 5.5523C8.4189 5.61663 8.36838 5.6929 8.33401 5.77678C8.29964 5.86065 8.28212 5.95049 8.28248 6.04114C8.2831 6.22332 8.35573 6.39784 8.48455 6.52667C8.61338 6.6555 8.78794 6.72816 8.97013 6.72879H13.1113C13.2935 6.72816 13.468 6.6555 13.5969 6.52667C13.7257 6.39784 13.7984 6.22332 13.799 6.04114C13.7993 5.95049 13.7818 5.86065 13.7474 5.77678C13.7131 5.6929 13.6625 5.61663 13.5987 5.5523C13.5348 5.48797 13.4589 5.43686 13.3753 5.40187C13.2917 5.36689 13.202 5.3487 13.1113 5.34839H8.97013Z" fill="#2A41AB"/>
<path d="M8.97013 2.80664C8.78795 2.80727 8.61342 2.87993 8.48459 3.00876C8.35577 3.13758 8.2831 3.31211 8.28248 3.49429C8.28212 3.58494 8.2996 3.67477 8.33397 3.75865C8.36834 3.84253 8.4189 3.9188 8.48276 3.98313C8.54662 4.04747 8.62255 4.09861 8.70617 4.1336C8.78979 4.16858 8.87948 4.18673 8.97013 4.18704H13.1113C13.202 4.18673 13.2917 4.16858 13.3753 4.1336C13.4589 4.09861 13.5348 4.04747 13.5987 3.98313C13.6625 3.9188 13.7131 3.84253 13.7474 3.75865C13.7818 3.67477 13.7993 3.58494 13.799 3.49429C13.7984 3.31211 13.7257 3.13758 13.5969 3.00876C13.468 2.87993 13.2935 2.80727 13.1113 2.80664H8.97013Z" fill="#2A41AB"/>
<path d="M10.8954 7.89526C10.7132 7.89589 10.5387 7.96852 10.4098 8.09734C10.281 8.22616 10.2084 8.40073 10.2078 8.58292C10.2074 8.67356 10.2249 8.76339 10.2593 8.84727C10.2936 8.93115 10.3442 9.00742 10.4081 9.07176C10.4719 9.13609 10.5478 9.18719 10.6315 9.22218C10.7151 9.25717 10.8048 9.27535 10.8954 9.27566H13.1112C13.2018 9.27535 13.2915 9.25717 13.3752 9.22218C13.4588 9.18719 13.5347 9.13609 13.5985 9.07176C13.6624 9.00742 13.7129 8.93115 13.7473 8.84727C13.7817 8.76339 13.7992 8.67356 13.7988 8.58292C13.7982 8.40073 13.7256 8.22616 13.5967 8.09734C13.4679 7.96852 13.2934 7.89589 13.1112 7.89526H10.8954Z" fill="#2A41AB"/>
</svg>
