<svg width="18" height="12" viewBox="0 0 18 12" fill="none" xmlns="http://www.w3.org/2000/svg">
<path fill-rule="evenodd" clip-rule="evenodd" d="M0 2.47059C0 1.3512 0.961614 0.5 2.07407 0.5H10.8889C12.0013 0.5 12.963 1.3512 12.963 2.47059V3.09884L15.7403 1.28156L15.7416 1.28072C16.179 0.996415 16.74 0.962276 17.2116 1.19139L17.2134 1.19225C17.6834 1.42288 18 1.88951 18 2.42359V9.57653C18 10.108 17.689 10.5763 17.2126 10.8082C17.0021 10.9109 16.7754 10.9589 16.5556 10.9589C16.2737 10.9589 15.9899 10.8799 15.7425 10.7199L15.7403 10.7184L12.963 8.90116V9.52941C12.963 10.6488 12.0013 11.5 10.8889 11.5H2.07407C0.961614 11.5 0 10.6488 0 9.52941V2.47059ZM2.07415 2.08814C1.79829 2.08814 1.62971 2.29283 1.62971 2.47049V9.52932C1.62971 9.70698 1.79829 9.91167 2.07415 9.91167H10.889C11.1648 9.91167 11.3334 9.70698 11.3334 9.52932V2.47049C11.3334 2.29283 11.1648 2.08814 10.889 2.08814H2.07415ZM16.3705 2.78142L12.9631 5.01136V6.98834L16.3705 9.21829V2.78142Z" fill="white"/>
</svg>
